<svg width="659" height="670" viewBox="0 0 659 670" fill="none" xmlns="http://www.w3.org/2000/svg">
<path d="M116.038 246.499C126.663 235.874 126.663 218.648 116.038 208.023C105.413 197.398 88.187 197.398 77.5621 208.023C66.9373 218.648 66.9373 235.874 77.5622 246.499C88.187 257.123 105.413 257.123 116.038 246.499Z" stroke="#263238" stroke-linecap="round" stroke-linejoin="round"/>
<path d="M564.488 149.787C576.239 148.078 590.697 153.522 592.103 166.785C593.389 178.747 585.192 190.982 577.933 199.769C571.067 208.011 561.63 217.311 551.195 220.941C539.293 225.009 535.467 212.684 542.787 204.729C557.381 188.865 591.892 180.986 610.054 194.43C630.501 209.553 616.694 241.614 597.578 251.217C591.362 254.348 585.888 250.386 590.364 243.822C593.752 238.847 600.209 236.563 605.865 235.535C617.162 233.478 634.735 235.988 639 248.647" stroke="#263238" stroke-linecap="round" stroke-linejoin="round"/>
<path d="M539.762 160.206C545.365 156.4 551.474 153.397 557.91 151.284" stroke="#263238" stroke-linecap="round" stroke-linejoin="round"/>
<path d="M528.284 169.099C530.189 167.344 532.185 165.711 534.242 164.153" stroke="#263238" stroke-linecap="round" stroke-linejoin="round"/>
<path d="M340.121 50.7601L344.976 45.709L285.784 51.4104L319.569 65.8833" stroke="#263238" stroke-linecap="round" stroke-linejoin="round"/>
<path d="M322.276 67.0477L344.976 76.7568L332.031 59.1685L338.216 52.7412" stroke="#263238" stroke-linecap="round" stroke-linejoin="round"/>
<path d="M450.536 53.4217V33.6406" stroke="#263238" stroke-linecap="round" stroke-linejoin="round"/>
<path d="M450.536 67.9703V59.3804" stroke="#263238" stroke-linecap="round" stroke-linejoin="round"/>
<path d="M471.602 70.7076L485.833 40.8242" stroke="#263238" stroke-linecap="round" stroke-linejoin="round"/>
<path d="M511.678 71.4788L518.227 66.3672" stroke="#263238" stroke-linecap="round" stroke-linejoin="round"/>
<path d="M489.19 88.7949L506.219 75.6831" stroke="#263238" stroke-linecap="round" stroke-linejoin="round"/>
<path d="M31.2917 369.238L1 361.329L5.77891 402.661L53.6437 375.061L33.9685 369.934" stroke="#263238" stroke-linecap="round" stroke-linejoin="round"/>
<path d="M624.8 354.07L658.297 365.654" stroke="#263238" stroke-linecap="round" stroke-linejoin="round"/>
<path d="M606.637 520.213C607.992 521.696 609.638 522.885 611.472 523.704C613.307 524.524 615.291 524.956 617.3 524.975C619.309 524.994 621.3 524.598 623.15 523.813C624.999 523.028 626.667 521.87 628.05 520.412C629.432 518.954 630.499 517.226 631.184 515.337C631.869 513.448 632.157 511.439 632.031 509.433C631.905 507.428 631.367 505.47 630.451 503.682C629.534 501.894 628.259 500.314 626.705 499.04" stroke="#263238" stroke-linecap="round" stroke-linejoin="round"/>
<path d="M624.164 497.377C621.318 495.874 618.054 495.352 614.881 495.893C611.707 496.434 608.801 498.006 606.612 500.367C604.424 502.728 603.075 505.745 602.776 508.95C602.477 512.156 603.244 515.37 604.958 518.095" stroke="#263238" stroke-linecap="round" stroke-linejoin="round"/>
<path d="M54.1881 464.681L41.1671 498.269" stroke="#263238" stroke-linecap="round" stroke-linejoin="round"/>
<path d="M58.4377 453.701L56.5322 458.601" stroke="#263238" stroke-linecap="round" stroke-linejoin="round"/>
<path d="M159.642 261.789L195.574 282.583" stroke="#263238" stroke-linecap="round" stroke-linejoin="round"/>
<path d="M119.853 137.446L90.6953 156.289" stroke="#263238" stroke-linecap="round" stroke-linejoin="round"/>
<path d="M130.227 130.701L125.69 133.575" stroke="#263238" stroke-linecap="round" stroke-linejoin="round"/>
<path d="M631.983 149.438V162.127L641.556 159.631L631.983 149.438Z" stroke="#263238" stroke-linecap="round" stroke-linejoin="round"/>
<path d="M225.307 167.571C223.688 162.762 241.836 141.423 241.836 141.423L251.666 151.873C251.666 151.873 228.588 176.992 225.307 167.571Z" fill="#92E3A9" stroke="#263238" stroke-linecap="round" stroke-linejoin="round"/>
<path d="M200.459 136.644C205.737 141.332 209.321 137.718 209.321 137.718C209.202 138.186 209.178 138.674 209.25 139.153C209.323 139.631 209.49 140.09 209.742 140.503C209.994 140.916 210.326 141.274 210.719 141.557C211.112 141.839 211.557 142.041 212.028 142.149C214.478 142.89 224.021 138.307 230.448 138.307C232.523 148.787 233.456 159.461 233.231 170.142C233.231 170.142 255.311 172.395 258.305 156.531C258.305 156.531 254.116 146.549 251.228 137.385C247.326 124.999 246.796 121.596 244.755 118.98C241.519 114.866 214.705 107.774 207.522 107.471C200.338 107.169 196.452 134.542 187.484 147.215C188.52 147.69 189.668 147.872 190.801 147.741C191.934 147.611 193.009 147.172 193.911 146.474C196.376 144.901 200.459 136.644 200.459 136.644Z" fill="#BFBFBF" stroke="#263238" stroke-linecap="round" stroke-linejoin="round"/>
<path d="M200.459 136.644C204.83 125.65 210.365 121.128 210.365 121.128C210.365 121.128 211.877 117.226 210.365 116.031" stroke="#263238" stroke-linecap="round" stroke-linejoin="round"/>
<path d="M209.321 137.718C209.609 134.436 221.133 130.988 222.479 129.052C223.825 127.117 222.479 118.875 222.479 118.875" stroke="#263238" stroke-linecap="round" stroke-linejoin="round"/>
<path d="M230.448 138.308C232.525 138.129 234.516 137.394 236.211 136.18C237.906 134.967 239.243 133.32 240.082 131.412" stroke="#263238" stroke-linecap="round" stroke-linejoin="round"/>
<path d="M210.365 121.127C210.365 121.127 214.1 123.819 217.246 123.819C218.393 124.432 219.35 125.349 220.012 126.469C220.673 127.59 221.014 128.87 220.996 130.171" stroke="#263238" stroke-linecap="round" stroke-linejoin="round"/>
<path d="M211.862 126.965C210.967 127.979 210.282 129.159 209.846 130.439C209.41 131.719 209.232 133.072 209.321 134.421" stroke="#263238" stroke-linecap="round" stroke-linejoin="round"/>
<path d="M205.737 129.233C205.737 129.233 208.459 127.434 209.639 129.233" stroke="#263238" stroke-linecap="round" stroke-linejoin="round"/>
<path d="M403.654 236.623C403.654 236.623 385.007 223.012 369.052 225.462C369.052 225.462 284.105 235.035 282.109 235.035C282.109 235.035 259.424 148.727 254.978 141.423C254.978 141.423 254.192 135.374 251.787 134.527C251.787 134.527 241.761 162.036 225.276 167.571C225.276 167.571 226.789 172.804 230.418 172.804C230.418 172.804 229.859 266.567 243.016 277.713C256.173 288.859 367.358 298.053 367.358 298.053L403.654 236.623Z" fill="#92E3A9"/>
<path opacity="0.2" d="M342.813 289.176L337.263 295.225C303.342 291.672 251.757 285.153 243.046 277.773C229.889 266.597 230.448 172.864 230.448 172.864C228.119 172.864 226.653 170.671 225.911 169.114C238.161 168.614 253.133 156.35 253.133 156.35C255.462 169.461 238.418 184.509 238.418 184.509C238.418 184.509 237.526 238.317 244.71 265.418C251.893 292.518 342.813 289.176 342.813 289.176Z" fill="black"/>
<path d="M403.654 236.623C403.654 236.623 385.007 223.012 369.052 225.462C369.052 225.462 284.105 235.035 282.109 235.035C282.109 235.035 259.424 148.727 254.978 141.423C254.978 141.423 254.192 135.374 251.787 134.527C251.787 134.527 241.761 162.036 225.276 167.571C225.276 167.571 226.789 172.804 230.418 172.804C230.418 172.804 229.859 266.567 243.016 277.713C256.173 288.859 367.358 298.053 367.358 298.053L403.654 236.623Z" stroke="#263238" stroke-linecap="round" stroke-linejoin="round"/>
<path d="M375.646 241.417C375.646 241.417 379.079 229.848 394.338 232.51C409.597 235.171 447.556 236.23 466.702 230.241C466.702 230.241 417.688 293.668 388.803 282.295C359.918 270.922 375.646 241.417 375.646 241.417Z" fill="#BFBFBF" stroke="#263238" stroke-linecap="round" stroke-linejoin="round"/>
<path d="M457.507 102.526C457.507 102.526 453.076 87.403 442.067 90.6545C431.057 93.906 432.554 93.4523 426.475 90.2008C420.395 86.9494 416.645 89.732 414.573 94.3748C412.501 99.0176 408.297 97.8683 401.809 95.6603C395.321 93.4523 389.71 96.2955 389.937 102.526C390.164 108.757 381.877 102.269 377.234 109.226C372.591 116.182 375.374 115.714 374.451 121.324C373.529 126.935 363.774 130.141 365.634 135.253C367.494 140.364 374.905 149.166 367.948 152.886C360.992 156.607 358.663 168.206 365.392 171.684C372.122 175.163 359.797 185.598 364.243 195.11C368.296 203.761 379.548 205.772 374.451 214.589C373.538 215.926 373.05 217.507 373.05 219.126C373.05 220.744 373.538 222.326 374.451 223.663C374.716 224.055 375.096 224.354 375.539 224.519C375.983 224.684 376.466 224.707 376.923 224.583C377.379 224.46 377.786 224.197 378.086 223.831C378.386 223.466 378.564 223.015 378.595 222.543C378.639 221.351 378.988 220.19 379.608 219.171C381.922 215.466 385.113 219.171 388.848 212.214C388.848 212.214 386.444 220.109 394.383 222.891C398.527 224.404 399.268 226.793 399.011 228.82C398.955 229.172 399.011 229.532 399.171 229.851C399.33 230.17 399.585 230.431 399.9 230.597C400.215 230.764 400.574 230.828 400.927 230.78C401.28 230.733 401.61 230.576 401.869 230.332C402.682 229.482 403.275 228.447 403.599 227.317C403.923 226.187 403.968 224.995 403.73 223.844C403.73 223.844 416.72 234.521 426.006 232.192C435.292 229.863 447.345 226.627 447.814 219.67C449.282 221.677 450.219 224.024 450.536 226.491C450.564 226.929 450.723 227.348 450.994 227.694C451.265 228.04 451.633 228.296 452.052 228.429C452.471 228.561 452.92 228.564 453.34 228.437C453.76 228.309 454.132 228.058 454.407 227.716C456.224 225.588 457.325 222.943 457.553 220.154C458.375 222.459 459.98 224.403 462.09 225.644C462.554 225.87 463.073 225.959 463.586 225.9C464.099 225.842 464.585 225.637 464.986 225.311C465.386 224.985 465.685 224.551 465.848 224.061C466.01 223.571 466.028 223.044 465.901 222.543C465.575 221.595 465.584 220.563 465.925 219.62C466.266 218.676 466.919 217.878 467.776 217.356C472.419 214.574 475.655 209.477 472.873 202.974C472.873 202.974 479.859 207.617 477.53 214.574C477.06 215.633 476.878 216.798 477.003 217.951C477.128 219.104 477.555 220.203 478.241 221.137C478.484 221.351 478.789 221.482 479.112 221.51C479.434 221.538 479.757 221.462 480.033 221.292C480.309 221.123 480.523 220.87 480.645 220.57C480.766 220.269 480.787 219.938 480.706 219.625C480.347 218.802 480.207 217.9 480.3 217.007C480.393 216.114 480.715 215.26 481.236 214.528C484.472 209.432 492.85 203.231 486.347 196.048C479.844 188.864 484.412 184.327 484.412 184.327C484.412 184.327 483.489 188.97 491.383 191.98C499.278 194.989 494.408 199.345 495.194 202.566C495.49 203.709 496.085 204.753 496.918 205.59C497.203 205.883 497.584 206.063 497.991 206.097C498.398 206.131 498.803 206.017 499.133 205.776C499.462 205.535 499.694 205.183 499.784 204.785C499.875 204.387 499.818 203.969 499.625 203.609C499.144 202.897 498.858 202.072 498.794 201.215C498.731 200.358 498.892 199.5 499.262 198.725C503.24 191.556 492.775 188.274 491.701 182.013C490.627 175.752 492.155 168.69 492.775 162.565C493.334 157.257 493.758 153.204 490.4 148.637C488.223 145.612 485.455 142.92 484.351 139.366C483.749 136.608 483.667 133.761 484.109 130.973C484.557 128.178 484.392 125.319 483.625 122.595C481.704 117.196 475.292 118.058 472.464 113.521C469.803 109.286 472.086 103.615 466.975 100.727C465.41 99.9837 463.649 99.7576 461.947 100.081C460.245 100.405 458.691 101.261 457.507 102.526V102.526Z" fill="#263238"/>
<path d="M405.484 242.703C412.773 238.075 409.325 222.876 406.361 213.621C404.97 209.25 403.684 206.195 403.684 206.195H403.805L442.067 186.535C437.227 206.891 442.067 234.702 442.067 234.702" fill="#BFBFBF"/>
<path d="M405.484 242.703C412.773 238.075 409.325 222.876 406.361 213.621C404.97 209.25 403.684 206.195 403.684 206.195H403.805L442.067 186.535C437.227 206.891 442.067 234.702 442.067 234.702" stroke="#263238" stroke-linecap="round" stroke-linejoin="round"/>
<path d="M419.82 206.135C418.281 208.317 416.274 210.128 413.945 211.436C411.617 212.745 409.026 213.517 406.361 213.696C404.97 209.326 403.684 206.271 403.684 206.271H403.805L419.82 206.135Z" fill="#263238"/>
<path d="M437.378 198.029C449.205 190.588 459.141 179.291 461.575 163.049C466.112 133.347 465.855 106.216 414.83 109.498C392.478 111.01 383.812 132.954 383.994 139.881C384.402 155.926 371.608 184.161 387.457 207.602C389.816 211.08 405.227 211.216 421.454 205.576" fill="#BFBFBF"/>
<path d="M437.378 198.029C449.205 190.588 459.141 179.291 461.575 163.049C466.112 133.347 465.855 106.216 414.83 109.498C392.478 111.01 383.812 132.954 383.994 139.881C384.402 155.926 371.608 184.161 387.457 207.602C389.816 211.08 405.227 211.216 421.454 205.576" stroke="#263238" stroke-linecap="round" stroke-linejoin="round"/>
<path d="M410.202 144.372C410.202 144.372 418.248 141.347 422.875 153.249" stroke="#263238" stroke-linecap="round" stroke-linejoin="round"/>
<path d="M393.552 143.026C390.874 140.856 387.497 139.738 384.054 139.88" stroke="#263238" stroke-linecap="round" stroke-linejoin="round"/>
<path d="M394.58 160.251C390.406 167.102 385.325 163.7 385.506 167.102C385.703 169.93 392.236 174.891 392.236 174.891" stroke="#263238" stroke-linecap="round" stroke-linejoin="round"/>
<path d="M416.418 160.357C415.979 162.217 414.573 163.488 413.302 163.17C412.032 162.853 411.351 161.113 411.79 159.238C412.229 157.363 413.635 156.123 414.921 156.425C416.206 156.728 416.871 158.497 416.418 160.357Z" fill="#263238"/>
<path d="M391.828 155.775C391.525 157.665 390.224 159.026 388.924 158.8C387.623 158.573 386.822 156.894 387.124 154.989C387.427 153.083 388.727 151.737 390.013 151.964C391.298 152.191 392.13 153.885 391.828 155.775Z" fill="#263238"/>
<path d="M405.953 181.575C405.456 182.695 404.885 183.782 404.244 184.826C402.293 188.002 398.83 192.191 394.61 190.876C393.325 190.482 392.735 188.652 392.493 186.686C392.288 184.853 392.258 183.005 392.402 181.167C394.618 181.623 396.87 181.876 399.132 181.923C401.41 182.148 403.709 182.03 405.953 181.575V181.575Z" fill="white"/>
<path opacity="0.4" d="M405.953 181.575C405.456 182.695 404.885 183.782 404.244 184.826C400.176 184.1 395.578 185.462 392.493 186.702C392.288 184.869 392.258 183.02 392.402 181.182L405.953 181.575Z" fill="black"/>
<path d="M405.953 181.575C405.456 182.695 404.885 183.782 404.244 184.826C402.293 188.002 398.83 192.191 394.61 190.876C393.325 190.482 392.735 188.652 392.493 186.686C392.288 184.853 392.258 183.005 392.402 181.167C394.618 181.623 396.87 181.876 399.132 181.923C401.41 182.148 403.709 182.03 405.953 181.575V181.575Z" stroke="#263238" stroke-linecap="round" stroke-linejoin="round"/>
<path d="M414.573 121.747C414.573 121.747 415.828 118.965 418.338 124.53C420.849 130.095 410.263 135.631 418.338 139.82C426.414 144.009 426.747 153.93 422.875 157.786C419.004 161.642 429.197 163.502 430.588 167.223C431.979 170.943 427.805 173.953 428.743 178.474C429.681 182.996 435.488 187.442 435.352 189.862C435.216 192.282 430.15 196.123 433.613 200.237C437.076 204.35 446.83 201.749 447.768 210.052C447.768 210.052 477.001 177.552 477.455 147.321C477.908 117.09 456.116 104.583 433.9 102.662C411.684 100.741 377.294 111.539 374.511 150.255C374.511 150.255 375.555 147.805 379.623 147.23C383.691 146.655 385.672 141.181 385.173 135.131C384.674 129.082 388.788 132.803 394.398 131.411C400.009 130.02 398.149 122.141 401.869 120.825C405.59 119.509 408.297 126.859 414.573 121.747Z" fill="#263238"/>
<path d="M394.338 108.711C394.111 112.417 382.739 109.165 376.946 112.417C371.154 115.668 372.53 121.233 372.999 124.515C373.468 127.797 368.205 131.941 363.925 134.481C359.646 137.022 359.585 142.239 365.15 147.185C370.716 152.13 365.982 153.506 360.81 157.922C355.638 162.338 355.819 167.722 360.81 170.913" stroke="#263238" stroke-linecap="round" stroke-linejoin="round"/>
<path d="M410.202 119.192C410.202 119.192 419.684 121.052 416.902 126.391C414.119 131.729 410.202 138.353 418.338 144.342C426.475 150.33 414.815 157.015 419.926 162.353C425.038 167.692 430.24 167.45 426.475 176.267C422.709 185.083 429.499 187.307 429.499 187.307" stroke="#263238" stroke-linecap="round" stroke-linejoin="round"/>
<path d="M390.436 180.592C390.436 180.592 399.737 182.996 406.936 181.378" stroke="#263238" stroke-linecap="round" stroke-linejoin="round"/>
<path d="M455.436 195.11C454.993 195.772 454.83 196.581 454.98 197.362C455.13 198.143 455.581 198.834 456.237 199.284" stroke="white" stroke-linecap="round" stroke-linejoin="round"/>
<path d="M456.282 181.409C460.366 183.586 461.56 187.034 458.929 191.057" stroke="white" stroke-linecap="round" stroke-linejoin="round"/>
<path d="M430.649 124.167C430.649 128.045 431.643 131.857 433.536 135.24C435.429 138.624 438.158 141.466 441.462 143.495C444.486 146.519 442.974 149.544 441.462 154.081C441.462 160.13 450.536 160.13 452.048 164.667C452.048 169.204 444.486 173.741 451.882 179.125" stroke="white" stroke-linecap="round" stroke-linejoin="round"/>
<path d="M426.928 111.555C428.819 113.771 429.995 116.507 430.301 119.404" stroke="white" stroke-linecap="round" stroke-linejoin="round"/>
<path d="M475.746 184.448C475.455 186.008 475.613 187.617 476.2 189.091" stroke="white" stroke-linecap="round" stroke-linejoin="round"/>
<path d="M466.46 167.011C464.842 171.397 468.865 171.004 471.708 171.336C476.426 171.881 477.848 174.724 476.789 179.473" stroke="white" stroke-linecap="round" stroke-linejoin="round"/>
<path d="M448.312 125.982C449.129 134.739 462.982 133.544 460.562 143.707C459.428 148.41 459.625 151.268 463.315 155.231C465.22 157.318 469.243 158.709 467.761 162.127" stroke="white" stroke-linecap="round" stroke-linejoin="round"/>
<path d="M483.807 164.909C483.354 166.476 483.246 168.121 483.489 169.733" stroke="white" stroke-linecap="round" stroke-linejoin="round"/>
<path d="M460.078 114.609C463.103 114.821 462.211 118.693 463.103 120.659C464.328 123.411 466.717 124.107 469.152 125.574C474.007 128.598 473.523 131.351 472.963 136.493C472.313 142.451 474.234 144.916 479.224 147.835C484.215 150.754 487.118 153.34 485.273 159.616" stroke="white" stroke-linecap="round" stroke-linejoin="round"/>
<path d="M387.018 121.748C382.587 123.88 375.026 124.364 376.296 130.821C377.566 137.279 383.086 140.243 376.598 145.854C371.124 150.603 371.729 153.098 375.298 158.693C378.323 163.382 379.154 167.616 375.419 172.304" stroke="white" stroke-linecap="round" stroke-linejoin="round"/>
<path d="M403.654 112.25C396.092 105.687 394.58 114.761 391.359 118.92" stroke="white" stroke-linecap="round" stroke-linejoin="round"/>
<path d="M382.648 231.209C382.648 231.209 368.825 246.453 384.432 258.234C400.039 270.015 456.751 230.287 456.751 230.287C456.751 230.287 477.198 225.084 487.935 231.935C498.673 238.786 488.616 321.388 466.763 357.109C460.275 367.695 452.502 383.544 452.502 383.544C452.502 383.544 454.694 397.367 442.127 401.556C418.248 409.511 357.014 409.118 339.154 399.182C318.193 387.507 339.229 391.121 340.469 327.543C340.469 327.543 331.29 304.072 334.783 287.271C336.084 281.025 339.879 271.951 345.233 262.816" fill="#92E3A9"/>
<path opacity="0.2" d="M466.702 357.139C460.214 367.726 452.441 383.575 452.441 383.575C452.441 383.575 454.634 397.397 442.067 401.586C418.187 409.541 356.954 409.148 339.093 399.212C318.132 387.537 339.169 391.151 340.409 327.574C338.162 321.517 336.442 315.279 335.267 308.927C349.09 316.897 365.165 316.125 365.165 316.125C378.943 287.573 398.678 292.896 398.678 292.896C398.678 292.896 404.032 288.117 410.202 283.656C416.372 279.195 435.745 282.582 435.745 282.582L458.309 278.045C457.885 269.667 466.082 270.484 466.082 270.484L469.213 273.418C467.383 266.491 469.213 262.272 469.213 262.272L489.024 287.165C484.941 312.269 477.183 340.096 466.702 357.139Z" fill="black"/>
<path d="M382.648 231.209C382.648 231.209 368.825 246.453 384.432 258.234C400.039 270.015 456.751 230.287 456.751 230.287C456.751 230.287 477.198 225.084 487.935 231.935C498.673 238.786 488.616 321.388 466.763 357.109C460.275 367.695 452.502 383.544 452.502 383.544C452.502 383.544 454.694 397.367 442.127 401.556C418.248 409.511 357.014 409.118 339.154 399.182C318.193 387.507 339.229 391.121 340.469 327.543C340.469 327.543 331.29 304.072 334.783 287.271C336.084 281.025 339.879 271.951 345.233 262.816" stroke="#263238" stroke-linecap="round" stroke-linejoin="round"/>
<path d="M332.923 274.34C333.411 277.252 334.436 280.047 335.947 282.582" stroke="#263238" stroke-linecap="round" stroke-linejoin="round"/>
<path d="M332.091 262.257C331.978 264.743 332.038 267.235 332.273 269.713" stroke="#263238" stroke-linecap="round" stroke-linejoin="round"/>
<path d="M282.139 235.035C282.139 235.035 271.069 246.105 273.156 254.468" stroke="#263238" stroke-linecap="round" stroke-linejoin="round"/>
<path d="M274.85 237.258C277.225 235.917 279.447 234.32 281.474 232.495" stroke="#263238" stroke-linecap="round" stroke-linejoin="round"/>
<path d="M266.033 241.311C267.575 240.789 269.089 240.188 270.57 239.512" stroke="#263238" stroke-linecap="round" stroke-linejoin="round"/>
<path d="M230.448 172.804C230.448 172.804 246.54 169.522 253.133 156.289" stroke="#263238" stroke-linecap="round" stroke-linejoin="round"/>
<path d="M405.166 263.996C407.151 263.538 409.106 262.957 411.019 262.257" stroke="#263238" stroke-linecap="round" stroke-linejoin="round"/>
<path d="M377.264 229.954C373.166 236.441 370.458 245.213 373.105 252.714C377.098 264.087 390.013 266.416 400.554 264.888" stroke="#263238" stroke-linecap="round" stroke-linejoin="round"/>
<path d="M377.188 242.703C377.188 242.703 388.924 251.777 395.805 254.468" stroke="#263238" stroke-linecap="round" stroke-linejoin="round"/>
<path d="M460.335 296.828C460.335 296.828 425.25 298.416 411.427 296.994C402.55 296.072 399.722 300.488 387.593 302.802C383.056 303.679 373.498 317.774 373.498 317.774L375.011 336.239C375.011 336.239 385.597 343.876 386.958 341.729C388.319 339.581 383.253 334.621 383.253 334.621L392.599 336.133C392.714 334.907 392.509 333.673 392.006 332.549C391.502 331.425 390.717 330.451 389.725 329.721L395.155 323.672C395.155 323.672 402.126 325.774 409.764 319.029L462.18 321.04L460.335 296.828Z" fill="#BFBFBF"/>
<path opacity="0.2" d="M462.211 320.965L409.794 318.923C402.157 325.668 395.185 323.566 395.185 323.566L389.756 329.616C390.747 330.346 391.533 331.32 392.036 332.444C392.54 333.567 392.744 334.802 392.629 336.028L383.283 334.515C383.283 334.515 388.349 339.476 386.988 341.623C385.627 343.771 375.041 336.134 375.041 336.134L373.529 317.668C375.732 314.451 378.11 311.356 380.652 308.398C390.572 314.447 416.327 309.91 416.327 309.91C416.493 305.449 419.14 300.715 421.363 297.464C437.439 297.827 460.366 296.783 460.366 296.783L462.211 320.965Z" fill="black"/>
<path d="M460.335 296.828C460.335 296.828 425.25 298.416 411.427 296.994C402.55 296.072 399.722 300.488 387.593 302.802C383.056 303.679 373.498 317.774 373.498 317.774L375.011 336.239C375.011 336.239 385.597 343.876 386.958 341.729C388.319 339.581 383.253 334.621 383.253 334.621L392.599 336.133C392.714 334.907 392.509 333.673 392.006 332.549C391.502 331.425 390.717 330.451 389.725 329.721L395.155 323.672C395.155 323.672 402.126 325.774 409.764 319.029L462.18 321.04L460.335 296.828Z" stroke="#263238" stroke-linecap="round" stroke-linejoin="round"/>
<path d="M395.185 323.596C395.185 323.596 389.514 323.143 386.988 316.125" stroke="#263238" stroke-linecap="round" stroke-linejoin="round"/>
<path d="M393.249 323.082C393.249 323.082 383.948 330.644 378.822 325.441" stroke="#263238" stroke-linecap="round" stroke-linejoin="round"/>
<path d="M382.693 327.226C382.693 327.226 384.205 332.277 383.283 334.621" stroke="#263238" stroke-linecap="round" stroke-linejoin="round"/>
<path d="M389.756 329.706C388.304 330.24 386.765 330.497 385.219 330.462" stroke="#263238" stroke-linecap="round" stroke-linejoin="round"/>
<path d="M579.959 322.432V646.566C579.959 647.082 579.858 647.593 579.66 648.069C579.462 648.545 579.172 648.978 578.807 649.341C578.442 649.705 578.008 649.994 577.531 650.19C577.054 650.385 576.543 650.485 576.027 650.483H86.0678C85.5521 650.485 85.0411 650.385 84.5642 650.19C84.0872 649.994 83.6536 649.705 83.2883 649.341C82.923 648.978 82.6331 648.545 82.4353 648.069C82.2376 647.593 82.1357 647.082 82.1357 646.566V322.432C82.1357 321.916 82.2376 321.406 82.4353 320.93C82.6331 320.453 82.923 320.021 83.2883 319.657C83.6536 319.293 84.0872 319.005 84.5642 318.809C85.0411 318.613 85.5521 318.513 86.0678 318.515H576.058C577.094 318.519 578.086 318.934 578.818 319.668C579.549 320.402 579.959 321.396 579.959 322.432Z" fill="white"/>
<path opacity="0.2" d="M579.959 322.432V337.071C566.258 341.85 546.144 345.525 529.872 344.739C508.019 343.68 426.323 325.26 397.302 318.591H576.058C577.081 318.595 578.062 318.999 578.791 319.716C579.52 320.434 579.94 321.409 579.959 322.432Z" fill="black"/>
<path d="M579.959 322.432V646.566C579.959 647.082 579.858 647.593 579.66 648.069C579.462 648.545 579.172 648.978 578.807 649.341C578.442 649.705 578.008 649.994 577.531 650.19C577.054 650.385 576.543 650.485 576.027 650.483H86.0678C85.5521 650.485 85.0411 650.385 84.5642 650.19C84.0872 649.994 83.6536 649.705 83.2883 649.341C82.923 648.978 82.6331 648.545 82.4353 648.069C82.2376 647.593 82.1357 647.082 82.1357 646.566V322.432C82.1357 321.916 82.2376 321.406 82.4353 320.93C82.6331 320.453 82.923 320.021 83.2883 319.657C83.6536 319.293 84.0872 319.005 84.5642 318.809C85.0411 318.613 85.5521 318.513 86.0678 318.515H576.058C577.094 318.519 578.086 318.934 578.818 319.668C579.549 320.402 579.959 321.396 579.959 322.432Z" stroke="#263238" stroke-miterlimit="10"/>
<path d="M121.048 318.515V650.483H86.0678C85.5521 650.485 85.0411 650.385 84.5642 650.19C84.0872 649.994 83.6536 649.705 83.2883 649.341C82.923 648.978 82.6331 648.545 82.4353 648.069C82.2376 647.593 82.1357 647.082 82.1357 646.566V322.432C82.1357 321.916 82.2376 321.406 82.4353 320.93C82.6331 320.453 82.923 320.021 83.2883 319.657C83.6536 319.293 84.0872 319.005 84.5642 318.809C85.0411 318.613 85.5521 318.513 86.0678 318.515H121.048Z" fill="#263238"/>
<path d="M101.614 333.895L90.6954 340.02L101.614 346.16L112.518 340.02L101.614 333.895Z" fill="#92E3A9"/>
<path d="M101.614 348.625L93.962 344.33L90.6954 346.16L101.614 352.285L112.518 346.16L109.252 344.33L101.614 348.625Z" fill="#92E3A9"/>
<path d="M101.614 354.765L93.962 350.455L90.6954 352.285L101.614 358.425L112.518 352.285L109.252 350.455L101.614 354.765Z" fill="#92E3A9"/>
<path d="M220.966 380.641C220.964 385.983 219.91 391.273 217.864 396.208C215.817 401.143 212.819 405.626 209.04 409.403C205.261 413.179 200.775 416.174 195.839 418.216C190.903 420.259 185.612 421.309 180.27 421.307C178.647 421.31 177.026 421.214 175.415 421.02C167.633 420.081 160.287 416.915 154.262 411.901C148.237 406.886 143.789 400.238 141.453 392.756C139.116 385.273 138.991 377.275 141.093 369.724C143.195 362.172 147.433 355.388 153.299 350.189C159.165 344.989 166.408 341.595 174.157 340.414C181.907 339.233 189.832 340.316 196.98 343.533C204.128 346.75 210.195 351.964 214.45 358.547C218.705 365.13 220.968 372.802 220.966 380.641V380.641Z" fill="#92E3A9"/>
<path opacity="0.6" d="M220.966 380.641C220.964 385.983 219.91 391.273 217.864 396.208C215.817 401.143 212.819 405.626 209.04 409.403C205.261 413.179 200.775 416.174 195.839 418.216C190.903 420.259 185.612 421.309 180.27 421.307C178.647 421.31 177.026 421.214 175.415 421.02C167.633 420.081 160.287 416.915 154.262 411.901C148.237 406.886 143.789 400.238 141.453 392.756C139.116 385.273 138.991 377.275 141.093 369.724C143.195 362.172 147.433 355.388 153.299 350.189C159.165 344.989 166.408 341.595 174.157 340.414C181.907 339.233 189.832 340.316 196.98 343.533C204.128 346.75 210.195 351.964 214.45 358.547C218.705 365.13 220.968 372.802 220.966 380.641V380.641Z" fill="white"/>
<path d="M220.966 380.641C220.964 385.983 219.91 391.273 217.864 396.208C215.817 401.143 212.819 405.626 209.04 409.403C205.261 413.179 200.775 416.174 195.839 418.216C190.903 420.259 185.612 421.309 180.27 421.307C178.647 421.31 177.026 421.214 175.415 421.02C167.633 420.081 160.287 416.915 154.262 411.901C148.237 406.886 143.789 400.238 141.453 392.756C139.116 385.273 138.991 377.275 141.093 369.724C143.195 362.172 147.433 355.388 153.299 350.189C159.165 344.989 166.408 341.595 174.157 340.414C181.907 339.233 189.832 340.316 196.98 343.533C204.128 346.75 210.195 351.964 214.45 358.547C218.705 365.13 220.968 372.802 220.966 380.641V380.641Z" stroke="#263238" stroke-linecap="round" stroke-linejoin="round"/>
<path d="M197.147 417.647C191.85 420.065 186.093 421.313 180.27 421.307C178.647 421.31 177.026 421.214 175.415 421.019C166.462 414.577 158.326 404.051 158.326 404.051C160.21 404.606 162.138 405.001 164.088 405.231C165.464 405.412 166.931 405.533 168.428 405.639C172.83 405.904 177.244 405.904 181.646 405.639C184.141 405.473 186.349 405.246 187.922 404.974C188.96 404.696 190.05 404.668 191.101 404.891C192.152 405.115 193.136 405.584 193.971 406.259C194.716 406.88 195.28 407.69 195.605 408.603C197.001 411.399 197.538 414.546 197.147 417.647Z" fill="#BFBFBF" stroke="#263238" stroke-linecap="round" stroke-linejoin="round"/>
<path d="M162.092 351.801C162.092 351.801 163.907 345.615 168.398 346.946C172.89 348.277 172.285 348.096 174.78 346.765C175.189 346.465 175.665 346.269 176.167 346.193C176.668 346.118 177.181 346.166 177.66 346.332C178.139 346.499 178.571 346.78 178.917 347.15C179.264 347.52 179.515 347.969 179.65 348.459C180.497 350.364 182.221 349.971 184.867 348.988C187.514 348.005 189.843 349.245 189.722 351.801C189.601 354.357 193.019 351.695 194.924 354.538C196.83 357.381 195.68 357.2 196.058 359.468C196.436 361.737 200.429 363.083 199.673 365.17C198.917 367.257 195.877 370.856 198.72 372.383C201.563 373.911 202.516 378.644 199.764 380.066C197.011 381.488 202.062 385.767 200.232 389.654C198.584 393.193 193.971 394.025 196.058 397.624C196.44 398.172 196.645 398.824 196.645 399.492C196.645 400.16 196.44 400.811 196.058 401.359C195.952 401.522 195.797 401.647 195.616 401.717C195.434 401.786 195.235 401.797 195.047 401.746C194.859 401.696 194.692 401.588 194.569 401.437C194.447 401.286 194.375 401.1 194.365 400.906C194.348 400.42 194.208 399.946 193.956 399.529C193.004 398.017 191.703 399.529 190.176 396.671C190.451 397.552 190.367 398.505 189.942 399.324C189.517 400.143 188.786 400.76 187.907 401.042C186.213 401.632 185.911 402.645 186.017 403.477C186.037 403.619 186.012 403.764 185.946 403.892C185.88 404.02 185.776 404.125 185.649 404.191C185.521 404.258 185.376 404.283 185.233 404.263C185.09 404.243 184.957 404.18 184.852 404.082C184.523 403.73 184.283 403.305 184.152 402.842C184.02 402.379 184.001 401.892 184.096 401.42C184.096 401.42 178.773 405.79 175.022 404.838C171.272 403.885 166.296 402.554 166.099 399.711C165.496 400.534 165.111 401.497 164.98 402.509C164.956 402.672 164.886 402.825 164.78 402.951C164.674 403.077 164.534 403.172 164.378 403.223C164.221 403.275 164.053 403.282 163.892 403.244C163.732 403.206 163.585 403.124 163.468 403.008C162.729 402.132 162.28 401.049 162.183 399.908C161.797 400.856 161.083 401.635 160.171 402.1C159.983 402.182 159.776 402.209 159.573 402.18C159.37 402.15 159.179 402.065 159.022 401.933C158.865 401.801 158.748 401.628 158.684 401.433C158.62 401.238 158.611 401.029 158.659 400.83C158.795 400.444 158.794 400.023 158.656 399.637C158.518 399.252 158.252 398.925 157.903 398.713C156.868 398.186 156.075 397.282 155.687 396.187C155.298 395.093 155.345 393.891 155.816 392.83C155.816 392.83 152.957 394.735 153.91 397.579C154.101 398.011 154.176 398.486 154.125 398.955C154.075 399.425 153.902 399.874 153.623 400.255C153.536 400.372 153.41 400.453 153.268 400.482C153.126 400.511 152.978 400.487 152.852 400.414C152.727 400.341 152.633 400.224 152.588 400.086C152.543 399.948 152.551 399.798 152.61 399.666C152.754 399.328 152.811 398.96 152.774 398.595C152.737 398.23 152.607 397.88 152.398 397.579C151.067 395.492 147.634 392.951 150.296 390.017C152.957 387.083 151.067 385.238 151.067 385.238C151.067 385.238 151.445 387.144 148.224 388.369C145.003 389.594 146.999 391.393 146.712 392.679C146.596 393.152 146.356 393.585 146.016 393.934C145.901 394.064 145.742 394.146 145.57 394.165C145.397 394.184 145.224 394.138 145.084 394.036C144.944 393.933 144.847 393.783 144.813 393.613C144.778 393.443 144.808 393.266 144.897 393.117C145.094 392.827 145.212 392.489 145.238 392.139C145.265 391.789 145.199 391.438 145.048 391.121C143.43 388.202 147.71 386.841 148.148 384.285C148.336 381.625 148.184 378.952 147.695 376.331C147.468 374.168 147.301 372.504 148.662 370.644C149.695 369.532 150.525 368.247 151.112 366.848C151.366 365.721 151.402 364.556 151.218 363.415C151.033 362.27 151.1 361.099 151.415 359.982C152.201 357.774 154.833 358.153 155.952 356.292C157.071 354.432 156.103 352.224 158.205 351.06C158.847 350.751 159.571 350.656 160.271 350.79C160.97 350.923 161.609 351.278 162.092 351.801V351.801Z" fill="#263238"/>
<path d="M183.37 409.148C180.345 407.242 181.858 401.027 183.007 397.246C183.582 395.461 184.096 394.221 184.096 394.221L168.443 386.161C170.425 394.478 168.443 405.821 168.443 405.821" fill="#BFBFBF"/>
<path d="M183.37 409.148C180.345 407.242 181.858 401.027 183.007 397.246C183.582 395.461 184.096 394.221 184.096 394.221L168.443 386.161C170.425 394.478 168.443 405.821 168.443 405.821" stroke="#263238" stroke-linecap="round" stroke-linejoin="round"/>
<path d="M177.502 394.176C178.137 395.058 178.961 395.787 179.913 396.31C180.865 396.834 181.922 397.138 183.007 397.201C183.582 395.416 184.096 394.176 184.096 394.176H177.502Z" fill="#263238"/>
<path d="M170.319 390.864C167.713 389.358 165.472 387.295 163.757 384.821C162.042 382.348 160.895 379.526 160.398 376.558C158.523 364.459 158.644 353.314 179.514 354.659C188.663 355.234 192.202 364.248 192.126 367.076C191.96 373.639 197.208 385.223 190.72 394.781C189.752 396.203 183.446 396.293 176.807 393.949" fill="#BFBFBF"/>
<path d="M170.319 390.864C167.713 389.358 165.472 387.295 163.757 384.821C162.042 382.348 160.895 379.526 160.398 376.558C158.523 364.459 158.644 353.314 179.514 354.659C188.663 355.234 192.202 364.248 192.126 367.076C191.96 373.639 197.208 385.223 190.72 394.781C189.752 396.203 183.446 396.293 176.807 393.949" stroke="#263238" stroke-linecap="round" stroke-linejoin="round"/>
<path d="M181.434 368.921C181.434 368.921 178.153 367.711 176.247 372.55" stroke="#263238" stroke-linecap="round" stroke-linejoin="round"/>
<path d="M188.255 368.361C189.346 367.476 190.723 367.019 192.126 367.075" stroke="#263238" stroke-linecap="round" stroke-linejoin="round"/>
<path d="M187.816 375.423C189.525 378.221 191.597 376.83 191.506 378.221C191.431 379.37 188.754 381.397 188.754 381.397" stroke="#263238" stroke-linecap="round" stroke-linejoin="round"/>
<path d="M178.894 375.454C179.075 376.225 179.65 376.739 180.164 376.618C180.678 376.497 180.965 375.771 180.784 375C180.602 374.229 180.028 373.73 179.514 373.851C178.999 373.972 178.712 374.697 178.894 375.454Z" fill="#263238"/>
<path d="M188.905 373.578C189.026 374.365 189.571 374.909 190.1 374.833C190.629 374.758 190.962 374.047 190.826 373.321C190.69 372.595 190.176 371.99 189.646 372.066C189.117 372.142 188.905 372.807 188.905 373.578Z" fill="#263238"/>
<path d="M183.173 384.134C183.173 384.134 185.124 388.777 187.816 387.945C189.041 387.567 188.724 383.968 188.724 383.968" fill="white"/>
<path d="M183.173 384.134C183.173 384.134 185.124 388.777 187.816 387.945C189.041 387.567 188.724 383.968 188.724 383.968" stroke="#263238" stroke-linecap="round" stroke-linejoin="round"/>
<path d="M179.65 359.665C179.65 359.665 179.136 358.531 178.137 360.799C177.139 363.068 181.434 365.336 178.137 367.06C174.841 368.784 174.689 372.822 176.277 374.41C177.865 375.998 173.691 376.739 173.132 378.266C172.572 379.794 174.266 381.019 173.888 382.803C173.51 384.588 171.12 386.478 171.181 387.461C171.241 388.444 173.313 390.032 171.892 391.711C170.47 393.39 166.478 392.361 166.099 395.718C166.099 395.718 154.152 382.425 154.001 370.009C153.85 357.593 162.727 352.527 171.846 351.755C180.966 350.984 195 355.4 196.134 371.234C195.92 370.869 195.615 370.564 195.25 370.35C194.885 370.135 194.471 370.018 194.047 370.009C192.383 369.782 191.582 367.514 191.779 365.049C191.975 362.584 190.266 364.096 187.998 363.536C185.729 362.977 186.485 359.74 184.973 359.166C183.461 358.591 182.221 361.752 179.65 359.665Z" fill="#263238"/>
<path d="M187.922 354.342C188.013 355.854 192.671 354.538 195.045 355.854C197.419 357.17 196.845 359.469 196.648 360.799C196.452 362.13 198.614 363.824 200.384 364.883C202.153 365.941 202.153 368.043 199.885 370.07C197.616 372.096 199.537 372.656 201.654 374.456C203.771 376.255 203.696 378.463 201.654 379.779" stroke="#263238" stroke-linecap="round" stroke-linejoin="round"/>
<path d="M181.434 358.622C181.434 358.622 177.563 359.378 178.697 361.555C179.831 363.733 181.434 366.455 178.107 368.905C174.78 371.355 179.544 374.093 177.457 376.27C175.37 378.448 173.238 378.357 174.78 381.972C176.323 385.586 173.57 386.509 173.57 386.509" stroke="#263238" stroke-linecap="round" stroke-linejoin="round"/>
<path d="M189.525 383.726C187.322 384.286 185.028 384.399 182.78 384.059" stroke="#263238" stroke-linecap="round" stroke-linejoin="round"/>
<path d="M208.429 409.98C200.862 417.256 190.768 421.316 180.27 421.307C178.647 421.31 177.026 421.214 175.415 421.02C164.913 419.758 155.316 414.452 148.662 406.229C148.812 405.629 149.158 405.097 149.645 404.717C154.046 401.919 162.394 404.051 162.394 404.051L164.088 405.201C169.548 408.8 186.637 419.507 191.975 415.469C192.717 414.997 193.357 414.381 193.858 413.659C194.359 412.936 194.711 412.12 194.893 411.259C195.075 410.399 195.083 409.511 194.917 408.647C194.751 407.783 194.414 406.961 193.926 406.229C193.588 405.588 193.183 404.984 192.716 404.43C192.716 404.43 199.945 401.526 208.429 409.98Z" fill="#92E3A9" stroke="#263238" stroke-linecap="round" stroke-linejoin="round"/>
<path d="M225.519 417.168C231.035 411.652 231.035 402.708 225.519 397.192C220.003 391.676 211.059 391.676 205.543 397.192C200.027 402.708 200.027 411.652 205.543 417.168C211.059 422.684 220.003 422.684 225.519 417.168Z" fill="#263238"/>
<path d="M217.669 399.756H213.39C210.466 399.756 208.096 402.126 208.096 405.049V409.329C208.096 412.253 210.466 414.622 213.39 414.622H217.669C220.593 414.622 222.962 412.253 222.962 409.329V405.049C222.962 402.126 220.593 399.756 217.669 399.756Z" stroke="white" stroke-miterlimit="10"/>
<path d="M218.259 407.182C218.262 407.725 218.104 408.256 217.804 408.709C217.505 409.161 217.077 409.514 216.576 409.723C216.076 409.932 215.524 409.988 214.992 409.883C214.459 409.778 213.97 409.517 213.586 409.133C213.203 408.749 212.942 408.26 212.837 407.728C212.731 407.195 212.787 406.644 212.996 406.143C213.205 405.642 213.558 405.215 214.011 404.915C214.463 404.615 214.994 404.457 215.537 404.46C216.259 404.46 216.951 404.747 217.462 405.257C217.972 405.768 218.259 406.46 218.259 407.182Z" stroke="white" stroke-miterlimit="10"/>
<path d="M220.497 403.613C220.514 403.741 220.503 403.871 220.466 403.994C220.428 404.118 220.364 404.232 220.279 404.329C220.194 404.425 220.089 404.503 219.972 404.556C219.854 404.61 219.727 404.637 219.598 404.637C219.469 404.637 219.341 404.61 219.223 404.556C219.106 404.503 219.001 404.425 218.916 404.329C218.831 404.232 218.767 404.118 218.73 403.994C218.692 403.871 218.681 403.741 218.698 403.613C218.726 403.394 218.833 403.193 218.999 403.048C219.164 402.902 219.377 402.822 219.598 402.822C219.818 402.822 220.031 402.902 220.196 403.048C220.362 403.193 220.469 403.394 220.497 403.613V403.613Z" fill="white"/>
<path d="M288.355 375.196H236.936C235.496 375.196 234.115 375.768 233.097 376.786C232.079 377.805 231.507 379.186 231.507 380.625C231.507 382.065 232.079 383.446 233.097 384.465C234.115 385.483 235.496 386.055 236.936 386.055H288.355C289.795 386.055 291.176 385.483 292.194 384.465C293.212 383.446 293.784 382.065 293.784 380.625C293.784 379.186 293.212 377.805 292.194 376.786C291.176 375.768 289.795 375.196 288.355 375.196Z" fill="#263238"/>
<path opacity="0.6" d="M363.018 336.829H325.936C324.897 336.829 323.901 337.242 323.166 337.976C322.432 338.711 322.019 339.707 322.019 340.746C322.019 341.785 322.432 342.781 323.166 343.516C323.901 344.25 324.897 344.663 325.936 344.663H363.018C364.057 344.663 365.053 344.25 365.788 343.516C366.522 342.781 366.935 341.785 366.935 340.746C366.935 339.707 366.522 338.711 365.788 337.976C365.053 337.242 364.057 336.829 363.018 336.829V336.829Z" fill="#263238"/>
<path d="M307.818 327.226V641.969" stroke="#263238" stroke-miterlimit="10"/>
<path d="M163.286 492.386C173.585 492.386 181.933 484.037 181.933 473.739C181.933 463.44 173.585 455.092 163.286 455.092C152.988 455.092 144.64 463.44 144.64 473.739C144.64 484.037 152.988 492.386 163.286 492.386Z" fill="#BFBFBF" stroke="#263238" stroke-miterlimit="10"/>
<path d="M188.512 485.807C188.512 487.108 188.126 488.38 187.403 489.462C186.68 490.544 185.653 491.387 184.451 491.885C183.249 492.383 181.926 492.513 180.65 492.259C179.374 492.005 178.202 491.379 177.282 490.459C176.362 489.539 175.735 488.367 175.481 487.09C175.227 485.814 175.358 484.492 175.856 483.29C176.354 482.088 177.197 481.06 178.279 480.337C179.36 479.614 180.632 479.229 181.933 479.229C183.678 479.229 185.351 479.922 186.585 481.155C187.819 482.389 188.512 484.062 188.512 485.807Z" fill="#92E3A9" stroke="#263238" stroke-linecap="round" stroke-linejoin="round"/>
<path d="M163.286 553.619C173.585 553.619 181.933 545.271 181.933 534.973C181.933 524.674 173.585 516.326 163.286 516.326C152.988 516.326 144.64 524.674 144.64 534.973C144.64 545.271 152.988 553.619 163.286 553.619Z" fill="#BFBFBF" stroke="#263238" stroke-miterlimit="10"/>
<path d="M188.512 547.026C188.512 548.327 188.126 549.599 187.403 550.68C186.68 551.762 185.653 552.605 184.451 553.103C183.249 553.601 181.926 553.732 180.65 553.478C179.374 553.224 178.202 552.597 177.282 551.677C176.362 550.757 175.735 549.585 175.481 548.309C175.227 547.033 175.358 545.71 175.856 544.508C176.354 543.306 177.197 542.279 178.279 541.556C179.36 540.833 180.632 540.447 181.933 540.447C183.677 540.451 185.348 541.145 186.581 542.378C187.814 543.611 188.508 545.282 188.512 547.026V547.026Z" fill="#92E3A9" stroke="#263238" stroke-linecap="round" stroke-linejoin="round"/>
<path d="M176.471 609.366C183.753 602.084 183.753 590.278 176.471 582.996C169.189 575.714 157.383 575.714 150.101 582.996C142.819 590.278 142.819 602.084 150.101 609.366C157.383 616.648 169.189 616.649 176.471 609.366Z" fill="#BFBFBF" stroke="#263238" stroke-miterlimit="10"/>
<path d="M188.512 608.259C188.509 609.56 188.121 610.83 187.396 611.91C186.671 612.99 185.643 613.831 184.44 614.326C183.238 614.822 181.916 614.95 180.641 614.694C179.366 614.439 178.195 613.811 177.276 612.891C176.358 611.97 175.733 610.798 175.48 609.522C175.228 608.246 175.359 606.924 175.857 605.723C176.355 604.522 177.199 603.495 178.28 602.773C179.362 602.051 180.633 601.666 181.933 601.666C182.799 601.666 183.655 601.836 184.454 602.168C185.254 602.499 185.979 602.985 186.591 603.598C187.202 604.21 187.686 604.937 188.016 605.737C188.345 606.537 188.514 607.394 188.512 608.259V608.259Z" fill="#92E3A9" stroke="#263238" stroke-linecap="round" stroke-linejoin="round"/>
<g opacity="0.3">
<path opacity="0.4" d="M568.299 357.094H326.601V429.141H568.299V357.094Z" fill="black"/>
<path opacity="0.4" d="M568.299 547.646H326.601V619.693H568.299V547.646Z" fill="black"/>
<path opacity="0.4" d="M568.299 435.734H326.601V507.781H568.299V435.734Z" fill="black"/>
</g>
<path d="M563.763 354.069H322.064V426.116H563.763V354.069Z" fill="#92E3A9"/>
<path opacity="0.6" d="M563.763 354.069H322.064V426.116H563.763V354.069Z" fill="white"/>
<path d="M563.763 354.069H322.064V426.116H563.763V354.069Z" stroke="#263238" stroke-miterlimit="10"/>
<path d="M393.945 361.329H330.443V409.783H393.945V361.329Z" fill="#263238"/>
<path opacity="0.3" d="M393.945 398.047V409.783H330.443V398.864L350.511 383.998L371.154 398.864L382.814 391.424L393.945 398.047Z" fill="white"/>
<path opacity="0.3" d="M377.944 375.06C377.947 376.327 377.574 377.566 376.873 378.62C376.171 379.674 375.172 380.496 374.002 380.983C372.833 381.469 371.545 381.597 370.303 381.35C369.061 381.104 367.92 380.494 367.024 379.599C366.128 378.703 365.519 377.562 365.272 376.32C365.026 375.077 365.154 373.79 365.64 372.62C366.126 371.451 366.948 370.452 368.003 369.75C369.057 369.048 370.296 368.675 371.562 368.678C373.255 368.678 374.878 369.351 376.075 370.547C377.272 371.744 377.944 373.368 377.944 375.06Z" fill="white"/>
<path opacity="0.4" d="M357.483 414.35H332.454C332.091 414.323 331.726 414.371 331.382 414.491C331.037 414.611 330.722 414.801 330.455 415.049C330.188 415.296 329.974 415.597 329.829 415.93C329.683 416.264 329.608 416.625 329.608 416.989C329.608 417.354 329.683 417.714 329.829 418.048C329.974 418.382 330.188 418.682 330.455 418.93C330.722 419.178 331.037 419.368 331.382 419.488C331.726 419.608 332.091 419.656 332.454 419.628H357.483C357.846 419.656 358.211 419.608 358.555 419.488C358.899 419.368 359.215 419.178 359.482 418.93C359.749 418.682 359.962 418.382 360.108 418.048C360.254 417.714 360.329 417.354 360.329 416.989C360.329 416.625 360.254 416.264 360.108 415.93C359.962 415.597 359.749 415.296 359.482 415.049C359.215 414.801 358.899 414.611 358.555 414.491C358.211 414.371 357.846 414.323 357.483 414.35V414.35Z" fill="#263238"/>
<path opacity="0.4" d="M552.299 363.007H406.3C405.598 363.007 404.925 363.286 404.429 363.782C403.933 364.279 403.654 364.952 403.654 365.654C403.654 366.356 403.933 367.029 404.429 367.525C404.925 368.022 405.598 368.3 406.3 368.3H552.299C553.001 368.3 553.674 368.022 554.171 367.525C554.667 367.029 554.946 366.356 554.946 365.654C554.946 364.952 554.667 364.279 554.171 363.782C553.674 363.286 553.001 363.007 552.299 363.007Z" fill="#263238"/>
<path opacity="0.4" d="M552.299 378.13H406.3C405.598 378.13 404.925 378.409 404.429 378.906C403.933 379.402 403.654 380.075 403.654 380.777C403.654 381.479 403.933 382.152 404.429 382.648C404.925 383.145 405.598 383.423 406.3 383.423H552.299C553.001 383.423 553.674 383.145 554.171 382.648C554.667 382.152 554.946 381.479 554.946 380.777C554.946 380.075 554.667 379.402 554.171 378.906C553.674 378.409 553.001 378.13 552.299 378.13V378.13Z" fill="#263238"/>
<path opacity="0.4" d="M522.053 393.253H406.3C405.598 393.253 404.925 393.532 404.429 394.029C403.933 394.525 403.654 395.198 403.654 395.9C403.654 396.602 403.933 397.275 404.429 397.771C404.925 398.268 405.598 398.547 406.3 398.547H522.053C522.755 398.547 523.428 398.268 523.924 397.771C524.421 397.275 524.699 396.602 524.699 395.9C524.699 395.198 524.421 394.525 523.924 394.029C523.428 393.532 522.755 393.253 522.053 393.253V393.253Z" fill="#263238"/>
<path opacity="0.6" d="M363.018 527.381H325.936C324.897 527.381 323.901 527.793 323.166 528.528C322.432 529.262 322.019 530.259 322.019 531.298C322.019 532.336 322.432 533.333 323.166 534.067C323.901 534.802 324.897 535.214 325.936 535.214H363.018C364.057 535.214 365.053 534.802 365.788 534.067C366.522 533.333 366.935 532.336 366.935 531.298C366.935 530.259 366.522 529.262 365.788 528.528C365.053 527.793 364.057 527.381 363.018 527.381V527.381Z" fill="#263238"/>
<path d="M563.763 544.621H322.064V616.668H563.763V544.621Z" fill="#92E3A9"/>
<path opacity="0.6" d="M563.763 544.621H322.064V616.668H563.763V544.621Z" fill="white"/>
<path d="M563.763 544.621H322.064V616.668H563.763V544.621Z" stroke="#263238" stroke-miterlimit="10"/>
<path d="M393.945 551.88H330.443V600.335H393.945V551.88Z" fill="#263238"/>
<path opacity="0.3" d="M393.945 588.599V600.335H330.443V589.416L350.511 574.55L371.154 589.416L382.814 581.975L393.945 588.599Z" fill="white"/>
<path opacity="0.3" d="M377.944 565.612C377.947 566.878 377.574 568.117 376.873 569.172C376.171 570.226 375.172 571.048 374.002 571.534C372.833 572.02 371.545 572.148 370.303 571.902C369.061 571.656 367.92 571.046 367.024 570.151C366.128 569.255 365.519 568.114 365.272 566.871C365.026 565.629 365.154 564.342 365.64 563.172C366.126 562.003 366.948 561.004 368.003 560.302C369.057 559.6 370.296 559.227 371.562 559.23C372.401 559.23 373.23 559.395 374.005 559.716C374.779 560.037 375.483 560.507 376.075 561.099C376.668 561.692 377.138 562.395 377.459 563.17C377.779 563.944 377.944 564.774 377.944 565.612Z" fill="white"/>
<path opacity="0.4" d="M357.483 604.902H332.454C332.091 604.874 331.726 604.922 331.382 605.042C331.037 605.162 330.722 605.352 330.455 605.6C330.188 605.848 329.974 606.148 329.829 606.482C329.683 606.816 329.608 607.176 329.608 607.541C329.608 607.905 329.683 608.266 329.829 608.6C329.974 608.934 330.188 609.234 330.455 609.482C330.722 609.729 331.037 609.919 331.382 610.039C331.726 610.16 332.091 610.207 332.454 610.18H357.483C357.846 610.207 358.211 610.16 358.555 610.039C358.899 609.919 359.215 609.729 359.482 609.482C359.749 609.234 359.962 608.934 360.108 608.6C360.254 608.266 360.329 607.905 360.329 607.541C360.329 607.176 360.254 606.816 360.108 606.482C359.962 606.148 359.749 605.848 359.482 605.6C359.215 605.352 358.899 605.162 358.555 605.042C358.211 604.922 357.846 604.874 357.483 604.902V604.902Z" fill="#263238"/>
<path opacity="0.4" d="M552.299 553.559H406.3C405.598 553.559 404.925 553.838 404.429 554.334C403.933 554.83 403.654 555.503 403.654 556.205C403.654 556.907 403.933 557.58 404.429 558.077C404.925 558.573 405.598 558.852 406.3 558.852H552.299C553.001 558.852 553.674 558.573 554.171 558.077C554.667 557.58 554.946 556.907 554.946 556.205C554.946 555.503 554.667 554.83 554.171 554.334C553.674 553.838 553.001 553.559 552.299 553.559V553.559Z" fill="#263238"/>
<path opacity="0.4" d="M552.299 568.682H406.3C405.598 568.682 404.925 568.961 404.429 569.457C403.933 569.953 403.654 570.627 403.654 571.328C403.654 572.03 403.933 572.704 404.429 573.2C404.925 573.696 405.598 573.975 406.3 573.975H552.299C553.001 573.975 553.674 573.696 554.171 573.2C554.667 572.704 554.946 572.03 554.946 571.328C554.946 570.627 554.667 569.953 554.171 569.457C553.674 568.961 553.001 568.682 552.299 568.682Z" fill="#263238"/>
<path opacity="0.4" d="M522.053 583.805H406.3C405.598 583.805 404.925 584.084 404.429 584.58C403.933 585.077 403.654 585.75 403.654 586.452C403.654 587.154 403.933 587.827 404.429 588.323C404.925 588.819 405.598 589.098 406.3 589.098H522.053C522.755 589.098 523.428 588.819 523.924 588.323C524.421 587.827 524.699 587.154 524.699 586.452C524.699 585.75 524.421 585.077 523.924 584.58C523.428 584.084 522.755 583.805 522.053 583.805V583.805Z" fill="#263238"/>
<path d="M563.763 432.71H322.064V504.757H563.763V432.71Z" fill="#92E3A9"/>
<path opacity="0.6" d="M563.763 432.71H322.064V504.757H563.763V432.71Z" fill="white"/>
<path d="M563.763 432.71H322.064V504.757H563.763V432.71Z" stroke="#263238" stroke-miterlimit="10"/>
<path d="M393.945 439.969H330.443V488.423H393.945V439.969Z" fill="#263238"/>
<path opacity="0.3" d="M393.945 476.688V488.424H330.443V477.505L350.511 462.639L371.154 477.505L382.814 470.064L393.945 476.688Z" fill="white"/>
<path opacity="0.3" d="M377.944 453.701C377.947 454.967 377.574 456.206 376.873 457.261C376.171 458.315 375.172 459.137 374.002 459.623C372.833 460.109 371.545 460.237 370.303 459.991C369.061 459.745 367.92 459.135 367.024 458.239C366.128 457.344 365.519 456.203 365.272 454.96C365.026 453.718 365.154 452.43 365.64 451.261C366.126 450.091 366.948 449.092 368.003 448.391C369.057 447.689 370.296 447.316 371.562 447.319C373.255 447.319 374.878 447.991 376.075 449.188C377.272 450.385 377.944 452.008 377.944 453.701Z" fill="white"/>
<path opacity="0.4" d="M357.483 492.991H332.454C332.091 492.963 331.726 493.011 331.382 493.131C331.037 493.251 330.722 493.441 330.455 493.689C330.188 493.937 329.974 494.237 329.829 494.571C329.683 494.905 329.608 495.265 329.608 495.63C329.608 495.994 329.683 496.355 329.829 496.689C329.974 497.022 330.188 497.323 330.455 497.57C330.722 497.818 331.037 498.008 331.382 498.128C331.726 498.248 332.091 498.296 332.454 498.269H357.483C357.846 498.296 358.211 498.248 358.555 498.128C358.899 498.008 359.215 497.818 359.482 497.57C359.749 497.323 359.962 497.022 360.108 496.689C360.254 496.355 360.329 495.994 360.329 495.63C360.329 495.265 360.254 494.905 360.108 494.571C359.962 494.237 359.749 493.937 359.482 493.689C359.215 493.441 358.899 493.251 358.555 493.131C358.211 493.011 357.846 492.963 357.483 492.991V492.991Z" fill="#263238"/>
<path opacity="0.4" d="M552.299 441.648H406.3C405.598 441.648 404.925 441.927 404.429 442.423C403.933 442.919 403.654 443.592 403.654 444.294C403.654 444.996 403.933 445.669 404.429 446.166C404.925 446.662 405.598 446.941 406.3 446.941H552.299C553.001 446.941 553.674 446.662 554.171 446.166C554.667 445.669 554.946 444.996 554.946 444.294C554.946 443.592 554.667 442.919 554.171 442.423C553.674 441.927 553.001 441.648 552.299 441.648Z" fill="#263238"/>
<path opacity="0.4" d="M552.299 456.771H406.3C405.598 456.771 404.925 457.05 404.429 457.546C403.933 458.042 403.654 458.715 403.654 459.417C403.654 460.119 403.933 460.792 404.429 461.289C404.925 461.785 405.598 462.064 406.3 462.064H552.299C553.001 462.064 553.674 461.785 554.171 461.289C554.667 460.792 554.946 460.119 554.946 459.417C554.946 458.715 554.667 458.042 554.171 457.546C553.674 457.05 553.001 456.771 552.299 456.771Z" fill="#263238"/>
<path opacity="0.4" d="M522.053 471.894H406.3C405.598 471.894 404.925 472.173 404.429 472.669C403.933 473.165 403.654 473.838 403.654 474.54C403.654 475.242 403.933 475.915 404.429 476.412C404.925 476.908 405.598 477.187 406.3 477.187H522.053C522.755 477.187 523.428 476.908 523.924 476.412C524.421 475.915 524.699 475.242 524.699 474.54C524.699 473.838 524.421 473.165 523.924 472.669C523.428 472.173 522.755 471.894 522.053 471.894V471.894Z" fill="#263238"/>
<path opacity="0.4" d="M272.203 471.092H200.293C199.591 471.092 198.918 471.371 198.422 471.867C197.925 472.364 197.646 473.037 197.646 473.739C197.646 474.441 197.925 475.114 198.422 475.61C198.918 476.107 199.591 476.385 200.293 476.385H272.203C272.905 476.385 273.579 476.107 274.075 475.61C274.571 475.114 274.85 474.441 274.85 473.739C274.85 473.037 274.571 472.364 274.075 471.867C273.579 471.371 272.905 471.092 272.203 471.092V471.092Z" fill="#263238"/>
<path opacity="0.4" d="M272.203 593.544H200.293C199.591 593.544 198.918 593.823 198.422 594.32C197.925 594.816 197.646 595.489 197.646 596.191C197.646 596.893 197.925 597.566 198.422 598.062C198.918 598.559 199.591 598.838 200.293 598.838H272.203C272.905 598.838 273.579 598.559 274.075 598.062C274.571 597.566 274.85 596.893 274.85 596.191C274.85 595.489 274.571 594.816 274.075 594.32C273.579 593.823 272.905 593.544 272.203 593.544V593.544Z" fill="#263238"/>
<path opacity="0.4" d="M272.203 532.326H200.293C199.93 532.298 199.564 532.346 199.22 532.466C198.876 532.587 198.561 532.776 198.294 533.024C198.026 533.272 197.813 533.572 197.667 533.906C197.522 534.24 197.446 534.601 197.446 534.965C197.446 535.329 197.522 535.69 197.667 536.024C197.813 536.358 198.026 536.658 198.294 536.906C198.561 537.153 198.876 537.343 199.22 537.463C199.564 537.584 199.93 537.631 200.293 537.604H272.203C272.567 537.631 272.932 537.584 273.276 537.463C273.62 537.343 273.935 537.153 274.203 536.906C274.47 536.658 274.683 536.358 274.829 536.024C274.975 535.69 275.05 535.329 275.05 534.965C275.05 534.601 274.975 534.24 274.829 533.906C274.683 533.572 274.47 533.272 274.203 533.024C273.935 532.776 273.62 532.587 273.276 532.466C272.932 532.346 272.567 532.298 272.203 532.326V532.326Z" fill="#263238"/>
<path d="M483.58 229.954C505.1 237.031 557.411 264.949 566.349 276.911C575.286 288.873 568.904 313.766 548.972 320.072C529.04 326.379 435.7 320.072 435.7 320.072C435.7 320.072 428.138 324.942 425.96 322.87C423.783 320.798 422.936 286.575 430.77 286.786C437.136 286.998 439.662 290.068 439.662 290.068L480.374 282.355C480.374 282.355 466.763 266.34 466.763 249.962" fill="#92E3A9"/>
<path opacity="0.2" d="M548.972 320.073C529.025 326.364 435.7 320.073 435.7 320.073C435.7 320.073 428.138 324.943 425.96 322.871C424.69 321.691 423.873 310.198 424.841 300.489C426.021 305.525 427.518 311.181 428.562 312.844C430.558 316.035 438.119 312.844 438.119 312.844C437.414 306.138 437.926 299.36 439.632 292.836L447.511 309.653C447.511 309.653 522.34 314.039 549.864 302.47C561.313 297.66 566.213 288.541 568.012 279.543C574.349 292.201 567.543 314.205 548.972 320.073Z" fill="black"/>
<path opacity="0.2" d="M502.665 277.773L480.328 282.31C478.658 280.244 477.107 278.083 475.685 275.838V275.838C475.943 269.894 476.774 262.045 479.3 259.005C483.61 253.833 482.808 267.369 486.861 274.96C486.861 274.96 502.211 262.559 508.291 265.372C514.37 268.185 506.491 268.76 502.665 277.773Z" fill="black"/>
<path d="M483.58 229.954C505.1 237.031 557.411 264.949 566.349 276.911C575.286 288.873 568.904 313.766 548.972 320.072C529.04 326.379 435.7 320.072 435.7 320.072C435.7 320.072 428.138 324.942 425.96 322.87C423.783 320.798 422.936 286.575 430.77 286.786C437.136 286.998 439.662 290.068 439.662 290.068L480.374 282.355C480.374 282.355 466.763 266.34 466.763 249.962" stroke="#263238" stroke-linecap="round" stroke-linejoin="round"/>
<path d="M531.444 282.976C533.574 284.539 535.194 286.696 536.102 289.176" stroke="#263238" stroke-linecap="round" stroke-linejoin="round"/>
<path d="M480.374 282.355C496.192 279.784 511.497 272.208 526.877 280.072" stroke="#263238" stroke-linecap="round" stroke-linejoin="round"/>
<path d="M530.764 272.964C532.275 273.308 533.691 273.985 534.908 274.945" stroke="#263238" stroke-linecap="round" stroke-linejoin="round"/>
<path d="M501.954 277.622C507.263 270.968 518.061 271.3 525.652 272.057" stroke="#263238" stroke-linecap="round" stroke-linejoin="round"/>
<path d="M441.189 289.781C438.498 294.16 437.553 299.391 438.543 304.435" stroke="#263238" stroke-linecap="round" stroke-linejoin="round"/>
<path d="M469.727 273.811C471.611 275.291 473.837 276.274 476.2 276.669" stroke="#263238" stroke-linecap="round" stroke-linejoin="round"/>
<path d="M462.226 265.357C463.333 267.158 464.609 268.849 466.037 270.408" stroke="#263238" stroke-linecap="round" stroke-linejoin="round"/>
</svg>
