<svg width="902" height="857" viewBox="0 0 902 857" fill="none" xmlns="http://www.w3.org/2000/svg">
<path d="M719.376 670.498C724.646 672.803 737.529 672.435 737.548 672.435C737.568 672.435 734.778 663.989 734.526 663.485C731.698 657.576 722.767 647.793 715.482 648.781C714.279 648.979 713.132 649.428 712.113 650.098C711.095 650.768 710.229 651.645 709.571 652.672C708.914 653.699 708.479 654.852 708.296 656.057C708.113 657.263 708.185 658.493 708.508 659.669C709.709 664.861 714.882 668.561 719.376 670.498Z" fill="#92E3A9"/>
<path d="M723.832 707.888C729.295 708.701 740.803 705.35 741.713 705.098C743.609 711.702 745.939 718.174 748.688 724.471C750.276 728.133 751.981 731.775 753.744 735.397L751.594 732.317C747.293 727.358 736.095 720.306 729.334 723.173C728.222 723.677 727.23 724.41 726.421 725.324C725.611 726.238 725.004 727.313 724.638 728.477C724.273 729.642 724.157 730.871 724.298 732.083C724.44 733.296 724.836 734.464 725.459 735.514C727.959 740.066 733.925 742.314 738.788 743.011C743.651 743.708 753.57 741.074 756.224 740.357C756.921 741.732 757.58 743.127 758.277 744.503C761.609 751.148 764.961 757.754 768.061 764.321C769.146 766.646 770.134 768.971 771.122 771.295C770.192 769.92 769.397 768.777 769.184 768.622C764.883 763.663 753.686 756.591 746.925 759.478C745.815 759.985 744.825 760.719 744.017 761.633C743.21 762.548 742.604 763.621 742.238 764.785C741.873 765.949 741.756 767.176 741.896 768.388C742.036 769.6 742.429 770.769 743.05 771.819C745.549 776.352 751.536 778.599 756.379 779.316C761.222 780.033 770.192 777.63 773.291 776.778C774.241 779.18 775.229 781.602 776.004 783.965C776.527 785.612 777.147 787.143 777.573 788.809C777.999 790.475 778.483 792.083 778.929 793.691C779.684 796.829 780.479 800.064 781.137 803.145C781.602 805.276 782.029 807.329 782.435 809.383C781.389 807.077 779.219 802.583 778.987 802.215C775.5 796.674 765.426 787.995 758.374 789.797C757.201 790.132 756.112 790.71 755.177 791.493C754.241 792.276 753.482 793.248 752.946 794.344C752.411 795.44 752.112 796.637 752.069 797.856C752.027 799.075 752.241 800.289 752.698 801.42C754.48 806.302 760.06 809.421 764.729 810.855C769.901 812.424 781.312 810.991 782.745 810.855C783.423 814.265 784.063 817.597 784.683 820.735C785.903 827.69 786.833 833.909 787.53 839.178H792.335C791.502 833.735 790.398 827.225 788.964 819.941C788.267 816.473 787.472 812.792 786.62 808.995C790.064 807.625 793.422 806.047 796.674 804.268C800.433 808.356 810.061 813.122 811.301 813.722C809.984 816.938 808.686 820.057 807.427 822.983C804.753 829.124 802.235 834.606 800.007 839.178H805.199C807.136 834.916 809.228 830.054 811.437 824.687C812.773 821.413 814.149 817.887 815.524 814.265C816.9 814.555 828.214 816.861 833.483 815.66C838.249 814.594 844.041 811.882 846.172 807.155C846.712 806.062 847.016 804.867 847.065 803.649C847.113 802.431 846.905 801.216 846.454 800.084C846.003 798.951 845.319 797.926 844.446 797.075C843.573 796.224 842.531 795.566 841.387 795.144C834.432 792.819 823.797 800.723 819.903 805.992C819.67 806.302 817.559 809.964 816.261 812.289C816.822 810.797 817.365 809.363 817.927 807.833C819.031 804.811 820.058 801.75 821.162 798.476L822.615 793.613C823.138 792.005 823.487 790.223 823.932 788.518C824.862 784.547 825.637 780.478 826.315 776.352C828.969 777.321 838.443 780.614 843.344 780.226C848.245 779.839 854.367 778.095 857.196 773.756C857.897 772.756 858.379 771.619 858.612 770.42C858.845 769.222 858.822 767.987 858.546 766.797C858.271 765.608 857.747 764.489 857.01 763.515C856.274 762.541 855.34 761.733 854.27 761.144C847.742 757.773 836.04 763.992 831.391 768.622C831.12 768.893 828.156 772.497 826.567 774.647C826.954 772.167 827.342 769.707 827.671 767.188C828.562 759.904 829.26 752.504 829.977 745.123C830.19 742.856 830.442 740.609 830.674 738.361C831.623 738.71 842.802 742.875 848.284 742.488C853.185 742.139 859.307 740.357 862.136 735.998C862.836 734.999 863.319 733.865 863.551 732.667C863.784 731.47 863.761 730.237 863.485 729.048C863.209 727.86 862.686 726.744 861.949 725.771C861.213 724.799 860.28 723.993 859.21 723.406C852.682 720.035 840.98 726.253 836.331 730.864C835.982 731.213 831.74 736.54 830.713 737.955C831.236 732.995 831.817 728.055 832.65 723.212C833.635 716.669 835.046 710.198 836.873 703.839C837.319 703.994 848.962 708.391 854.6 708.004C859.482 707.655 865.603 705.854 868.432 701.514C869.133 700.517 869.617 699.383 869.851 698.186C870.085 696.99 870.064 695.757 869.79 694.569C869.516 693.381 868.994 692.264 868.26 691.291C867.525 690.318 866.594 689.511 865.526 688.922C858.997 685.551 847.296 691.75 842.647 696.38C842.278 696.748 837.706 702.463 836.951 703.568C836.951 703.2 837.125 702.812 837.241 702.444C839.272 696.103 841.865 689.957 844.991 684.078C846.657 680.824 848.439 677.782 850.221 674.876C852.314 675.922 861.845 680.572 866.998 680.785C872.152 680.998 878.177 679.855 881.47 675.864C882.275 674.948 882.878 673.873 883.241 672.709C883.604 671.544 883.718 670.317 883.575 669.106C883.433 667.894 883.037 666.727 882.414 665.678C881.791 664.63 880.955 663.724 879.959 663.02C873.837 658.952 861.535 663.834 856.401 667.921C856.111 668.135 853.534 670.711 851.674 672.61C852.507 671.312 853.34 669.956 854.173 668.735C857.234 664.105 860.334 660.056 863.104 656.491C864.693 654.554 866.185 652.617 867.58 651.028C870.156 651.028 880.559 650.66 885.015 648.529C889.471 646.398 894.527 642.562 895.593 637.506C895.884 636.321 895.923 635.088 895.707 633.887C895.492 632.686 895.026 631.544 894.342 630.534C893.657 629.525 892.768 628.67 891.732 628.025C890.696 627.381 889.536 626.961 888.328 626.793C881.024 626.018 872.345 636.014 869.691 642.02C869.459 642.523 866.785 651.048 866.921 651.048H867.076C865.681 652.617 864.228 654.322 862.659 656.22C859.811 659.727 856.614 663.717 853.418 668.289C849.935 673.182 846.739 678.272 843.848 683.536C840.577 689.42 837.841 695.586 835.672 701.96C835.681 702.037 835.681 702.115 835.672 702.192C835.672 700.042 835.672 694.017 835.556 693.552C834.723 687.062 829.279 674.993 821.995 673.656C820.789 673.467 819.556 673.534 818.378 673.852C817.199 674.171 816.101 674.734 815.154 675.506C814.208 676.277 813.434 677.238 812.884 678.328C812.333 679.418 812.018 680.612 811.96 681.831C811.553 686.984 815.292 692.157 818.934 695.392C823.06 699.073 834.432 702.638 835.401 702.909C833.353 709.446 831.741 716.112 830.577 722.863C829.88 726.738 829.299 730.767 828.756 734.758C828.756 732.821 828.756 731.232 828.659 731C827.826 724.51 822.363 712.44 815.098 711.104C813.893 710.915 812.661 710.982 811.484 711.3C810.306 711.619 809.209 712.183 808.264 712.954C807.319 713.726 806.547 714.688 805.999 715.777C805.451 716.867 805.138 718.06 805.082 719.279C804.656 724.432 808.415 729.605 812.057 732.84C815.699 736.075 825.463 739.388 828.02 740.202C827.846 741.732 827.632 743.263 827.458 744.813C826.567 752.174 825.715 759.536 824.668 766.724C824.3 769.261 823.855 771.741 823.39 774.221C823.39 772.574 823.39 771.179 823.39 770.966C822.537 764.476 817.094 752.407 809.829 751.07C808.624 750.881 807.392 750.948 806.214 751.267C805.037 751.586 803.94 752.149 802.995 752.921C802.05 753.692 801.278 754.654 800.73 755.744C800.181 756.834 799.869 758.027 799.813 759.246C799.387 764.399 803.126 769.571 806.787 772.807C810.449 776.042 819.244 779.025 822.286 780.013C821.762 782.551 821.22 785.089 820.6 787.511C820.116 789.157 819.786 790.785 819.225 792.412C818.663 794.039 818.179 795.647 817.655 797.236C816.551 800.277 815.447 803.416 814.284 806.341C813.51 808.375 812.715 810.313 811.94 812.269C812.328 809.751 813.006 804.791 813.006 804.384C812.939 798.611 811.384 792.953 808.492 787.956C808.512 787.308 808.473 786.66 808.376 786.019C808.221 784.809 807.814 783.645 807.18 782.603C806.547 781.56 805.701 780.663 804.698 779.969C803.695 779.274 802.557 778.799 801.358 778.573C800.16 778.347 798.927 778.376 797.74 778.657C790.65 780.594 786.116 792.993 785.806 799.541C785.806 799.929 786.039 804.152 786.252 806.806C785.884 805.256 785.554 803.765 785.167 802.176C784.431 799.038 783.598 795.919 782.707 792.49C782.222 790.901 781.738 789.274 781.234 787.646C780.731 786.019 780.091 784.353 779.529 782.687C778.115 778.812 776.507 774.938 774.802 771.199C777.553 770.54 787.279 768.08 791.173 765.077C795.067 762.074 799.174 757.211 799.135 752.039C799.172 750.818 798.95 749.604 798.486 748.475C798.021 747.346 797.324 746.328 796.439 745.487C795.554 744.646 794.501 744.001 793.35 743.594C792.199 743.188 790.975 743.029 789.758 743.127C782.455 743.921 776.197 755.565 774.802 761.977C774.802 762.384 774.279 767.092 774.086 769.726C773.039 767.44 772.013 765.154 770.889 762.888C767.634 756.32 764.128 749.753 760.641 743.205C759.575 741.267 758.549 739.195 757.502 737.18C758.49 736.967 770.095 734.274 774.473 730.903C778.348 727.939 782.474 723.057 782.435 717.865C782.469 716.646 782.246 715.434 781.78 714.307C781.314 713.181 780.617 712.165 779.732 711.326C778.847 710.487 777.796 709.844 776.646 709.438C775.496 709.033 774.274 708.874 773.059 708.973C765.755 709.767 759.498 721.391 758.103 727.823C757.987 728.307 757.386 735.087 757.309 736.812C755.003 732.395 752.756 727.958 750.722 723.502C747.936 717.49 745.541 711.303 743.554 704.982C744.019 704.885 756.146 702.134 760.621 698.686C764.496 695.702 768.642 690.84 768.603 685.648C768.637 684.427 768.414 683.213 767.947 682.085C767.48 680.957 766.78 679.94 765.893 679.101C765.006 678.262 763.953 677.619 762.8 677.215C761.648 676.811 760.424 676.654 759.207 676.755C751.904 677.55 745.646 689.174 744.251 695.586C744.135 696.109 743.496 703.335 743.457 704.73C743.457 704.362 743.186 703.994 743.089 703.626C741.233 697.23 739.949 690.682 739.253 684.059C738.846 680.417 738.652 676.91 738.556 673.501C740.861 673.21 751.419 671.796 755.798 669.161C760.176 666.527 764.612 662.226 765.155 657.073C765.324 655.864 765.237 654.632 764.898 653.459C764.559 652.287 763.977 651.198 763.189 650.266C762.401 649.333 761.425 648.578 760.325 648.048C759.225 647.518 758.025 647.227 756.805 647.192C749.463 647.192 741.888 658.041 739.854 664.279C739.737 664.628 739.001 668.154 738.517 670.808C738.517 669.258 738.517 667.67 738.517 666.178C738.517 660.637 738.885 655.542 739.234 651.048C739.447 648.49 739.699 646.185 739.95 644.035C742.082 642.562 750.567 636.576 753.182 632.275C755.798 627.974 757.696 622.066 755.759 617.3C755.35 616.15 754.703 615.098 753.861 614.214C753.018 613.33 751.999 612.634 750.87 612.169C749.741 611.705 748.526 611.484 747.306 611.52C746.085 611.556 744.886 611.849 743.786 612.379C737.258 615.75 735.553 628.885 736.638 635.355C736.638 635.917 739.195 644.5 739.292 644.422L739.427 644.325C739.137 646.398 738.866 648.626 738.594 651.067C738.149 655.561 737.684 660.657 737.548 666.236C737.348 672.239 737.497 678.248 737.994 684.233C738.512 690.945 739.627 697.597 741.326 704.11C741.318 704.187 741.318 704.265 741.326 704.343C740.164 702.522 736.754 697.562 736.463 697.194C732.163 692.254 720.965 685.183 714.204 688.05C713.094 688.559 712.103 689.295 711.295 690.211C710.488 691.127 709.882 692.203 709.516 693.368C709.151 694.533 709.035 695.762 709.175 696.975C709.315 698.188 709.708 699.358 710.329 700.41C713.003 704.943 718.95 707.19 723.832 707.888Z" fill="#92E3A9"/>
<path d="M849.756 673.404C849.872 673.404 852.1 664.822 852.178 664.26C853.088 657.77 851.015 644.693 844.428 641.497C843.315 640.996 842.109 640.735 840.889 640.731C839.668 640.727 838.46 640.98 837.344 641.473C836.227 641.966 835.227 642.689 834.408 643.594C833.59 644.5 832.971 645.567 832.592 646.727C830.829 651.609 833.076 657.576 835.73 661.703C838.83 666.623 849.756 673.385 849.756 673.404Z" fill="#92E3A9"/>
<path d="M22.3568 670.498C27.6263 672.803 40.5287 672.435 40.5287 672.435C40.5287 672.435 37.7583 663.989 37.5259 663.485C34.6974 657.576 25.7471 647.793 18.4629 648.781C17.2599 648.979 16.112 649.428 15.0937 650.098C14.0753 650.768 13.2092 651.645 12.5516 652.672C11.894 653.699 11.4596 654.852 11.2764 656.057C11.0933 657.263 11.1656 658.493 11.4886 659.669C12.7091 664.861 17.8817 668.561 22.3568 670.498Z" fill="#92E3A9"/>
<path d="M26.8125 707.888C32.2757 708.702 43.7832 705.35 44.6938 705.098C46.5898 711.702 48.9196 718.174 51.668 724.471C53.2566 728.133 54.9614 731.775 56.7244 735.398C55.6782 733.867 54.7871 732.511 54.574 732.317C50.2732 727.358 39.0756 720.306 32.3145 723.173C31.2049 723.68 30.2142 724.414 29.4069 725.328C28.5995 726.243 27.9934 727.317 27.628 728.48C27.2627 729.644 27.1461 730.872 27.286 732.083C27.4258 733.295 27.819 734.464 28.4399 735.514C30.939 740.066 36.9252 742.314 41.7685 743.011C46.6117 743.709 56.55 741.074 59.2041 740.357C59.9015 741.732 60.5602 743.127 61.2577 744.503C64.5898 751.148 67.9413 757.754 70.9441 764.321C72.029 766.646 73.017 768.971 74.0244 771.296C73.0752 769.92 72.2809 768.777 72.0871 768.622C67.8057 763.663 56.5888 756.592 49.8276 759.478C48.718 759.985 47.7274 760.719 46.92 761.633C46.1126 762.548 45.5066 763.622 45.1412 764.785C44.7758 765.949 44.6593 767.177 44.7991 768.388C44.939 769.6 45.3321 770.769 45.953 771.819C48.4521 776.352 54.4384 778.599 59.2816 779.316C64.1249 780.033 73.1139 777.631 76.1942 776.778C77.1435 779.18 78.1315 781.602 78.9258 783.966C79.4295 785.612 80.0494 787.143 80.4756 788.809C80.9018 790.475 81.3862 792.083 81.8317 793.691C82.5873 796.829 83.3816 800.064 84.0402 803.145C84.5246 805.276 84.9314 807.329 85.3576 809.383C84.2921 807.077 82.1223 802.583 81.9092 802.215C78.4027 796.674 68.3482 787.995 61.2964 789.797C60.1234 790.132 59.0339 790.71 58.0988 791.493C57.1637 792.276 56.4038 793.248 55.8685 794.344C55.3332 795.44 55.0344 796.637 54.9916 797.856C54.9488 799.075 55.163 800.29 55.6201 801.421C57.3831 806.303 62.9625 809.422 67.6507 810.855C72.8039 812.424 84.2146 810.991 85.6482 810.855C86.3262 814.265 86.9656 817.597 87.5855 820.735C88.806 827.69 89.7359 833.909 90.4333 839.178H95.2572C94.4048 833.735 93.3199 827.225 91.8669 819.941C91.1889 816.473 90.3946 812.792 89.5228 808.995C92.9911 807.6 96.3686 805.989 99.6355 804.172C103.394 808.259 113.022 813.025 114.262 813.626C112.964 816.841 111.647 819.96 110.387 822.886C107.733 829.027 105.196 834.51 102.968 839.082H108.179C110.116 834.82 112.209 829.957 114.398 824.591C115.754 821.317 117.11 817.791 118.485 814.168C119.88 814.459 131.175 816.764 136.444 815.563C141.21 814.497 147.002 811.785 149.153 807.058C149.692 805.964 149.995 804.768 150.042 803.549C150.09 802.33 149.88 801.115 149.427 799.982C148.974 798.849 148.287 797.824 147.412 796.974C146.538 796.124 145.494 795.467 144.348 795.047C137.393 792.722 126.758 800.626 122.864 805.896C122.631 806.206 120.52 809.867 119.222 812.192C119.783 810.7 120.345 809.267 120.888 807.736C121.992 804.714 123.019 801.653 124.123 798.379L125.576 793.516C126.099 791.908 126.448 790.126 126.893 788.421C127.842 784.45 128.598 780.382 129.276 776.255C131.93 777.224 141.404 780.517 146.324 780.13C151.245 779.742 157.328 777.999 160.157 773.659C160.855 772.659 161.337 771.524 161.569 770.326C161.802 769.129 161.78 767.896 161.506 766.707C161.232 765.519 160.712 764.401 159.979 763.426C159.246 762.451 158.317 761.641 157.251 761.047C150.722 757.676 139.021 763.895 134.371 768.525C134.081 768.797 131.117 772.4 129.528 774.55C129.915 772.071 130.322 769.61 130.632 767.092C131.543 759.807 132.221 752.407 132.938 745.026C133.151 742.759 133.403 740.512 133.635 738.265C134.584 738.613 145.762 742.779 151.264 742.391C156.146 742.042 162.268 740.26 165.097 735.901C165.797 734.903 166.28 733.768 166.512 732.57C166.745 731.373 166.722 730.14 166.446 728.952C166.17 727.764 165.647 726.647 164.91 725.675C164.174 724.702 163.24 723.896 162.171 723.309C155.662 719.938 143.961 726.157 139.311 730.767C138.963 731.116 134.701 736.444 133.693 737.858C134.216 732.898 134.778 727.958 135.63 723.115C136.622 716.572 138.039 710.101 139.873 703.742C140.299 703.897 151.942 708.295 157.58 707.907C162.462 707.559 168.603 705.757 171.432 701.417C172.132 700.419 172.615 699.284 172.847 698.086C173.08 696.889 173.057 695.656 172.781 694.468C172.505 693.28 171.982 692.163 171.245 691.191C170.509 690.218 169.575 689.412 168.506 688.825C161.978 685.454 150.276 691.653 145.627 696.284C145.259 696.652 140.687 702.367 139.931 703.471C140.047 703.103 140.106 702.715 140.222 702.347C142.252 696.007 144.845 689.86 147.971 683.982C149.637 680.727 151.419 677.685 153.221 674.78C155.294 675.826 164.845 680.475 169.979 680.688C175.112 680.901 181.176 679.758 184.45 675.768C185.258 674.853 185.864 673.778 186.229 672.613C186.593 671.448 186.708 670.22 186.565 669.008C186.422 667.796 186.026 666.627 185.401 665.579C184.776 664.53 183.937 663.626 182.939 662.923C176.817 658.855 164.516 663.737 159.382 667.825C159.11 668.038 156.514 670.614 154.674 672.513C155.488 671.215 156.321 669.859 157.154 668.638C160.215 664.008 163.314 659.959 166.085 656.395C167.693 654.457 169.165 652.52 170.56 650.931C173.156 650.931 183.54 650.563 187.996 648.432C192.451 646.301 197.508 642.465 198.573 637.409C198.87 636.224 198.914 634.989 198.701 633.786C198.488 632.583 198.024 631.438 197.338 630.427C196.652 629.416 195.761 628.56 194.722 627.918C193.682 627.275 192.519 626.858 191.308 626.696C184.005 625.921 175.345 635.917 172.672 641.923C172.439 642.427 169.766 650.951 169.901 650.951H170.056C168.661 652.52 167.208 654.225 165.639 656.123C162.791 659.63 159.595 663.621 156.418 668.193C152.895 673.082 149.66 678.173 146.731 683.439C143.476 689.331 140.741 695.496 138.556 701.863V702.095C138.556 699.945 138.556 693.92 138.439 693.455C137.587 686.965 132.143 674.896 124.878 673.559C123.673 673.37 122.442 673.437 121.264 673.756C120.087 674.075 118.989 674.638 118.044 675.41C117.099 676.181 116.327 677.143 115.779 678.233C115.231 679.323 114.919 680.516 114.863 681.734C114.436 686.888 118.175 692.06 121.837 695.295C125.944 698.976 137.335 702.541 138.304 702.812C136.24 709.346 134.622 716.013 133.461 722.766C132.763 726.641 132.182 730.671 131.64 734.661C131.64 732.724 131.64 731.135 131.64 730.903C130.807 724.413 125.343 712.344 118.079 711.007C116.872 710.818 115.64 710.885 114.461 711.204C113.283 711.522 112.184 712.086 111.238 712.857C110.291 713.628 109.518 714.59 108.967 715.679C108.417 716.769 108.102 717.963 108.043 719.182C107.617 724.336 111.375 729.508 115.018 732.743C118.66 735.979 128.424 739.291 131 740.105C130.807 741.636 130.593 743.166 130.419 744.716C129.528 752.078 128.695 759.439 127.629 766.627C127.261 769.165 126.816 771.644 126.37 774.124C126.37 772.477 126.37 771.083 126.37 770.869C125.518 764.379 120.074 752.31 112.809 750.973C111.604 750.784 110.372 750.851 109.195 751.17C108.017 751.489 106.92 752.052 105.975 752.824C105.03 753.595 104.258 754.557 103.71 755.647C103.162 756.737 102.849 757.93 102.793 759.149C102.367 764.302 106.125 769.475 109.768 772.71C113.41 775.945 122.224 778.929 125.266 779.917C124.723 782.454 124.181 784.992 123.561 787.414C123.096 789.061 122.747 790.688 122.186 792.315C121.624 793.943 121.139 795.551 120.636 797.139C119.532 800.181 118.408 803.319 117.245 806.244C116.471 808.279 115.676 810.216 114.901 812.173C115.289 809.654 115.967 804.695 115.986 804.288C115.902 798.515 114.341 792.859 111.453 787.859C111.473 787.212 111.434 786.563 111.337 785.922C111.182 784.712 110.775 783.548 110.141 782.506C109.508 781.464 108.662 780.566 107.659 779.872C106.656 779.178 105.518 778.702 104.319 778.476C103.121 778.25 101.888 778.279 100.701 778.56C93.6105 780.498 89.0772 792.896 88.7672 799.445C88.7672 799.832 88.9997 804.055 89.2128 806.709C88.8447 805.16 88.5154 803.668 88.1279 802.079C87.3918 798.941 86.5587 795.822 85.6676 792.393C85.1832 790.804 84.6989 789.177 84.1952 787.55C83.6915 785.922 83.0522 784.256 82.4904 782.59C81.0762 778.715 79.4682 774.841 77.7634 771.102C80.5144 770.443 90.2396 767.983 94.1336 764.98C98.0275 761.977 102.154 757.115 102.115 751.942C102.146 750.722 101.92 749.508 101.452 748.381C100.985 747.253 100.285 746.236 99.3994 745.396C98.5137 744.556 97.4614 743.912 96.3106 743.504C95.1599 743.096 93.9364 742.935 92.7193 743.03C85.4157 743.825 79.1583 755.468 77.7634 761.88C77.7634 762.287 77.2403 766.995 77.066 769.63C76.0198 767.344 74.9931 765.058 73.8501 762.791C70.5954 756.223 67.0889 749.656 63.6212 743.108C62.5556 741.171 61.5095 739.098 60.4634 737.083C61.4514 736.87 73.0752 734.177 77.4341 730.806C81.3087 727.842 85.4545 722.96 85.4157 717.768C85.4499 716.548 85.2262 715.334 84.7593 714.206C84.2923 713.078 83.5926 712.061 82.7058 711.221C81.819 710.382 80.7652 709.739 79.6131 709.335C78.461 708.931 77.2366 708.775 76.0198 708.876C68.7162 709.67 62.4588 721.294 61.0639 727.726C61.0639 728.21 60.3471 734.991 60.2696 736.715C57.9836 732.298 55.7364 727.861 53.6828 723.406C50.8967 717.393 48.5024 711.207 46.5148 704.885C46.9798 704.788 59.1073 702.037 63.5824 698.589C67.457 695.605 71.6028 690.743 71.5641 685.551C71.5983 684.33 71.3746 683.117 70.9076 681.988C70.4406 680.86 69.7409 679.843 68.8541 679.004C67.9674 678.165 66.9135 677.522 65.7614 677.118C64.6093 676.714 63.3849 676.557 62.1682 676.659C54.8646 677.453 48.6071 689.077 47.2123 695.489C47.1154 696.012 46.4567 703.238 46.4373 704.633C46.3211 704.265 46.1661 703.897 46.0499 703.529C44.2061 697.164 42.929 690.649 42.2334 684.059C41.8266 680.417 41.6329 676.911 41.536 673.501C43.8414 673.21 54.3996 671.796 58.7779 669.161C63.1562 666.527 67.5926 662.226 68.1351 657.073C68.3045 655.864 68.217 654.632 67.8782 653.46C67.5394 652.287 66.9569 651.198 66.1689 650.266C65.3809 649.333 64.405 648.578 63.305 648.048C62.205 647.519 61.0057 647.227 59.7853 647.192C52.443 647.192 44.8681 658.041 42.834 664.279C42.834 664.628 42.0009 668.154 41.4972 670.808C41.4972 669.258 41.4972 667.67 41.4972 666.178C41.4972 660.637 41.8653 655.542 42.214 651.048C42.4271 648.49 42.679 646.185 42.9308 644.035C45.0619 642.562 53.5472 636.576 56.1626 632.275C58.7779 627.974 60.7927 622.066 58.8942 617.242C58.4804 616.086 57.8269 615.032 56.9765 614.147C56.1261 613.262 55.098 612.567 53.9599 612.108C52.8218 611.648 51.5994 611.435 50.373 611.482C49.1466 611.529 47.944 611.835 46.8442 612.379C40.3349 615.75 38.6107 628.885 39.6956 635.356C39.6956 635.917 42.2528 644.5 42.369 644.422L42.4853 644.325C42.1947 646.398 41.9234 648.626 41.6522 651.067C41.2066 655.562 40.7417 660.657 40.6255 666.236C40.4087 672.238 40.551 678.248 41.0517 684.234C41.5697 690.945 42.6848 697.597 44.3838 704.11V704.343C43.2214 702.522 39.8312 697.562 39.5212 697.194C35.2204 692.254 24.0228 685.183 17.2617 688.05C16.1515 688.559 15.1605 689.295 14.353 690.211C13.5455 691.127 12.9395 692.203 12.5742 693.368C12.2089 694.533 12.0925 695.762 12.2326 696.975C12.3726 698.188 12.7659 699.359 13.3871 700.41C15.9831 704.943 21.9693 707.19 26.8125 707.888Z" fill="#92E3A9"/>
<path d="M152.737 673.404C152.853 673.404 155.081 664.822 155.159 664.26C156.069 657.77 153.996 644.693 147.409 641.497C146.296 640.996 145.09 640.735 143.87 640.731C142.649 640.727 141.441 640.98 140.325 641.473C139.208 641.966 138.208 642.689 137.389 643.594C136.571 644.5 135.952 645.567 135.572 646.727C133.81 651.609 136.057 657.576 138.711 661.703C141.83 666.623 152.737 673.385 152.737 673.404Z" fill="#92E3A9"/>
<path d="M856.498 839.043H883.62" stroke="#263238" stroke-linecap="round" stroke-linejoin="round"/>
<path d="M352.801 839.043H829.376" stroke="#263238" stroke-linecap="round" stroke-linejoin="round"/>
<path d="M40.8967 839.043H333.428" stroke="#263238" stroke-linecap="round" stroke-linejoin="round"/>
<path opacity="0.1" d="M213.548 105.641C213.548 120.887 185.903 152.775 185.903 152.775C185.903 152.775 158.277 120.887 158.277 105.641C158.468 98.438 161.463 91.5943 166.625 86.5673C171.787 81.5403 178.708 78.7273 185.913 78.7273C193.118 78.7273 200.039 81.5403 205.2 86.5673C210.362 91.5943 213.358 98.438 213.548 105.641V105.641ZM478.435 632.178C474.806 632.176 471.213 632.889 467.86 634.276C464.507 635.663 461.46 637.698 458.895 640.264C456.329 642.83 454.294 645.876 452.907 649.229C451.519 652.582 450.806 656.176 450.809 659.804C450.809 675.051 478.435 706.939 478.435 706.939C478.435 706.939 506.06 675.051 506.06 659.804C506.06 652.477 503.15 645.451 497.969 640.27C492.788 635.089 485.762 632.178 478.435 632.178V632.178ZM709.263 0C701.937 0 694.91 2.91057 689.729 8.09142C684.548 13.2723 681.638 20.299 681.638 27.6258C681.579 42.8142 709.263 74.7602 709.263 74.7602C709.263 74.7602 736.831 42.8142 736.831 27.6258C736.826 20.3106 733.922 13.2957 728.755 8.11758C723.587 2.93951 716.579 0.0205033 709.263 0V0ZM94.9083 364.037C91.2797 364.035 87.6862 364.748 84.3334 366.135C80.9805 367.522 77.934 369.557 75.3682 372.123C72.8024 374.689 70.7676 377.735 69.3802 381.088C67.9928 384.441 67.2799 388.034 67.2825 391.663C67.2825 406.91 94.9083 438.778 94.9083 438.778C94.9083 438.778 122.534 406.91 122.534 391.663C122.534 384.336 119.624 377.31 114.443 372.129C109.262 366.948 102.235 364.037 94.9083 364.037V364.037ZM829.453 354.351C822.151 354.356 815.148 357.249 809.972 362.4C804.796 367.55 801.868 374.539 801.827 381.841C801.827 397.107 829.453 428.975 829.453 428.975C829.453 428.975 857.079 397.165 857.079 381.841C857.071 378.211 856.349 374.619 854.952 371.269C853.555 367.919 851.512 364.877 848.94 362.317C846.367 359.757 843.315 357.728 839.958 356.348C836.601 354.968 833.005 354.263 829.376 354.273L829.453 354.351ZM709.263 39.3271H697.64C697.126 39.3271 696.633 39.123 696.27 38.7597C695.906 38.3964 695.702 37.9036 695.702 37.3898C695.702 36.876 695.906 36.3832 696.27 36.0199C696.633 35.6566 697.126 35.4525 697.64 35.4525H709.263C709.777 35.4525 710.27 35.6566 710.633 36.0199C710.997 36.3832 711.201 36.876 711.201 37.3898C711.201 37.9036 710.997 38.3964 710.633 38.7597C710.27 39.123 709.777 39.3271 709.263 39.3271ZM590.565 669.549C590.565 669.035 590.361 668.542 589.998 668.179C589.635 667.816 589.142 667.611 588.628 667.611H565.381C564.867 667.611 564.374 667.816 564.011 668.179C563.647 668.542 563.443 669.035 563.443 669.549C563.443 670.063 563.647 670.555 564.011 670.919C564.374 671.282 564.867 671.486 565.381 671.486H588.628C589.142 671.486 589.635 671.282 589.998 670.919C590.361 670.555 590.565 670.063 590.565 669.549ZM544.264 669.549C544.264 669.035 544.06 668.542 543.697 668.179C543.333 667.816 542.84 667.611 542.327 667.611H519.195C518.682 667.611 518.189 667.816 517.825 668.179C517.462 668.542 517.258 669.035 517.258 669.549C517.258 670.063 517.462 670.555 517.825 670.919C518.189 671.282 518.682 671.486 519.195 671.486H542.327C542.84 671.486 543.333 671.282 543.697 670.919C544.06 670.555 544.264 670.063 544.264 669.549V669.549ZM611.953 671.312C620.212 670.436 627.83 666.454 633.263 660.172C633.6 659.784 633.768 659.279 633.732 658.766C633.695 658.254 633.457 657.777 633.07 657.441C632.682 657.104 632.176 656.936 631.664 656.972C631.151 657.008 630.675 657.247 630.338 657.634C625.549 663.166 618.841 666.676 611.566 667.456C611.311 667.47 611.062 667.534 610.832 667.645C610.603 667.755 610.397 667.909 610.227 668.099C610.057 668.289 609.926 668.51 609.842 668.751C609.757 668.991 609.721 669.246 609.735 669.5C609.749 669.755 609.813 670.004 609.923 670.234C610.033 670.463 610.188 670.669 610.378 670.839C610.567 671.009 610.789 671.14 611.029 671.224C611.27 671.309 611.524 671.345 611.779 671.331L611.953 671.312ZM498.098 668.173C498.201 667.939 498.256 667.687 498.261 667.432C498.266 667.177 498.22 666.923 498.127 666.685C498.033 666.447 497.893 666.231 497.715 666.047C497.538 665.864 497.325 665.717 497.091 665.616C493.778 664.2 490.812 662.081 488.401 659.405C485.989 656.728 484.188 653.56 483.123 650.118C483.046 649.874 482.922 649.649 482.757 649.454C482.592 649.258 482.391 649.098 482.164 648.981C481.937 648.864 481.69 648.793 481.435 648.772C481.181 648.751 480.925 648.78 480.682 648.858C480.195 649.014 479.789 649.356 479.553 649.81C479.318 650.263 479.271 650.792 479.423 651.28C480.664 655.241 482.75 658.885 485.536 661.962C488.322 665.039 491.742 667.475 495.56 669.103C495.798 669.21 496.056 669.263 496.316 669.258C496.686 669.266 497.05 669.168 497.366 668.976C497.681 668.784 497.936 668.505 498.098 668.173ZM641.264 637.564V614.452C641.264 613.938 641.06 613.445 640.697 613.082C640.334 612.719 639.841 612.515 639.327 612.515C638.813 612.515 638.32 612.719 637.957 613.082C637.594 613.445 637.39 613.938 637.39 614.452V637.564C637.39 638.078 637.594 638.571 637.957 638.934C638.32 639.297 638.813 639.501 639.327 639.501C639.841 639.501 640.334 639.297 640.697 638.934C641.06 638.571 641.264 638.078 641.264 637.564ZM481.999 627.742V611.837C481.997 609.327 481.81 606.821 481.437 604.339C481.4 604.087 481.312 603.845 481.181 603.627C481.049 603.409 480.876 603.219 480.671 603.067C480.466 602.916 480.233 602.807 479.985 602.746C479.738 602.685 479.481 602.674 479.229 602.712C478.977 602.75 478.735 602.837 478.517 602.969C478.298 603.1 478.108 603.273 477.957 603.479C477.806 603.684 477.697 603.917 477.636 604.164C477.575 604.412 477.563 604.669 477.602 604.921C477.951 607.209 478.126 609.521 478.125 611.837V627.742C478.125 628.256 478.329 628.748 478.692 629.112C479.055 629.475 479.548 629.679 480.062 629.679C480.576 629.679 481.069 629.475 481.432 629.112C481.795 628.748 481.999 628.256 481.999 627.742ZM641.264 591.282V568.151C641.264 567.637 641.06 567.144 640.697 566.781C640.334 566.417 639.841 566.213 639.327 566.213C638.813 566.213 638.32 566.417 637.957 566.781C637.594 567.144 637.39 567.637 637.39 568.151V591.301C637.39 591.815 637.594 592.308 637.957 592.671C638.32 593.035 638.813 593.239 639.327 593.239C639.841 593.239 640.334 593.035 640.697 592.671C641.06 592.308 641.264 591.815 641.264 591.301V591.282ZM471.906 585.025C472.111 584.873 472.284 584.683 472.416 584.465C472.547 584.247 472.634 584.005 472.672 583.753C472.71 583.501 472.697 583.244 472.636 582.997C472.574 582.75 472.464 582.517 472.313 582.312C467.531 575.824 461.259 570.581 454.025 567.027C453.795 566.892 453.54 566.806 453.275 566.775C453.011 566.743 452.743 566.766 452.488 566.843C452.232 566.92 451.996 567.048 451.793 567.22C451.589 567.392 451.424 567.605 451.306 567.844C451.189 568.083 451.122 568.343 451.11 568.609C451.097 568.876 451.14 569.141 451.235 569.39C451.33 569.639 451.476 569.865 451.662 570.055C451.849 570.246 452.073 570.395 452.32 570.495C458.998 573.778 464.786 578.623 469.194 584.618C469.345 584.823 469.535 584.996 469.753 585.127C469.972 585.259 470.214 585.346 470.466 585.384C470.717 585.421 470.974 585.409 471.221 585.348C471.469 585.286 471.701 585.176 471.906 585.025V585.025ZM432.714 563.947C432.714 563.433 432.51 562.94 432.147 562.577C431.784 562.214 431.291 562.009 430.777 562.009H407.646C407.132 562.009 406.639 562.214 406.276 562.577C405.913 562.94 405.709 563.433 405.709 563.947C405.709 564.461 405.913 564.953 406.276 565.317C406.639 565.68 407.132 565.884 407.646 565.884H430.777C431.291 565.884 431.784 565.68 432.147 565.317C432.51 564.953 432.714 564.461 432.714 563.947ZM386.433 563.947C386.433 563.433 386.228 562.94 385.865 562.577C385.502 562.214 385.009 562.009 384.495 562.009H361.248C360.734 562.009 360.241 562.214 359.878 562.577C359.514 562.94 359.31 563.433 359.31 563.947C359.31 564.461 359.514 564.953 359.878 565.317C360.241 565.68 360.734 565.884 361.248 565.884H384.495C385.009 565.884 385.502 565.68 385.865 565.317C386.228 564.953 386.433 564.461 386.433 563.947ZM340.151 563.947C340.151 563.433 339.946 562.94 339.583 562.577C339.22 562.214 338.727 562.009 338.213 562.009H315.063C314.549 562.009 314.056 562.214 313.693 562.577C313.329 562.94 313.125 563.433 313.125 563.947C313.125 564.461 313.329 564.953 313.693 565.317C314.056 565.68 314.549 565.884 315.063 565.884H338.213C338.727 565.884 339.22 565.68 339.583 565.317C339.946 564.953 340.151 564.461 340.151 563.947V563.947ZM293.869 563.947C293.869 563.433 293.664 562.94 293.301 562.577C292.938 562.214 292.445 562.009 291.931 562.009H268.684C268.17 562.009 267.677 562.214 267.314 562.577C266.951 562.94 266.746 563.433 266.746 563.947C266.746 564.461 266.951 564.953 267.314 565.317C267.677 565.68 268.17 565.884 268.684 565.884H291.931C292.445 565.884 292.938 565.68 293.301 565.317C293.664 564.953 293.869 564.461 293.869 563.947ZM247.567 563.947C247.567 563.433 247.363 562.94 247 562.577C246.636 562.214 246.144 562.009 245.63 562.009H222.499C221.985 562.009 221.492 562.214 221.129 562.577C220.765 562.94 220.561 563.433 220.561 563.947C220.561 564.461 220.765 564.953 221.129 565.317C221.492 565.68 221.985 565.884 222.499 565.884H245.63C246.144 565.884 246.636 565.68 247 565.317C247.363 564.953 247.567 564.461 247.567 563.947V563.947ZM201.285 563.947C201.285 563.433 201.081 562.94 200.718 562.577C200.354 562.214 199.862 562.009 199.348 562.009H176.217C175.703 562.009 175.21 562.214 174.847 562.577C174.483 562.94 174.279 563.433 174.279 563.947C174.279 564.461 174.483 564.953 174.847 565.317C175.21 565.68 175.703 565.884 176.217 565.884H199.348C199.862 565.884 200.354 565.68 200.718 565.317C201.081 564.953 201.285 564.461 201.285 563.947V563.947ZM155.003 563.947C155.003 563.433 154.799 562.94 154.436 562.577C154.072 562.214 153.58 562.009 153.066 562.009H130.012C129.498 562.009 129.006 562.214 128.642 562.577C128.279 562.94 128.075 563.433 128.075 563.947C128.075 564.461 128.279 564.953 128.642 565.317C129.006 565.68 129.498 565.884 130.012 565.884H153.26C153.739 565.836 154.184 565.611 154.506 565.252C154.828 564.894 155.006 564.429 155.003 563.947ZM109.128 560.847C109.358 560.39 109.397 559.86 109.237 559.373C109.078 558.887 108.732 558.483 108.276 558.251C101.678 554.937 96.2657 549.666 92.7773 543.16C92.5315 542.717 92.1225 542.389 91.6377 542.244C91.1529 542.1 90.6307 542.15 90.1828 542.386C89.7349 542.621 89.3969 543.022 89.241 543.503C89.085 543.985 89.1235 544.508 89.3483 544.961C93.1965 552.176 99.1771 558.028 106.474 561.719C106.746 561.85 107.044 561.917 107.346 561.913C107.715 561.921 108.08 561.823 108.395 561.631C108.711 561.438 108.965 561.16 109.128 560.828V560.847ZM88.709 521.617V498.466C88.709 497.952 88.5049 497.46 88.1415 497.096C87.7782 496.733 87.2855 496.529 86.7717 496.529C86.2579 496.529 85.7651 496.733 85.4018 497.096C85.0385 497.46 84.8344 497.952 84.8344 498.466V521.617C84.8344 522.131 85.0385 522.623 85.4018 522.987C85.7651 523.35 86.2579 523.554 86.7717 523.554C87.2855 523.554 87.7782 523.35 88.1415 522.987C88.5049 522.623 88.709 522.131 88.709 521.617ZM88.709 475.335V452.184C88.709 451.67 88.5049 451.178 88.1415 450.814C87.7782 450.451 87.2855 450.247 86.7717 450.247C86.2579 450.247 85.7651 450.451 85.4018 450.814C85.0385 451.178 84.8344 451.67 84.8344 452.184V475.335C84.8344 475.849 85.0385 476.341 85.4018 476.705C85.7651 477.068 86.2579 477.272 86.7717 477.272C87.2855 477.272 87.7782 477.068 88.1415 476.705C88.5049 476.341 88.709 475.849 88.709 475.335ZM88.709 429.033V419.347C88.6879 415.209 89.9095 411.159 92.2155 407.723C92.5006 407.294 92.6037 406.769 92.502 406.264C92.4002 405.759 92.1021 405.316 91.673 405.03C91.244 404.745 90.7193 404.642 90.2143 404.744C89.7093 404.846 89.2653 405.144 88.9802 405.573C86.2685 409.625 84.8252 414.394 84.8344 419.27V428.956C84.8344 429.47 85.0385 429.963 85.4018 430.326C85.7651 430.689 86.2579 430.893 86.7717 430.893C87.2855 430.893 87.7782 430.689 88.1415 430.326C88.5049 429.963 88.709 429.47 88.709 428.956V429.033ZM874.476 396.855C874.718 396.774 874.942 396.646 875.134 396.479C875.327 396.311 875.484 396.107 875.598 395.878C875.711 395.65 875.778 395.401 875.795 395.146C875.812 394.892 875.779 394.636 875.696 394.395C875.533 393.91 875.185 393.51 874.727 393.282C874.27 393.053 873.741 393.014 873.255 393.174C870.4 394.119 867.41 394.596 864.402 394.588H850.841C850.327 394.588 849.834 394.792 849.471 395.156C849.108 395.519 848.904 396.012 848.904 396.526C848.904 397.039 849.108 397.532 849.471 397.896C849.834 398.259 850.327 398.463 850.841 398.463H864.402C867.824 398.463 871.224 397.921 874.476 396.855V396.855ZM829.666 396.526C829.666 396.012 829.462 395.519 829.099 395.156C828.736 394.792 828.243 394.588 827.729 394.588H804.598C804.084 394.588 803.591 394.792 803.228 395.156C802.865 395.519 802.66 396.012 802.66 396.526C802.66 397.039 802.865 397.532 803.228 397.896C803.591 398.259 804.084 398.463 804.598 398.463H827.729C828.243 398.463 828.736 398.259 829.099 397.896C829.462 397.532 829.666 397.039 829.666 396.526V396.526ZM783.384 396.526C783.384 396.012 783.18 395.519 782.817 395.156C782.454 394.792 781.961 394.588 781.447 394.588H758.316C757.802 394.588 757.309 394.792 756.946 395.156C756.583 395.519 756.378 396.012 756.378 396.526C756.378 397.039 756.583 397.532 756.946 397.896C757.309 398.259 757.802 398.463 758.316 398.463H781.447C781.961 398.463 782.454 398.259 782.817 397.896C783.18 397.532 783.384 397.039 783.384 396.526V396.526ZM737.102 396.526C737.102 396.012 736.898 395.519 736.535 395.156C736.172 394.792 735.679 394.588 735.165 394.588H712.014C711.501 394.588 711.008 394.792 710.644 395.156C710.281 395.519 710.077 396.012 710.077 396.526C710.077 397.039 710.281 397.532 710.644 397.896C711.008 398.259 711.501 398.463 712.014 398.463H735.165C735.679 398.463 736.172 398.259 736.535 397.896C736.898 397.532 737.102 397.039 737.102 396.526V396.526ZM690.82 396.526C690.82 396.012 690.616 395.519 690.253 395.156C689.89 394.792 689.397 394.588 688.883 394.588H665.636C665.122 394.588 664.629 394.792 664.266 395.156C663.902 395.519 663.698 396.012 663.698 396.526C663.698 397.039 663.902 397.532 664.266 397.896C664.629 398.259 665.122 398.463 665.636 398.463H688.883C689.397 398.463 689.89 398.259 690.253 397.896C690.616 397.532 690.82 397.039 690.82 396.526V396.526ZM644.538 396.526C644.538 396.012 644.334 395.519 643.971 395.156C643.608 394.792 643.115 394.588 642.601 394.588H619.45C618.937 394.588 618.444 394.792 618.081 395.156C617.717 395.519 617.513 396.012 617.513 396.526C617.513 397.039 617.717 397.532 618.081 397.896C618.444 398.259 618.937 398.463 619.45 398.463H642.601C643.115 398.463 643.608 398.259 643.971 397.896C644.334 397.532 644.538 397.039 644.538 396.526V396.526ZM598.237 396.526C598.237 396.012 598.033 395.519 597.67 395.156C597.306 394.792 596.814 394.588 596.3 394.588H573.168C572.655 394.588 572.162 394.792 571.799 395.156C571.435 395.519 571.231 396.012 571.231 396.526C571.231 397.039 571.435 397.532 571.799 397.896C572.162 398.259 572.655 398.463 573.168 398.463H596.3C596.814 398.463 597.306 398.259 597.67 397.896C598.033 397.532 598.237 397.039 598.237 396.526V396.526ZM551.955 396.526C551.955 396.012 551.751 395.519 551.388 395.156C551.024 394.792 550.532 394.588 550.018 394.588H526.886C526.373 394.588 525.88 394.792 525.517 395.156C525.153 395.519 524.949 396.012 524.949 396.526C524.949 397.039 525.153 397.532 525.517 397.896C525.88 398.259 526.373 398.463 526.886 398.463H550.018C550.532 398.463 551.024 398.259 551.388 397.896C551.751 397.532 551.955 397.039 551.955 396.526V396.526ZM505.673 396.526C505.673 396.012 505.469 395.519 505.106 395.156C504.742 394.792 504.25 394.588 503.736 394.588H480.663C480.149 394.588 479.656 394.792 479.293 395.156C478.929 395.519 478.725 396.012 478.725 396.526C478.725 397.039 478.929 397.532 479.293 397.896C479.656 398.259 480.149 398.463 480.663 398.463H503.91C504.393 398.419 504.842 398.196 505.169 397.837C505.495 397.479 505.675 397.011 505.673 396.526V396.526ZM459.391 396.526C459.391 396.012 459.187 395.519 458.824 395.156C458.46 394.792 457.968 394.588 457.454 394.588H434.206C433.692 394.588 433.2 394.792 432.836 395.156C432.473 395.519 432.269 396.012 432.269 396.526C432.269 397.039 432.473 397.532 432.836 397.896C433.2 398.259 433.692 398.463 434.206 398.463H457.454C457.961 398.453 458.444 398.244 458.799 397.882C459.154 397.52 459.352 397.033 459.352 396.526H459.391ZM413.109 396.526C413.109 396.012 412.905 395.519 412.542 395.156C412.178 394.792 411.686 394.588 411.172 394.588H388.021C387.507 394.588 387.015 394.792 386.651 395.156C386.288 395.519 386.084 396.012 386.084 396.526C386.084 397.039 386.288 397.532 386.651 397.896C387.015 398.259 387.507 398.463 388.021 398.463H411.172C411.686 398.463 412.178 398.259 412.542 397.896C412.905 397.532 413.109 397.039 413.109 396.526V396.526ZM366.808 396.526C366.808 396.012 366.604 395.519 366.24 395.156C365.877 394.792 365.384 394.588 364.87 394.588H341.739C341.225 394.588 340.733 394.792 340.369 395.156C340.006 395.519 339.802 396.012 339.802 396.526C339.802 397.039 340.006 397.532 340.369 397.896C340.733 398.259 341.225 398.463 341.739 398.463H364.87C365.384 398.463 365.877 398.259 366.24 397.896C366.604 397.532 366.808 397.039 366.808 396.526V396.526ZM320.526 396.526C320.526 396.012 320.322 395.519 319.958 395.156C319.595 394.792 319.102 394.588 318.588 394.588H295.457C294.943 394.588 294.451 394.792 294.087 395.156C293.724 395.519 293.52 396.012 293.52 396.526C293.52 397.039 293.724 397.532 294.087 397.896C294.451 398.259 294.943 398.463 295.457 398.463H318.588C319.102 398.463 319.595 398.259 319.958 397.896C320.322 397.532 320.526 397.039 320.526 396.526V396.526ZM274.244 396.526C274.244 396.012 274.04 395.519 273.676 395.156C273.313 394.792 272.82 394.588 272.306 394.588H249.156C248.642 394.588 248.149 394.792 247.786 395.156C247.423 395.519 247.218 396.012 247.218 396.526C247.218 397.039 247.423 397.532 247.786 397.896C248.149 398.259 248.642 398.463 249.156 398.463H272.306C272.82 398.463 273.313 398.259 273.676 397.896C274.04 397.532 274.244 397.039 274.244 396.526V396.526ZM227.962 396.526C227.962 396.012 227.758 395.519 227.394 395.156C227.031 394.792 226.538 394.588 226.024 394.588H202.777C202.263 394.588 201.77 394.792 201.407 395.156C201.044 395.519 200.84 396.012 200.84 396.526C200.84 397.039 201.044 397.532 201.407 397.896C201.77 398.259 202.263 398.463 202.777 398.463H226.024C226.538 398.463 227.031 398.259 227.394 397.896C227.758 397.532 227.962 397.039 227.962 396.526V396.526ZM181.68 396.526C181.68 396.012 181.476 395.519 181.112 395.156C180.749 394.792 180.256 394.588 179.742 394.588H156.495C155.981 394.588 155.488 394.792 155.125 395.156C154.762 395.519 154.558 396.012 154.558 396.526C154.558 397.039 154.762 397.532 155.125 397.896C155.488 398.259 155.981 398.463 156.495 398.463H179.742C180.256 398.463 180.749 398.259 181.112 397.896C181.476 397.532 181.68 397.039 181.68 396.526V396.526ZM135.378 396.526C135.378 396.012 135.174 395.519 134.811 395.156C134.448 394.792 133.955 394.588 133.441 394.588H110.31C109.796 394.588 109.303 394.792 108.94 395.156C108.577 395.519 108.373 396.012 108.373 396.526C108.373 397.039 108.577 397.532 108.94 397.896C109.303 398.259 109.796 398.463 110.31 398.463H133.441C133.955 398.463 134.448 398.259 134.811 397.896C135.174 397.532 135.378 397.039 135.378 396.526V396.526ZM892.861 381.279C895.254 376.706 896.504 371.621 896.503 366.459V357.799C896.503 357.285 896.299 356.793 895.936 356.429C895.572 356.066 895.079 355.862 894.566 355.862C894.052 355.862 893.559 356.066 893.196 356.429C892.833 356.793 892.628 357.285 892.628 357.799V366.459C892.63 370.993 891.533 375.46 889.432 379.477C889.306 379.703 889.227 379.952 889.199 380.208C889.171 380.465 889.195 380.725 889.269 380.972C889.343 381.22 889.465 381.45 889.629 381.649C889.793 381.849 889.996 382.013 890.224 382.133C890.453 382.254 890.703 382.327 890.96 382.349C891.218 382.371 891.477 382.341 891.722 382.261C891.968 382.182 892.195 382.054 892.391 381.885C892.586 381.717 892.746 381.511 892.861 381.279ZM896.503 334.648V311.517C896.503 311.003 896.299 310.511 895.936 310.147C895.572 309.784 895.079 309.58 894.566 309.58C894.052 309.58 893.559 309.784 893.196 310.147C892.833 310.511 892.628 311.003 892.628 311.517V334.648C892.628 335.162 892.833 335.655 893.196 336.018C893.559 336.382 894.052 336.586 894.566 336.586C895.079 336.586 895.572 336.382 895.936 336.018C896.299 335.655 896.503 335.162 896.503 334.648V334.648ZM896.503 288.366V280.346C896.538 274.936 895.205 269.605 892.628 264.848C892.505 264.625 892.339 264.429 892.14 264.27C891.941 264.112 891.712 263.994 891.468 263.924C891.223 263.854 890.967 263.832 890.714 263.861C890.461 263.89 890.216 263.969 889.994 264.092C889.549 264.341 889.221 264.755 889.079 265.245C888.938 265.734 888.995 266.26 889.238 266.708C891.514 270.865 892.706 275.529 892.706 280.269V288.289C892.706 288.803 892.91 289.296 893.273 289.659C893.637 290.022 894.129 290.226 894.643 290.226C895.157 290.226 895.65 290.022 896.013 289.659C896.376 289.296 896.58 288.803 896.58 288.289L896.503 288.366ZM875.193 252.158C875.344 251.668 875.294 251.137 875.055 250.683C874.815 250.229 874.405 249.889 873.914 249.737C870.862 248.807 867.689 248.337 864.499 248.342H850.337C849.823 248.342 849.331 248.546 848.967 248.909C848.604 249.273 848.4 249.765 848.4 250.279C848.4 250.793 848.604 251.286 848.967 251.649C849.331 252.012 849.823 252.217 850.337 252.217H864.499C867.303 252.209 870.092 252.627 872.771 253.456C872.964 253.486 873.16 253.486 873.352 253.456C873.739 253.439 874.112 253.306 874.423 253.075C874.734 252.844 874.968 252.524 875.096 252.158H875.193ZM829.143 250.221C829.143 249.707 828.939 249.215 828.576 248.851C828.212 248.488 827.72 248.284 827.206 248.284H803.958C803.445 248.284 802.952 248.488 802.589 248.851C802.225 249.215 802.021 249.707 802.021 250.221C802.021 250.735 802.225 251.228 802.589 251.591C802.952 251.954 803.445 252.158 803.958 252.158H827.109C827.613 252.159 828.097 251.963 828.459 251.612C828.82 251.261 829.031 250.783 829.046 250.279L829.143 250.221ZM782.842 250.221C782.842 249.707 782.638 249.215 782.274 248.851C781.911 248.488 781.418 248.284 780.905 248.284H757.696C757.182 248.284 756.689 248.488 756.326 248.851C755.963 249.215 755.758 249.707 755.758 250.221C755.758 250.735 755.963 251.228 756.326 251.591C756.689 251.954 757.182 252.158 757.696 252.158H780.827C781.328 252.154 781.807 251.955 782.164 251.605C782.522 251.255 782.73 250.78 782.745 250.279L782.842 250.221ZM736.56 250.221C736.56 249.707 736.356 249.215 735.992 248.851C735.629 248.488 735.136 248.284 734.623 248.284H711.394C710.881 248.284 710.388 248.488 710.025 248.851C709.661 249.215 709.457 249.707 709.457 250.221C709.457 250.735 709.661 251.228 710.025 251.591C710.388 251.954 710.881 252.158 711.394 252.158H734.448C734.952 252.159 735.436 251.963 735.798 251.612C736.16 251.261 736.37 250.783 736.386 250.279L736.56 250.221ZM690.278 250.221C690.278 249.707 690.074 249.215 689.71 248.851C689.347 248.488 688.854 248.284 688.341 248.284H665.093C664.579 248.284 664.087 248.488 663.723 248.851C663.36 249.215 663.156 249.707 663.156 250.221C663.156 250.735 663.36 251.228 663.723 251.591C664.087 251.954 664.579 252.158 665.093 252.158H688.244C688.748 252.159 689.232 251.963 689.593 251.612C689.955 251.261 690.166 250.783 690.181 250.279L690.278 250.221ZM643.996 250.221C643.996 249.707 643.792 249.215 643.429 248.851C643.065 248.488 642.572 248.284 642.059 248.284H618.811C618.297 248.284 617.805 248.488 617.441 248.851C617.078 249.215 616.874 249.707 616.874 250.221C616.874 250.735 617.078 251.228 617.441 251.591C617.805 251.954 618.297 252.158 618.811 252.158H641.962C642.466 252.159 642.95 251.963 643.311 251.612C643.673 251.261 643.884 250.783 643.899 250.279L643.996 250.221ZM597.714 250.221C597.714 249.707 597.51 249.215 597.147 248.851C596.783 248.488 596.29 248.284 595.777 248.284H572.529C572.015 248.284 571.523 248.488 571.159 248.851C570.796 249.215 570.592 249.707 570.592 250.221C570.592 250.735 570.796 251.228 571.159 251.591C571.523 251.954 572.015 252.158 572.529 252.158H595.68C596.184 252.159 596.668 251.963 597.03 251.612C597.391 251.261 597.602 250.783 597.617 250.279L597.714 250.221ZM551.413 250.221C551.413 249.707 551.208 249.215 550.845 248.851C550.482 248.488 549.989 248.284 549.475 248.284H526.247C525.733 248.284 525.241 248.488 524.877 248.851C524.514 249.215 524.31 249.707 524.31 250.221C524.31 250.735 524.514 251.228 524.877 251.591C525.241 251.954 525.733 252.158 526.247 252.158H549.378C549.882 252.159 550.366 251.963 550.728 251.612C551.09 251.261 551.301 250.783 551.316 250.279L551.413 250.221ZM505.131 250.221C505.131 249.707 504.926 249.215 504.563 248.851C504.2 248.488 503.707 248.284 503.193 248.284H479.965C479.451 248.284 478.959 248.488 478.595 248.851C478.232 249.215 478.028 249.707 478.028 250.221C478.028 250.735 478.232 251.228 478.595 251.591C478.959 251.954 479.451 252.158 479.965 252.158H503.096C503.6 252.159 504.084 251.963 504.446 251.612C504.808 251.261 505.019 250.783 505.034 250.279L505.131 250.221ZM458.849 250.221C458.849 249.707 458.645 249.215 458.281 248.851C457.918 248.488 457.425 248.284 456.911 248.284H433.664C433.15 248.284 432.657 248.488 432.294 248.851C431.931 249.215 431.726 249.707 431.726 250.221C431.726 250.735 431.931 251.228 432.294 251.591C432.657 251.954 433.15 252.158 433.664 252.158H456.814C457.318 252.159 457.802 251.963 458.164 251.612C458.526 251.261 458.737 250.783 458.752 250.279L458.849 250.221ZM412.567 250.221C412.567 249.707 412.363 249.215 411.999 248.851C411.636 248.488 411.143 248.284 410.629 248.284H387.382C386.868 248.284 386.375 248.488 386.012 248.851C385.649 249.215 385.445 249.707 385.445 250.221C385.445 250.735 385.649 251.228 386.012 251.591C386.375 251.954 386.868 252.158 387.382 252.158H410.629C411.116 252.134 411.576 251.927 411.917 251.579C412.258 251.231 412.456 250.767 412.47 250.279L412.567 250.221ZM366.285 250.221C366.285 249.707 366.081 249.215 365.717 248.851C365.354 248.488 364.861 248.284 364.347 248.284H341.177C340.663 248.284 340.171 248.488 339.807 248.851C339.444 249.215 339.24 249.707 339.24 250.221C339.24 250.735 339.444 251.228 339.807 251.591C340.171 251.954 340.663 252.158 341.177 252.158H364.328C364.818 252.139 365.283 251.934 365.628 251.585C365.973 251.237 366.173 250.77 366.188 250.279L366.285 250.221ZM319.983 250.221C319.983 249.707 319.779 249.215 319.416 248.851C319.053 248.488 318.56 248.284 318.046 248.284H294.818C294.304 248.284 293.811 248.488 293.448 248.851C293.085 249.215 292.881 249.707 292.881 250.221C292.881 250.735 293.085 251.228 293.448 251.591C293.811 251.954 294.304 252.158 294.818 252.158H317.93C318.434 252.159 318.918 251.963 319.279 251.612C319.641 251.261 319.852 250.783 319.867 250.279L319.983 250.221ZM273.701 250.221C273.701 249.707 273.497 249.215 273.134 248.851C272.771 248.488 272.278 248.284 271.764 248.284H248.536C248.022 248.284 247.529 248.488 247.166 248.851C246.803 249.215 246.599 249.707 246.599 250.221C246.599 250.735 246.803 251.228 247.166 251.591C247.529 251.954 248.022 252.158 248.536 252.158H271.667C272.171 252.159 272.655 251.963 273.017 251.612C273.379 251.261 273.589 250.783 273.604 250.279L273.701 250.221ZM227.419 250.221C227.419 249.707 227.215 249.215 226.852 248.851C226.489 248.488 225.996 248.284 225.482 248.284H202.234C201.721 248.284 201.228 248.488 200.865 248.851C200.501 249.215 200.297 249.707 200.297 250.221C200.297 250.735 200.501 251.228 200.865 251.591C201.228 251.954 201.721 252.158 202.234 252.158H225.385C225.889 252.159 226.373 251.963 226.735 251.612C227.097 251.261 227.307 250.783 227.322 250.279L227.419 250.221ZM182.474 244.409C182.656 244.229 182.8 244.015 182.898 243.779C182.996 243.543 183.047 243.289 183.047 243.034C183.047 242.778 182.996 242.525 182.898 242.289C182.8 242.053 182.656 241.838 182.474 241.658C180.105 239.417 178.22 236.713 176.937 233.714C175.654 230.715 175 227.484 175.015 224.223V222.13C175.015 221.616 174.811 221.124 174.448 220.76C174.085 220.397 173.592 220.193 173.078 220.193C172.564 220.193 172.072 220.397 171.708 220.76C171.345 221.124 171.141 221.616 171.141 222.13V224.223C171.127 228.007 171.887 231.753 173.377 235.232C174.866 238.71 177.052 241.847 179.801 244.448C180.16 244.794 180.639 244.988 181.137 244.99C181.584 244.946 182.002 244.747 182.319 244.429L182.474 244.409ZM174.938 199.018V175.887C174.938 175.373 174.734 174.881 174.371 174.517C174.007 174.154 173.514 173.95 173.001 173.95C172.487 173.95 171.994 174.154 171.631 174.517C171.268 174.881 171.063 175.373 171.063 175.887V199.038C171.063 199.552 171.268 200.044 171.631 200.408C171.994 200.771 172.487 200.975 173.001 200.975C173.514 200.975 174.007 200.771 174.371 200.408C174.734 200.044 174.938 199.552 174.938 199.038V199.018ZM174.938 152.717V147.874C174.93 142.118 176.643 136.491 179.859 131.717C180 131.497 180.096 131.251 180.143 130.994C180.189 130.736 180.184 130.472 180.128 130.217C180.072 129.961 179.967 129.719 179.818 129.505C179.668 129.29 179.478 129.107 179.258 128.966C179.038 128.825 178.792 128.728 178.535 128.682C178.278 128.636 178.014 128.641 177.758 128.696C177.503 128.752 177.261 128.858 177.046 129.007C176.832 129.156 176.648 129.346 176.507 129.566C172.848 134.977 170.898 141.361 170.908 147.893V152.736C170.908 153.25 171.113 153.743 171.476 154.106C171.839 154.47 172.332 154.674 172.846 154.674C173.36 154.674 173.852 154.47 174.216 154.106C174.579 153.743 174.783 153.25 174.783 152.736L174.938 152.717ZM197.294 119.783C199.454 119.279 201.664 119.025 203.881 119.027H219.941C220.455 119.027 220.948 118.823 221.311 118.46C221.675 118.097 221.879 117.604 221.879 117.09C221.879 116.576 221.675 116.084 221.311 115.72C220.948 115.357 220.455 115.153 219.941 115.153H203.881C201.371 115.154 198.869 115.44 196.423 116.005C196.174 116.062 195.94 116.168 195.733 116.316C195.525 116.463 195.349 116.651 195.214 116.866C195.079 117.082 194.988 117.323 194.946 117.574C194.904 117.825 194.912 118.082 194.97 118.33C195.072 118.763 195.32 119.148 195.673 119.42C196.026 119.692 196.462 119.834 196.907 119.822C197.007 119.792 197.105 119.753 197.198 119.705L197.294 119.783ZM243.383 118.562C247.443 117.845 251.322 116.332 254.796 114.111C258.27 111.891 261.271 109.005 263.627 105.621C263.92 105.2 264.033 104.68 263.942 104.175C263.851 103.67 263.564 103.222 263.143 102.929C262.722 102.636 262.201 102.523 261.697 102.614C261.192 102.705 260.744 102.992 260.45 103.413C256.278 109.392 249.902 113.468 242.724 114.746C242.21 114.79 241.735 115.036 241.402 115.43C241.07 115.824 240.908 116.334 240.951 116.848C240.995 117.362 241.241 117.837 241.635 118.17C242.029 118.502 242.539 118.664 243.053 118.621L243.383 118.562ZM269.11 82.3738V66.643C269.11 64.3306 269.397 62.0271 269.962 59.7849C270.053 59.5309 270.089 59.2608 270.069 58.9918C270.05 58.7228 269.974 58.461 269.847 58.223C269.72 57.9851 269.545 57.7762 269.332 57.6099C269.12 57.4435 268.876 57.3233 268.614 57.2569C268.353 57.1906 268.08 57.1795 267.814 57.2245C267.549 57.2694 267.295 57.3694 267.07 57.518C266.845 57.6666 266.653 57.8606 266.508 58.0875C266.362 58.3144 266.265 58.5692 266.223 58.8357C265.569 61.3667 265.237 63.9704 265.235 66.5848V82.3157C265.235 82.8295 265.439 83.3222 265.803 83.6856C266.166 84.0489 266.659 84.253 267.173 84.253C267.686 84.253 268.179 84.0489 268.542 83.6856C268.906 83.3222 269.11 82.8295 269.11 82.3157V82.3738ZM282.671 43.0273C286.841 40.5991 291.581 39.3221 296.406 39.3271H304.156C304.669 39.3271 305.162 39.123 305.525 38.7597C305.889 38.3964 306.093 37.9036 306.093 37.3898C306.093 36.876 305.889 36.3832 305.525 36.0199C305.162 35.6566 304.669 35.4525 304.156 35.4525H296.406C290.894 35.4462 285.479 36.9036 280.714 39.6758C280.494 39.804 280.301 39.9744 280.147 40.1773C279.992 40.3802 279.879 40.6115 279.815 40.8581C279.75 41.1047 279.734 41.3616 279.769 41.6142C279.804 41.8667 279.888 42.11 280.017 42.3299C280.145 42.5503 280.315 42.7432 280.518 42.8976C280.721 43.052 280.953 43.1648 281.199 43.2296C281.446 43.2944 281.703 43.3098 281.955 43.2751C282.208 43.2404 282.451 43.1562 282.671 43.0273ZM676.329 37.3898C676.329 36.876 676.125 36.3832 675.762 36.0199C675.399 35.6566 674.906 35.4525 674.392 35.4525H651.28C650.766 35.4525 650.274 35.6566 649.91 36.0199C649.547 36.3832 649.343 36.876 649.343 37.3898C649.343 37.9036 649.547 38.3964 649.91 38.7597C650.274 39.123 650.766 39.3271 651.28 39.3271H674.392C674.906 39.3271 675.399 39.123 675.762 38.7597C676.125 38.3964 676.329 37.9036 676.329 37.3898ZM630.047 37.3898C630.047 36.876 629.843 36.3832 629.48 36.0199C629.117 35.6566 628.624 35.4525 628.11 35.4525H604.998C604.484 35.4525 603.992 35.6566 603.628 36.0199C603.265 36.3832 603.061 36.876 603.061 37.3898C603.061 37.9036 603.265 38.3964 603.628 38.7597C603.992 39.123 604.484 39.3271 604.998 39.3271H628.149C628.663 39.3271 629.155 39.123 629.519 38.7597C629.882 38.3964 630.086 37.9036 630.086 37.3898H630.047ZM583.765 37.3898C583.765 36.876 583.561 36.3832 583.198 36.0199C582.835 35.6566 582.342 35.4525 581.828 35.4525H558.716C558.202 35.4525 557.71 35.6566 557.346 36.0199C556.983 36.3832 556.779 36.876 556.779 37.3898C556.779 37.9036 556.983 38.3964 557.346 38.7597C557.71 39.123 558.202 39.3271 558.716 39.3271H581.867C582.381 39.3271 582.873 39.123 583.237 38.7597C583.6 38.3964 583.804 37.9036 583.804 37.3898H583.765ZM537.464 37.3898C537.464 36.876 537.26 36.3832 536.897 36.0199C536.533 35.6566 536.041 35.4525 535.527 35.4525H512.434C511.92 35.4525 511.428 35.6566 511.064 36.0199C510.701 36.3832 510.497 36.876 510.497 37.3898C510.497 37.9036 510.701 38.3964 511.064 38.7597C511.428 39.123 511.92 39.3271 512.434 39.3271H535.565C536.079 39.3271 536.572 39.123 536.935 38.7597C537.299 38.3964 537.503 37.9036 537.503 37.3898H537.464ZM491.182 37.3898C491.182 36.876 490.978 36.3832 490.615 36.0199C490.251 35.6566 489.759 35.4525 489.245 35.4525H466.152C465.638 35.4525 465.146 35.6566 464.782 36.0199C464.419 36.3832 464.215 36.876 464.215 37.3898C464.215 37.9036 464.419 38.3964 464.782 38.7597C465.146 39.123 465.638 39.3271 466.152 39.3271H489.284C489.797 39.3271 490.29 39.123 490.653 38.7597C491.017 38.3964 491.221 37.9036 491.221 37.3898H491.182ZM444.9 37.3898C444.9 36.876 444.696 36.3832 444.333 36.0199C443.969 35.6566 443.477 35.4525 442.963 35.4525H419.851C419.337 35.4525 418.844 35.6566 418.481 36.0199C418.118 36.3832 417.914 36.876 417.914 37.3898C417.914 37.9036 418.118 38.3964 418.481 38.7597C418.844 39.123 419.337 39.3271 419.851 39.3271H443.002C443.515 39.3271 444.008 39.123 444.371 38.7597C444.735 38.3964 444.939 37.9036 444.939 37.3898H444.9ZM398.618 37.3898C398.618 36.876 398.414 36.3832 398.051 36.0199C397.687 35.6566 397.195 35.4525 396.681 35.4525H373.569C373.055 35.4525 372.562 35.6566 372.199 36.0199C371.836 36.3832 371.632 36.876 371.632 37.3898C371.632 37.9036 371.836 38.3964 372.199 38.7597C372.562 39.123 373.055 39.3271 373.569 39.3271H396.72C397.233 39.3271 397.726 39.123 398.089 38.7597C398.453 38.3964 398.657 37.9036 398.657 37.3898H398.618ZM352.336 37.3898C352.336 36.876 352.132 36.3832 351.769 36.0199C351.405 35.6566 350.913 35.4525 350.399 35.4525H327.287C326.773 35.4525 326.28 35.6566 325.917 36.0199C325.554 36.3832 325.35 36.876 325.35 37.3898C325.35 37.9036 325.554 38.3964 325.917 38.7597C326.28 39.123 326.773 39.3271 327.287 39.3271H350.438C350.951 39.3271 351.444 39.123 351.807 38.7597C352.171 38.3964 352.375 37.9036 352.375 37.3898H352.336ZM641.264 544.671V533.047C641.264 532.533 641.06 532.04 640.697 531.677C640.334 531.314 639.841 531.11 639.327 531.11C638.813 531.11 638.32 531.314 637.957 531.677C637.594 532.04 637.39 532.533 637.39 533.047V544.671C637.39 545.184 637.594 545.677 637.957 546.041C638.32 546.404 638.813 546.608 639.327 546.608C639.841 546.608 640.334 546.404 640.697 546.041C641.06 545.677 641.264 545.184 641.264 544.671Z" fill="black"/>
<path opacity="0.1" d="M136.56 245.649V235.73H130.167V245.649H114.165V235.73H107.772V245.649H91.7699V235.73H85.4543V245.649H78.4607V305.705H143.457V245.649H136.56ZM99.0154 292.067H88.7671V281.818H99.0154V292.067ZM99.0154 275.852H88.7671V265.603H99.0154V275.852ZM116.083 292.067H105.835V281.818H116.083V292.067ZM116.083 275.852H105.835V265.603H116.083V275.852ZM133.151 292.067H122.902V281.818H133.151V292.067ZM133.151 275.852H122.902V265.603H133.151V275.852Z" fill="black"/>
<path opacity="0.1" d="M512.395 735.785V725.866H506.002V735.785H490V725.866H483.607V735.785H467.605V725.866H461.29V735.785H454.393V795.841H519.389V735.785H512.395ZM474.851 782.28H464.602V772.032H474.851V782.28ZM474.851 766.065H464.602V755.739H474.851V766.065ZM491.918 782.28H481.67V772.032H491.918V782.28ZM491.918 766.065H481.67V755.739H491.918V766.065ZM508.986 782.28H498.737V772.032H508.986V782.28ZM508.986 766.065H498.737V755.739H508.986V766.065Z" fill="black"/>
<path opacity="0.1" d="M814.981 14.5491V4.64948H808.588V14.5491H792.567V4.64948H786.174V14.5491H770.191V4.64948H763.779V14.5491H756.882V74.6052H821.878V14.5491H814.981ZM777.437 61.0441H767.188V50.7184H777.437V61.0441ZM777.437 44.829H767.188V34.5032H777.437V44.829ZM794.504 60.9667H784.256V50.7184H794.504V60.9667ZM794.504 44.7515H784.256V34.5032H794.504V44.7515ZM811.572 60.9667H801.323V50.7184H811.572V60.9667ZM811.572 44.7515H801.323V34.5032H811.572V44.7515Z" fill="black"/>
<path d="M317.736 93.1839H821.433C822.475 93.1814 823.508 93.3844 824.471 93.7815C825.435 94.1785 826.311 94.7618 827.048 95.4978C827.786 96.2338 828.372 97.1082 828.771 98.0708C829.17 99.0334 829.376 100.065 829.376 101.107V601.976H309.813V101.107C309.813 100.067 310.018 99.0366 310.416 98.0753C310.814 97.1139 311.398 96.2404 312.134 95.5047C312.869 94.7689 313.743 94.1853 314.704 93.7871C315.665 93.3889 316.696 93.1839 317.736 93.1839V93.1839Z" fill="#E5E5E5"/>
<path d="M398.831 263.24C398.835 265.904 398.048 268.51 396.57 270.727C395.092 272.945 392.99 274.673 390.529 275.695C388.067 276.716 385.359 276.984 382.745 276.466C380.131 275.947 377.731 274.664 375.846 272.78C373.962 270.896 372.68 268.495 372.161 265.881C371.642 263.268 371.91 260.559 372.931 258.098C373.953 255.637 375.682 253.534 377.899 252.056C380.116 250.578 382.722 249.791 385.386 249.795C388.951 249.8 392.367 251.218 394.888 253.738C397.408 256.259 398.826 259.676 398.831 263.24V263.24Z" fill="#CCCCCC"/>
<path d="M829.376 149.985L762.132 214.555C752.282 213.723 742.375 213.852 732.55 214.943C732.099 214.968 731.648 214.9 731.225 214.743C730.802 214.587 730.415 214.345 730.089 214.032C717.497 204.152 705.757 132.182 700.662 93.1839H696.981C701.03 124.181 712.867 205.179 727.823 216.919C728.531 217.533 729.356 217.997 730.248 218.284C731.141 218.57 732.082 218.673 733.015 218.585C741.514 217.583 750.087 217.362 758.626 217.926L704.207 270.233L627.645 213.509C623.828 210.68 619.108 209.343 614.373 209.75C609.639 210.157 605.217 212.279 601.937 215.718C593.704 224.339 587.466 231.313 583.359 236.447C577.934 243.208 569.371 253.883 559.821 265.506L531.362 242.588C548.255 220.309 562.862 201.053 571.483 191.134C589.016 170.966 629.602 120.093 650.912 93.2614H646.224C624.546 120.577 585.742 169.165 568.732 188.731C560.034 198.728 545.485 218.004 528.514 240.322L489.768 209.112C489.986 208.743 490.063 208.308 489.986 207.886C489.909 207.465 489.682 207.085 489.348 206.817C489.014 206.549 488.595 206.41 488.167 206.426C487.738 206.441 487.33 206.611 487.017 206.903L448.969 176.275C448.785 176.095 448.567 175.955 448.327 175.865C448.087 175.775 447.83 175.736 447.574 175.75C447.318 175.765 447.068 175.833 446.84 175.95C446.611 176.067 446.41 176.23 446.249 176.43C446.087 176.629 445.969 176.86 445.902 177.108C445.835 177.355 445.821 177.614 445.86 177.868C445.899 178.121 445.991 178.364 446.129 178.58C446.267 178.796 446.449 178.981 446.663 179.122L484.712 209.751C479.268 216.745 463.983 236.466 453.076 251.19L351.096 172.574C350.709 172.312 350.236 172.207 349.774 172.281C349.312 172.355 348.895 172.602 348.609 172.973C348.323 173.343 348.188 173.808 348.233 174.274C348.277 174.74 348.498 175.171 348.849 175.48L450.906 254.154C448.659 257.215 446.663 259.966 445.094 262.271C433.005 279.707 416.829 296.348 388.447 287.262C359.388 277.963 355.513 256.595 355.513 255.704C355.44 255.27 355.222 254.873 354.893 254.58L328.391 231.817C330.329 217.675 332.595 197.817 335.075 169.823C337.71 140.202 339.783 110.62 340.887 93.1646H337.303C334.378 137.722 329.825 193.497 325.117 228.988L311.227 217.171V222.014L324.517 233.444C322.095 250.88 319.635 262.504 317.368 264.112C315.228 265.103 313.174 266.269 311.227 267.599V272.054C313.616 270.279 316.172 268.741 318.86 267.463C320.429 266.766 323.432 265.526 327.771 236.234L351.91 256.982C352.782 261.07 358.574 281.586 387.266 290.769C392.534 292.525 398.044 293.447 403.597 293.5C424.733 293.5 438.275 278.506 448.039 264.441C449.588 262.194 451.565 259.481 453.851 256.479L493.1 286.739C472.042 313.861 451.313 339.046 436.822 352.607C419.541 368.687 397.746 387.479 380.001 402.551C355.145 386.239 331.84 368.609 331.568 368.377H331.452L331.336 368.28L311.343 357.431V361.596L325.505 369.345C322.114 370.198 317.077 371.418 311.343 372.6V376.029C320.235 374.208 327.558 372.29 330.077 371.612C334.164 374.692 354.893 390.171 377.114 404.779C360.357 418.94 347.9 429.13 347.648 429.343C347.287 429.665 347.06 430.109 347.01 430.589C346.959 431.069 347.09 431.551 347.377 431.939C347.7 432.297 348.146 432.521 348.626 432.568C349.106 432.614 349.586 432.48 349.973 432.191C350.225 431.978 363.108 421.42 380.311 406.89C385.425 410.203 390.559 413.438 395.557 416.441L407.181 423.28C417.178 429.188 429.344 436.395 441.374 443.97L406.271 482.115C406.041 482.376 405.886 482.693 405.822 483.034C405.757 483.374 405.785 483.726 405.902 484.053C406.038 484.368 406.254 484.642 406.53 484.846C406.806 485.05 407.131 485.178 407.472 485.215C407.801 485.215 439.941 488.024 466.055 524.813C488.78 556.817 510.342 583.727 548.41 601.956H557.321C515.34 584.075 492.848 556.217 469.039 522.682C446.818 491.356 420.742 483.82 411.327 481.999L444.532 445.946C468.535 461.27 491.202 477.892 493.894 488.663C497.769 504.375 516.871 523.748 526.034 533.047C528.378 535.43 530.393 537.483 530.839 538.161C533.396 542.036 550.212 551.548 553.486 553.427L553.892 553.582C557.186 554.512 577.411 560.014 593.452 560.014C601.821 560.014 609.047 558.522 612.147 554.086C617.106 547.034 631.52 535.682 643.144 526.576C651.358 520.106 658.468 514.526 661.064 511.407C661.78 510.536 665.074 507.533 670.343 502.728L684.021 516.406L579.6 601.898H585.412L686.636 519.001L704.692 537.057L631.752 601.898H637.274L708.585 538.51C708.77 538.34 708.917 538.133 709.017 537.903C709.118 537.673 709.17 537.424 709.17 537.173C709.17 536.922 709.118 536.674 709.017 536.444C708.917 536.214 708.77 536.007 708.585 535.837L689.426 516.677L777.127 444.842L806.923 468.826L696.749 566.756C694.856 568.442 693.52 570.663 692.915 573.124C692.311 575.586 692.467 578.173 693.363 580.544C694.259 582.915 695.853 584.959 697.934 586.405C700.015 587.852 702.486 588.634 705.021 588.647C707.908 588.639 710.705 587.641 712.944 585.819L827.942 485.738L829.57 487.055V479.461L827.845 480.953L812.599 468.69L829.57 453.598V448.697L809.712 466.346L780.033 442.459L829.376 401.989V397.339L776.875 440.192L758.238 425.178C782.9 403.655 808.317 381.57 829.337 363.32V358.458C814.536 371.302 785.438 396.584 755.332 422.853L718.524 393.232C750.935 361.306 794.524 318.085 801.421 309.657C813.044 295.438 817.636 254.018 806.496 234.219C799.774 222.266 783.249 217.016 766.859 215.04L829.318 154.984L829.376 149.985ZM809.596 471.228L824.804 483.471L710.348 583.087C708.55 584.6 706.224 585.337 703.883 585.136C701.541 584.934 699.376 583.81 697.863 582.012C696.349 580.214 695.613 577.888 695.814 575.546C696.016 573.205 697.139 571.039 698.938 569.526L809.596 471.228ZM586.187 238.752C590.062 233.773 596.513 226.702 604.553 218.256C607.219 215.472 610.808 213.755 614.649 213.427C618.489 213.099 622.318 214.182 625.417 216.473L701.514 272.771L641.051 330.89L562.649 267.734C575.726 251.771 585.916 239.043 586.187 238.694V238.752ZM529.095 245.455L557.438 268.277C546.705 281.353 534.984 295.399 525.201 306.771L498.079 285.925C508.695 272.364 519.254 258.455 529.095 245.455ZM455.904 253.36C466.753 238.694 482.019 219.011 487.482 211.979L526.228 243.15C516.367 256.188 505.789 270.098 495.231 283.678L455.904 253.36ZM439.205 355.087C453.87 341.526 474.735 315.992 495.89 288.812L522.799 309.56C513.732 319.983 506.7 327.558 504.317 328.933C497.866 332.634 447.089 357.76 423.474 369.442C428.976 364.522 434.284 359.698 439.224 355.087H439.205ZM443.68 441.258C431.688 433.683 419.386 426.418 408.808 420.161C404.643 417.7 400.769 415.414 397.32 413.341C392.651 410.532 387.866 407.529 383.1 404.449C392.419 396.545 402.803 387.634 413.051 378.644C416.499 376.94 497.595 336.973 506.041 332.149C508.773 330.58 516.348 322.463 525.821 311.575H525.918C526.199 311.578 526.477 311.514 526.729 311.389C526.982 311.265 527.201 311.083 527.371 310.858C527.53 310.652 527.642 310.413 527.699 310.159C527.756 309.904 527.756 309.641 527.7 309.386C537.813 297.762 549.747 283.329 560.208 270.64L638.359 333.409L598.16 372.019H598.063L535.604 448.891L479.481 404.895C479.107 404.628 478.65 404.503 478.192 404.542C477.734 404.581 477.305 404.782 476.982 405.108L443.68 441.258ZM608.912 552.071C602.538 561.176 567.938 553.853 554.861 550.134C547.422 545.93 535.256 538.51 533.667 536.147C532.043 534.148 530.289 532.258 528.417 530.49C519.486 521.423 500.907 502.535 497.227 487.869C494.262 475.994 471.538 459.081 446.857 443.311L478.551 408.905L534.733 453.095C535.118 453.37 535.591 453.495 536.063 453.445C536.534 453.395 536.971 453.174 537.29 452.824L598.102 377.966L617.126 543.276C614.112 545.931 611.367 548.877 608.931 552.071H608.912ZM668.716 499.067C662.652 504.53 658.778 508.133 657.925 509.141C655.581 511.95 648.239 517.704 640.49 523.767C633.709 529.114 626.444 534.849 620.38 540.157L601.356 374.092L641.226 335.791L713.022 393.465C694.618 411.598 680.475 425.411 680.088 425.779C679.81 426.065 679.627 426.431 679.565 426.825L668.716 499.067ZM755.41 427.639L773.95 442.575L686.558 514.139L672.765 500.345C689.542 485.273 721.585 457.182 755.429 427.639H755.41ZM752.504 425.295C721.992 451.932 690.879 479.209 673.075 495.211L683.149 428.026C686.035 425.198 699.286 412.237 715.967 395.828L752.504 425.295ZM715.695 390.908L644.015 333.157L704.595 275.038L777.824 329.282C760.389 346.737 735.824 371.07 715.657 390.908H715.695ZM803.358 235.924C813.684 254.328 809.364 294.14 798.631 307.255C796.306 310.103 789.545 317.174 780.343 326.512L707.191 272.268L763.508 218.314C780.517 220.038 797.197 225.133 803.319 236.001L803.358 235.924Z" fill="white"/>
<path d="M811.475 543.218H519.699V593.529H811.475V543.218Z" fill="white"/>
<path d="M558.561 567.24H539.363V589.19H558.561V567.24Z" fill="#92E3A9"/>
<path d="M585.083 566.775H565.884V589.19H585.083V566.775Z" fill="#92E3A9"/>
<path d="M611.604 561.758H592.406V589.19H611.604V561.758Z" fill="#92E3A9"/>
<path d="M638.126 574.563H618.928V589.19H638.126V574.563Z" fill="#92E3A9"/>
<path d="M664.648 559.917H645.449V589.19H664.648V559.917Z" fill="#92E3A9"/>
<path d="M691.188 568.616H671.99V589.19H691.188V568.616Z" fill="#92E3A9"/>
<path d="M717.71 578.205H698.512V589.19H717.71V578.205Z" fill="#92E3A9"/>
<path d="M744.251 572.723H725.033V589.19H744.251V572.723Z" fill="#92E3A9"/>
<path d="M770.753 577.295H751.555V589.19H770.753V577.295Z" fill="#92E3A9"/>
<path d="M797.294 559.917H778.096V589.19H797.294V559.917Z" fill="#92E3A9"/>
<path d="M311.227 601.976H441.026C432.134 597.714 418.766 591.011 417.139 588.589C414.698 584.928 401.253 561.68 393.891 560.46C386.53 559.239 384.108 567.802 384.108 567.802L399.994 593.49L393.891 589.81C393.891 589.81 379.207 573.904 375.545 571.463C371.884 569.022 375.545 559.239 376.766 551.897C377.986 544.554 386.452 539.672 388.99 533.551C391.528 527.429 388.99 509.083 388.99 502.98C388.99 496.878 377.986 478.512 370.644 463.827C363.302 449.143 338.853 421.032 325.389 414.911C320.843 413.041 316.056 411.821 311.169 411.288L311.227 601.976Z" fill="#CCCCCC"/>
<path d="M616.545 238.772L596.978 263.24L621.446 295.05L666.701 271.802L616.545 238.772Z" fill="#CCCCCC"/>
<path d="M641.013 348.868L612.883 375.777L623.887 435.698L654.458 444.261L664.26 418.572L693.61 390.443L641.013 348.868Z" fill="#CCCCCC"/>
<path d="M317.736 93.1839H821.433C822.475 93.1814 823.508 93.3844 824.471 93.7815C825.435 94.1785 826.311 94.7618 827.048 95.4978C827.786 96.2338 828.372 97.1082 828.771 98.0708C829.17 99.0334 829.376 100.065 829.376 101.107V601.976H309.813V101.107C309.813 100.067 310.018 99.0366 310.416 98.0753C310.814 97.1139 311.398 96.2404 312.134 95.5047C312.869 94.7689 313.743 94.1853 314.704 93.7871C315.665 93.3889 316.696 93.1839 317.736 93.1839V93.1839Z" stroke="#263238" stroke-linecap="round" stroke-linejoin="round"/>
<path d="M317.736 93.1839H821.433C822.475 93.1814 823.508 93.3844 824.471 93.7815C825.435 94.1785 826.311 94.7618 827.048 95.4978C827.786 96.2338 828.372 97.1082 828.771 98.0708C829.17 99.0334 829.376 100.065 829.376 101.107V191.017H309.813V101.107C309.813 100.067 310.018 99.0366 310.416 98.0753C310.814 97.1139 311.398 96.2404 312.134 95.5047C312.869 94.7689 313.743 94.1853 314.704 93.7871C315.665 93.3889 316.696 93.1839 317.736 93.1839V93.1839Z" fill="#92E3A9" stroke="#263238" stroke-linecap="round" stroke-linejoin="round"/>
<path d="M753.531 154.383H343.793V171.509H753.531V154.383Z" fill="white" stroke="#263238" stroke-linecap="round" stroke-linejoin="round"/>
<path d="M821.82 93.1839H343.463V137.238H829.376V100.681C829.373 99.6925 829.176 98.714 828.794 97.8017C828.413 96.8895 827.856 96.0614 827.154 95.3649C826.452 94.6685 825.62 94.1174 824.704 93.7431C823.789 93.3689 822.809 93.1788 821.82 93.1839V93.1839Z" fill="#808080" stroke="#263238" stroke-linecap="round" stroke-linejoin="round"/>
<path d="M317.736 93.1839H821.433C822.475 93.1814 823.508 93.3844 824.471 93.7815C825.435 94.1785 826.311 94.7618 827.048 95.4978C827.786 96.2338 828.372 97.1082 828.771 98.0708C829.17 99.0334 829.376 100.065 829.376 101.107V121.837H309.813V101.107C309.813 100.067 310.018 99.0366 310.416 98.0753C310.814 97.1139 311.398 96.2404 312.134 95.5047C312.869 94.7689 313.743 94.1853 314.704 93.7871C315.665 93.3889 316.696 93.1839 317.736 93.1839V93.1839Z" fill="#263238" stroke="#263238" stroke-linecap="round" stroke-linejoin="round"/>
<path d="M807.988 111.918C810.149 111.918 811.901 110.166 811.901 108.004C811.901 105.843 810.149 104.091 807.988 104.091C805.827 104.091 804.075 105.843 804.075 108.004C804.075 110.166 805.827 111.918 807.988 111.918Z" fill="white"/>
<path d="M791.831 111.918C793.992 111.918 795.744 110.166 795.744 108.004C795.744 105.843 793.992 104.091 791.831 104.091C789.67 104.091 787.917 105.843 787.917 108.004C787.917 110.166 789.67 111.918 791.831 111.918Z" fill="white"/>
<path d="M775.674 111.918C777.835 111.918 779.587 110.166 779.587 108.004C779.587 105.843 777.835 104.091 775.674 104.091C773.513 104.091 771.761 105.843 771.761 108.004C771.761 110.166 773.513 111.918 775.674 111.918Z" fill="white"/>
<path d="M693.571 267.541H629.059C627.857 267.538 626.666 267.773 625.554 268.231C624.443 268.689 623.432 269.363 622.581 270.212C621.73 271.061 621.055 272.07 620.594 273.181C620.133 274.292 619.896 275.482 619.896 276.685V337.283C619.896 338.486 620.133 339.676 620.594 340.787C621.055 341.898 621.73 342.906 622.581 343.756C623.432 344.605 624.443 345.278 625.554 345.737C626.666 346.195 627.857 346.43 629.059 346.427H648.142L662.168 374.092L675.051 346.485H693.571C695.996 346.485 698.322 345.522 700.037 343.807C701.752 342.092 702.715 339.766 702.715 337.341V276.685C702.715 274.259 701.752 271.934 700.037 270.219C698.322 268.504 695.996 267.541 693.571 267.541V267.541Z" fill="#263238" stroke="#263238" stroke-linecap="round" stroke-linejoin="round"/>
<path d="M649.207 296.968L651.435 282.148H656.007V303.032H652.907V288.057L650.641 303.032H647.541L645.081 288.27V303.032H642.233V282.148H646.786L649.207 296.968Z" fill="#92E3A9"/>
<path d="M658.041 287.165C658.041 285.845 658.566 284.579 659.499 283.645C660.433 282.711 661.699 282.187 663.02 282.187C664.34 282.187 665.607 282.711 666.54 283.645C667.474 284.579 667.999 285.845 667.999 287.165V298.014C667.999 299.335 667.474 300.601 666.54 301.535C665.607 302.469 664.34 302.993 663.02 302.993C661.699 302.993 660.433 302.469 659.499 301.535C658.566 300.601 658.041 299.335 658.041 298.014V287.165ZM661.315 298.227C661.315 299.719 661.974 300.281 663.02 300.281C664.066 300.281 664.705 299.719 664.705 298.227V286.914C664.705 285.422 664.047 284.86 663.02 284.86C661.993 284.86 661.315 285.422 661.315 286.914V298.227Z" fill="#92E3A9"/>
<path d="M673.036 287.902V303.032H670.091V282.148H674.198L677.569 294.643V282.148H680.495V303.032H677.124L673.036 287.902Z" fill="#92E3A9"/>
<path d="M655.484 313.493C654.438 313.493 653.798 314.055 653.798 315.547V317.775H650.679V315.837C650.679 312.486 652.365 310.587 655.581 310.587C658.797 310.587 660.463 312.524 660.463 315.837C660.463 322.385 653.934 324.846 653.934 328.275C653.916 328.423 653.916 328.572 653.934 328.72H660.133V331.704H650.641V329.127C650.641 322.986 657.15 321.978 657.15 315.953C657.189 314.036 656.53 313.493 655.484 313.493Z" fill="#92E3A9"/>
<path d="M667.302 313.493C666.256 313.493 665.597 314.055 665.597 315.547V317.775H662.497V315.837C662.497 312.486 664.183 310.587 667.399 310.587C670.615 310.587 672.281 312.524 672.281 315.837C672.281 322.385 665.752 324.846 665.752 328.275C665.733 328.423 665.733 328.572 665.752 328.72H671.951V331.704H662.458V329.127C662.458 322.986 668.968 321.978 668.968 315.953C669.007 314.036 668.348 313.493 667.302 313.493Z" fill="#92E3A9"/>
<path d="M661.316 394.511C665.264 394.511 668.464 391.31 668.464 387.362C668.464 383.414 665.264 380.214 661.316 380.214C657.368 380.214 654.167 383.414 654.167 387.362C654.167 391.31 657.368 394.511 661.316 394.511Z" fill="#92E3A9" stroke="#263238" stroke-linecap="round" stroke-linejoin="round"/>
<path d="M440.696 215.621C444.644 215.621 447.845 212.42 447.845 208.472C447.845 204.524 444.644 201.324 440.696 201.324C436.748 201.324 433.548 204.524 433.548 208.472C433.548 212.42 436.748 215.621 440.696 215.621Z" fill="#92E3A9" stroke="#263238" stroke-linecap="round" stroke-linejoin="round"/>
<path d="M542.056 384.979C542.052 386.392 541.629 387.773 540.841 388.946C540.054 390.119 538.936 391.032 537.629 391.57C536.323 392.108 534.886 392.247 533.5 391.969C532.115 391.691 530.843 391.009 529.845 390.008C528.847 389.008 528.169 387.734 527.894 386.348C527.62 384.961 527.763 383.525 528.304 382.22C528.846 380.915 529.762 379.799 530.937 379.015C532.113 378.23 533.494 377.811 534.907 377.811C535.847 377.811 536.778 377.997 537.647 378.357C538.516 378.718 539.305 379.246 539.969 379.912C540.633 380.578 541.159 381.368 541.517 382.238C541.875 383.107 542.058 384.039 542.056 384.979V384.979Z" fill="#92E3A9" stroke="#263238" stroke-linecap="round" stroke-linejoin="round"/>
<path d="M383.042 338.252C386.99 338.252 390.191 335.051 390.191 331.103C390.191 327.155 386.99 323.955 383.042 323.955C379.094 323.955 375.894 327.155 375.894 331.103C375.894 335.051 379.094 338.252 383.042 338.252Z" fill="#92E3A9" stroke="#263238" stroke-linecap="round" stroke-linejoin="round"/>
<path d="M412.702 511.039C412.702 512.457 412.282 513.843 411.494 515.021C410.707 516.2 409.587 517.119 408.277 517.661C406.967 518.204 405.526 518.346 404.136 518.069C402.745 517.793 401.468 517.11 400.466 516.108C399.463 515.105 398.781 513.828 398.504 512.438C398.227 511.047 398.369 509.606 398.912 508.296C399.454 506.986 400.373 505.867 401.552 505.079C402.731 504.291 404.117 503.871 405.534 503.871C407.435 503.871 409.258 504.626 410.603 505.971C411.947 507.315 412.702 509.138 412.702 511.039V511.039Z" fill="#92E3A9" stroke="#263238" stroke-linecap="round" stroke-linejoin="round"/>
<path d="M744.115 506.351C748.063 506.351 751.264 503.15 751.264 499.202C751.264 495.254 748.063 492.054 744.115 492.054C740.167 492.054 736.967 495.254 736.967 499.202C736.967 503.15 740.167 506.351 744.115 506.351Z" fill="#92E3A9" stroke="#263238" stroke-linecap="round" stroke-linejoin="round"/>
<path d="M780.75 286.158C784.698 286.158 787.898 282.957 787.898 279.009C787.898 275.061 784.698 271.861 780.75 271.861C776.802 271.861 773.601 275.061 773.601 279.009C773.601 282.957 776.802 286.158 780.75 286.158Z" fill="#92E3A9" stroke="#263238" stroke-linecap="round" stroke-linejoin="round"/>
<path d="M742.411 216.822C746.359 216.822 749.559 213.622 749.559 209.674C749.559 205.725 746.359 202.525 742.411 202.525C738.463 202.525 735.262 205.725 735.262 209.674C735.262 213.622 738.463 216.822 742.411 216.822Z" fill="#92E3A9" stroke="#263238" stroke-linecap="round" stroke-linejoin="round"/>
<path d="M761.919 394.976C761.919 396.394 761.498 397.781 760.71 398.96C759.921 400.139 758.801 401.058 757.49 401.6C756.179 402.142 754.736 402.283 753.345 402.005C751.954 401.727 750.677 401.042 749.676 400.038C748.674 399.033 747.993 397.754 747.718 396.362C747.444 394.971 747.589 393.529 748.134 392.219C748.68 390.91 749.601 389.792 750.783 389.006C751.964 388.221 753.352 387.804 754.77 387.808C755.711 387.808 756.642 387.993 757.511 388.354C758.379 388.714 759.168 389.243 759.832 389.909C760.496 390.574 761.022 391.365 761.38 392.234C761.738 393.104 761.922 394.035 761.919 394.976V394.976Z" fill="#92E3A9" stroke="#263238" stroke-linecap="round" stroke-linejoin="round"/>
<path d="M564.722 327.732C568.67 327.732 571.87 324.532 571.87 320.584C571.87 316.636 568.67 313.435 564.722 313.435C560.774 313.435 557.573 316.636 557.573 320.584C557.573 324.532 560.774 327.732 564.722 327.732Z" fill="#92E3A9" stroke="#263238" stroke-linecap="round" stroke-linejoin="round"/>
<path d="M152.291 633.689C152.291 633.689 156.65 682.122 158.103 692.292C159.556 702.463 153.26 708.759 146.964 715.54C140.667 722.32 138.246 736.366 138.246 747.021C138.246 757.676 136.793 810.952 136.793 814.342C136.793 817.732 135.824 825.966 135.824 825.966C135.824 825.966 151.323 825.481 153.26 825.481C155.197 825.481 162.462 797.875 164.399 790.126C166.337 782.377 181.351 733.46 187.163 719.899C192.974 706.338 192.974 696.167 195.396 690.839C197.818 685.512 200.724 641.923 200.724 641.923C200.724 641.923 226.877 687.933 227.846 694.23C228.814 700.526 229.299 701.979 226.877 707.306C224.455 712.634 219.128 722.32 219.612 743.146C220.097 763.972 231.527 800.82 231.527 800.82L232.98 823.583C232.98 823.583 241.697 826.973 246.056 828.91C250.415 830.848 257.196 820.677 257.196 820.677C257.196 820.677 256.905 803.687 256.421 791.094C255.937 778.502 259.327 732.976 261.264 725.226C263.201 717.477 266.107 700.526 264.17 689.871C262.233 679.216 255.937 630.299 255.937 630.299C255.937 630.299 182.319 634.658 173.117 633.205C163.915 631.752 151.807 631.268 151.807 631.268L152.291 633.689Z" fill="#263238" stroke="#263238" stroke-linecap="round" stroke-linejoin="round"/>
<path d="M161.978 809.499L164.884 824.513C164.884 824.513 176.992 834.684 181.835 838.558C186.678 842.433 189.584 841.464 189.584 844.854C189.584 848.245 186.194 853.572 177.961 855.025C169.727 856.478 158.588 854.541 149.385 851.635C144.151 850.111 139.481 847.079 135.96 842.917C135.96 842.917 130.884 844.099 130.884 838.287C130.884 832.475 135.069 819.301 135.069 819.301C135.069 819.301 133.132 812.095 135.069 811.126C137.006 810.157 143.574 817.248 143.574 817.248C143.574 817.248 144.542 800.297 161.978 809.499Z" fill="white" stroke="#263238" stroke-linecap="round" stroke-linejoin="round"/>
<path d="M189.332 846.521C188.337 846.22 187.269 846.274 186.31 846.676C181.008 849.666 175.048 851.295 168.962 851.417C162.877 851.538 156.856 850.149 151.439 847.373C140.028 841.91 134.197 836.427 131.465 833.211C131.115 834.902 130.914 836.62 130.865 838.345C130.865 844.157 135.94 842.975 135.94 842.975C139.475 847.119 144.151 850.131 149.385 851.635C158.587 854.541 169.727 856.478 177.96 855.025C184.935 853.785 188.422 849.775 189.332 846.521Z" fill="#D2F4DC" stroke="#263238" stroke-linecap="round" stroke-linejoin="round"/>
<path d="M261.438 809.053C260.037 808.79 258.588 808.995 257.314 809.635C256.04 810.276 255.011 811.317 254.387 812.599C252.217 817.151 250.047 823.234 250.047 823.234C246.389 822.898 242.766 822.25 239.218 821.297C237.575 820.378 236.106 819.178 234.878 817.752C234.878 817.752 230.539 809.15 227.826 812.192C225.114 815.233 230.539 825.346 230.539 825.346C230.539 825.346 226.199 833.444 226.199 838.52C226.322 841.992 227.056 845.415 228.369 848.632C233.529 849.811 238.79 850.492 244.08 850.666C251.132 850.666 251.674 848.632 259.269 848.632C266.863 848.632 286.391 853.185 292.881 851.674C299.371 850.163 305.357 845.591 304.814 842.569C304.272 839.546 282.032 831.933 274.98 827.38C267.928 822.828 266.863 823.331 265.778 821.297C264.693 819.263 261.438 809.053 261.438 809.053Z" fill="white" stroke="#263238" stroke-linecap="round" stroke-linejoin="round"/>
<path d="M304.834 842.917C297.356 850.473 287.398 849.31 278.952 847.606C268.563 845.24 257.898 844.315 247.257 844.855C240.49 845.243 233.701 845.016 226.974 844.176C227.329 845.656 227.796 847.107 228.369 848.516C233.529 849.695 238.79 850.376 244.08 850.55C251.132 850.55 251.674 848.516 259.269 848.516C266.863 848.516 286.391 853.069 292.881 851.558C299.061 850.124 304.737 845.959 304.834 842.917Z" fill="#92E3A9" stroke="#263238" stroke-linecap="round" stroke-linejoin="round"/>
<path d="M141.152 616.254L139.699 637.874C139.699 637.874 176.023 646.107 206.051 645.255C236.079 644.403 268.045 631.81 268.045 631.81L261.748 609.26C261.748 609.26 195.396 608.834 182.319 607.962C169.242 607.09 161.009 597.985 156.166 599.283C151.323 600.581 145.511 615.769 145.511 615.769L141.152 616.254Z" fill="white" stroke="#263238" stroke-linecap="round" stroke-linejoin="round"/>
<path d="M261.748 593.49L266.107 615.769C266.107 615.769 256.905 621.097 228.814 623.518C200.724 625.94 164.884 622.55 164.884 622.55L158.103 608.02L155.681 624.971H141.636C140.28 625.007 138.941 624.672 137.761 624.003L142.12 606.083C142.12 606.083 144.058 588.163 153.26 583.804C162.462 579.445 170.211 584.288 176.507 590.1C182.804 595.912 190.068 594.943 200.239 594.943C210.41 594.943 253.515 590.584 253.515 590.584C253.515 590.584 260.78 588.163 261.748 593.49Z" fill="#969696" stroke="#263238" stroke-linecap="round" stroke-linejoin="round"/>
<path d="M247.219 428.82C247.219 428.82 264.654 473.378 271.919 489.361C279.184 505.343 285.965 523.748 284.996 533.919C284.027 544.089 271.919 570.727 271.919 570.727C271.919 570.727 260.295 494.204 257.874 486.455C255.452 478.706 244.313 435.601 244.313 435.601C244.313 435.601 239.469 426.399 247.219 428.82Z" fill="#92E3A9" stroke="#263238" stroke-linecap="round" stroke-linejoin="round"/>
<path d="M152.117 411.927C152.117 411.927 141.946 422.485 138.808 435.388C135.669 448.29 133.344 609.376 133.344 612.108C133.344 614.839 144.968 608.582 147.409 607.42C149.85 606.257 159.537 587.872 159.537 587.872L164.225 606.625C164.225 606.625 185.729 604.281 203.726 604.281C221.724 604.281 269.013 599.98 269.013 599.98C269.013 599.98 273.314 573.788 272.888 559.704C272.462 545.62 269.498 523.36 269.498 519.834C269.498 516.309 254.639 442.033 249.175 431.087C243.712 420.141 236.66 410.358 235.479 409.583C234.297 408.808 220.232 400.575 206.942 399.897C193.652 399.218 184.663 395.596 172.923 401.078C161.183 406.561 152.117 411.927 152.117 411.927Z" fill="#92E3A9" stroke="#263238" stroke-linecap="round" stroke-linejoin="round"/>
<path d="M228.349 460.011C228.349 460.011 234.994 498.33 236.951 511.233C238.908 524.135 243.208 574.563 243.208 582.002V599.593" stroke="#263238" stroke-linecap="round" stroke-linejoin="round"/>
<path d="M216.629 476.439C216.629 476.439 224.048 514.759 227.962 537.813C231.875 560.866 230.752 593.723 230.752 593.723" stroke="#263238" stroke-linecap="round" stroke-linejoin="round"/>
<path d="M174.396 479.558L208.027 476.439L209.19 483.859L176.74 486.59" stroke="#263238" stroke-linecap="round" stroke-linejoin="round"/>
<path d="M258.455 471.731L238.907 473.301L240.477 479.946L257.68 478.396" stroke="#263238" stroke-linecap="round" stroke-linejoin="round"/>
<path d="M202.157 376.726C202.157 376.726 184.16 373.22 178.696 375.564C173.233 377.908 168.138 387.285 166.569 390.423C165 393.561 148.591 400.11 147.409 404.875C146.227 409.641 147.022 417.39 148.978 419.347C150.935 421.304 162.268 420.529 165.019 421.284C167.77 422.04 204.501 446.314 210.759 450.227C217.016 454.141 227.962 459.604 229.531 457.977C231.1 456.349 240.864 432.211 242.375 420.916C243.886 409.622 241.968 406.832 236.893 397.455C231.817 388.079 211.534 377.966 202.157 376.726Z" fill="#263238" stroke="#263238" stroke-linecap="round" stroke-linejoin="round"/>
<path d="M196.675 345.846C196.675 345.846 199.426 363.049 199.426 367.737C199.426 372.426 192.006 394.724 192.006 394.724C192.006 394.724 206.865 426.786 215.079 435.775C223.293 444.764 227.207 446.721 227.207 446.721C227.207 446.721 228.369 428.336 229.551 419.734C230.732 411.133 243.112 385.987 243.112 385.987C243.112 385.987 224.494 388.854 222.15 376.727C219.806 364.599 220.581 354.06 218.276 347.803C215.97 341.545 201.382 343.095 196.675 345.846Z" fill="white" stroke="#263238" stroke-linecap="round" stroke-linejoin="round"/>
<path d="M223.099 380.233L214.168 378.567L214.905 386.316C214.905 386.316 220.407 400.633 230.694 407.975C231.231 408.358 231.787 408.714 232.36 409.041C234.491 402.88 243.054 386.025 243.054 386.025C243.054 386.025 226.877 390.481 223.099 380.233Z" fill="#263238" stroke="#263238" stroke-linecap="round" stroke-linejoin="round"/>
<path d="M254.561 341.041L253.941 351.774C253.941 351.774 263.628 358.787 264.596 362.177C265.565 365.568 259.908 369.927 259.908 369.927C259.908 369.927 259.036 388.447 257.428 391.353C255.82 394.259 247.742 394.491 243.286 394.53C238.83 394.569 216.726 388.215 212.909 384.844C209.093 381.473 204.482 369.345 204.482 369.345C204.482 369.345 199.6 352.045 198.845 349.411C198.089 346.776 200.782 343.172 212.406 339.511C224.029 335.849 255.181 336.004 254.561 341.041Z" fill="white" stroke="#263238" stroke-linecap="round" stroke-linejoin="round"/>
<path d="M202.312 353.653C202.312 353.653 204.986 359.62 210.061 355.862C213.248 353.079 215.376 349.281 216.086 345.11L186.484 353.13C186.484 353.13 184.179 365.18 188.829 370.915C193.478 376.649 200.259 373.394 199.871 368.474C199.484 363.553 202.312 353.653 202.312 353.653Z" fill="#263238" stroke="#263238" stroke-linecap="round" stroke-linejoin="round"/>
<path d="M251.83 376.029C251.83 376.029 245.378 376.223 241.581 372.813" stroke="#263238" stroke-linecap="round" stroke-linejoin="round"/>
<path d="M244.817 352.53C245.32 354.292 245.049 355.92 244.216 356.152C243.383 356.385 242.279 355.145 241.794 353.382C241.31 351.619 241.581 349.992 242.414 349.759C243.247 349.527 244.313 350.844 244.817 352.53Z" fill="#263238"/>
<path d="M186 354.312C186 354.312 203.436 351.406 224.533 345.459C245.63 339.511 254.793 336.101 254.793 336.101L245.378 306.383C244.244 303.782 242.168 301.705 239.566 300.571C233.541 297.859 221.026 298.479 212.018 299.874C199.174 301.811 189.235 305.511 184.102 314.675C180.138 322.156 179.115 330.849 181.234 339.046C182.649 343.87 186 354.312 186 354.312Z" fill="#263238" stroke="#263238" stroke-linecap="round" stroke-linejoin="round"/>
<path d="M217.384 347.473C217.384 347.473 249.408 345.749 261.651 343.114C273.895 340.48 283.988 325.834 283.988 325.834L254.658 329.708C240.683 331.593 227.649 337.805 217.384 347.473V347.473Z" fill="#263238" stroke="#263238" stroke-linecap="round" stroke-linejoin="round"/>
<path d="M205.218 356.191C205.218 356.191 202.506 348.016 195.532 350.786C188.557 353.556 192.413 367.117 197.604 372.542C202.796 377.966 209.228 370.488 209.228 370.488" fill="white"/>
<path d="M205.218 356.191C205.218 356.191 202.506 348.016 195.532 350.786C188.557 353.556 192.413 367.117 197.604 372.542C202.796 377.966 209.228 370.488 209.228 370.488" stroke="#263238" stroke-linecap="round" stroke-linejoin="round"/>
<path d="M239.295 521.326L273.372 495.851C273.602 495.685 273.885 495.609 274.166 495.638L298.053 497.924C298.343 497.954 298.616 498.075 298.834 498.269C299.051 498.463 299.203 498.72 299.267 499.004C299.331 499.288 299.304 499.585 299.191 499.854C299.078 500.122 298.883 500.348 298.635 500.5L268.258 518.653L239.295 521.326Z" fill="#263238" stroke="#263238" stroke-linecap="round" stroke-linejoin="round"/>
<path d="M218.178 522.954C221.515 522.646 224.669 521.289 227.187 519.079C230.693 515.553 236.873 504.995 239.682 504.22C246.131 502.789 252.658 501.741 259.23 501.081C261.981 501.081 263.53 503.019 261.167 505.382C258.803 507.746 247.877 512.821 247.877 512.821L246.715 516.696C246.715 516.696 276.414 513.19 278.777 513.19C279.782 513.258 280.729 513.688 281.441 514.4C282.154 515.112 282.584 516.059 282.652 517.064C282.652 518.614 276.394 523.322 274.457 525.259C269.607 529.354 264.509 533.146 259.191 536.611C256.459 538.161 228.31 535.817 227.148 535.817C225.986 535.817 217.752 537.754 217.752 537.754L218.178 522.954Z" fill="white" stroke="#263238" stroke-linecap="round" stroke-linejoin="round"/>
<path d="M279.184 520.609C279.184 520.609 266.669 523.36 263.938 524.91C261.206 526.46 251.81 524.91 251.81 524.91" stroke="#263238" stroke-linecap="round" stroke-linejoin="round"/>
<path d="M270.176 528.436L261.574 531.168L252.585 531.555" stroke="#263238" stroke-linecap="round" stroke-linejoin="round"/>
<path d="M173.621 448.678C174.008 455.71 165.407 498.331 165.407 498.331L167.344 504.588V506.157L221.685 520.997C221.685 520.997 221.685 535.856 219.341 542.501C217.505 548.528 216.069 554.67 215.04 560.886C215.04 560.886 191.192 555.074 171.645 548.371C152.097 541.668 121.585 531.962 115.734 525.298C109.884 518.633 113.39 501.856 114.165 499.105C114.94 496.355 136.831 438.894 141.132 431.087C145.433 423.28 151.691 415.841 159.905 418.185C168.119 420.529 174.376 431.087 175.151 435.775" fill="#92E3A9"/>
<path d="M173.621 448.678C174.008 455.71 165.407 498.331 165.407 498.331L167.344 504.588V506.157L221.685 520.997C221.685 520.997 221.685 535.856 219.341 542.501C217.505 548.528 216.069 554.67 215.04 560.886C215.04 560.886 191.192 555.074 171.645 548.371C152.097 541.668 121.585 531.962 115.734 525.298C109.884 518.633 113.39 501.856 114.165 499.105C114.94 496.355 136.831 438.894 141.132 431.087C145.433 423.28 151.691 415.841 159.905 418.185C168.119 420.529 174.376 431.087 175.151 435.775" stroke="#263238" stroke-linecap="round" stroke-linejoin="round"/>
<path d="M138.091 507.494C141.072 505.729 144.203 504.231 147.448 503.019C150.974 502.244 164.651 505.363 164.651 505.363" stroke="#263238" stroke-linecap="round" stroke-linejoin="round"/>
<path d="M126.7 513.964C126.7 513.964 129.993 512.027 134.003 509.76" stroke="#263238" stroke-linecap="round" stroke-linejoin="round"/>
<path d="M151.109 494.417C149.19 493.505 147.157 492.853 145.065 492.48C142.334 492.48 130.206 498.292 130.206 498.292" stroke="#263238" stroke-linecap="round" stroke-linejoin="round"/>
<path d="M161.493 499.105C161.493 499.105 159.246 498.02 156.379 496.722" stroke="#263238" stroke-linecap="round" stroke-linejoin="round"/>
</svg>
