<svg width="817" height="760" viewBox="0 0 817 760" fill="none" xmlns="http://www.w3.org/2000/svg">
<path d="M582.284 759.546C646.616 759.546 698.768 751.636 698.768 741.879C698.768 732.122 646.616 724.213 582.284 724.213C517.951 724.213 465.8 732.122 465.8 741.879C465.8 751.636 517.951 759.546 582.284 759.546Z" fill="#92E3A9"/>
<path opacity="0.5" d="M582.284 759.546C646.616 759.546 698.768 751.636 698.768 741.879C698.768 732.122 646.616 724.213 582.284 724.213C517.951 724.213 465.8 732.122 465.8 741.879C465.8 751.636 517.951 759.546 582.284 759.546Z" fill="white"/>
<path d="M227.218 733.851C275.582 733.851 314.788 725.942 314.788 716.185C314.788 706.428 275.582 698.518 227.218 698.518C178.855 698.518 139.649 706.428 139.649 716.185C139.649 725.942 178.855 733.851 227.218 733.851Z" fill="#92E3A9"/>
<path opacity="0.5" d="M227.218 733.851C275.582 733.851 314.788 725.942 314.788 716.185C314.788 706.428 275.582 698.518 227.218 698.518C178.855 698.518 139.649 706.428 139.649 716.185C139.649 725.942 178.855 733.851 227.218 733.851Z" fill="white"/>
<path d="M184.641 670.303L229.231 651.747C226.117 646.642 223.003 649.056 219.021 640.795C216.903 636.559 218.767 629.738 216.098 624.273C213.979 619.803 207.391 616.964 204.85 611.838C202.541 607.22 204.214 600.336 201.715 595.358C199.215 590.38 192.797 587.923 190.297 583.072C187.797 578.221 189.429 571.4 186.908 566.634C184.387 561.868 177.799 559.241 175.278 554.539C172.758 549.836 174.092 542.783 171.508 538.186C168.924 533.589 162.124 530.92 159.518 526.493C156.595 521.536 157.676 514.525 154.985 510.309C151.702 505.183 144.86 503.319 142.085 499.718C136.874 492.94 134.078 485.483 131.494 485.992C128.909 486.5 131.155 493.999 132.574 502.938C133.294 507.386 129.947 513.529 131.43 519.481C132.616 524.269 138.463 528.251 140.073 533.716C141.492 538.609 138.653 545.07 140.327 550.345C142 555.619 147.889 558.987 149.605 564.135C151.321 569.282 148.631 575.7 150.368 580.763C152.105 585.826 158.205 589.363 159.963 594.341C161.721 599.319 159.243 606.034 161.022 610.949C162.802 615.863 169.051 619.591 170.809 624.4C172.779 629.716 170.343 636.326 172.08 640.965C174.198 646.599 180.405 650.031 182.036 654.289C185.573 663.588 180.595 663.418 183.519 670.875L184.641 670.303Z" fill="#2E353A"/>
<path d="M136.62 501.01L202.922 660.283" stroke="white" stroke-width="0.360849" stroke-miterlimit="10"/>
<path d="M150.537 514.821L145.877 524.099L136.641 518.656" stroke="white" stroke-width="0.360849" stroke-miterlimit="10"/>
<path d="M162.06 542.528L157.421 551.828L148.186 546.384" stroke="white" stroke-width="0.360849" stroke-miterlimit="10"/>
<path d="M172.927 568.604L168.288 577.904L159.031 572.46" stroke="white" stroke-width="0.360849" stroke-miterlimit="10"/>
<path d="M185.849 599.616L181.189 608.915L171.953 603.471" stroke="white" stroke-width="0.360849" stroke-miterlimit="10"/>
<path d="M198.897 630.966L194.258 640.266L185.022 634.822" stroke="white" stroke-width="0.360849" stroke-miterlimit="10"/>
<path d="M179.6 657.996L252.341 655.687C250.668 646.832 245.012 648.569 243.868 634.822C243.275 627.874 249.418 619.083 248.571 609.974C247.872 602.476 240.225 595.019 239.378 586.44C238.615 578.709 244.652 569.897 243.784 561.551C242.936 553.671 235.183 546.32 234.273 538.144C233.362 529.967 239.272 521.197 238.297 513.169C237.323 505.141 229.422 497.896 228.363 489.868C227.303 481.84 232.98 472.668 231.794 464.83C230.566 456.526 222.474 449.557 221.203 441.91C219.741 433.437 225.016 424.074 223.469 416.745C221.584 407.743 212.878 401.451 210.972 394.842C207.286 382.514 207.307 370.503 203.388 369.847C199.469 369.19 198.622 380.925 195.889 394.164C194.513 400.816 186.484 407.764 185.425 416.872C184.557 424.244 190.657 432.971 189.979 441.508C189.365 449.176 181.93 456.759 181.506 465.063C181.061 472.901 187.565 481.31 187.204 489.487C186.844 497.663 179.663 505.226 179.409 513.296C179.155 521.367 185.764 529.586 185.658 537.55C185.552 545.515 178.392 553.649 178.265 561.508C178.138 569.812 184.959 577.967 184.874 585.678C184.874 594.151 177.842 602.243 177.821 609.72C177.821 618.765 184.684 626.899 184.705 633.805C184.705 648.76 177.799 645.879 177.926 657.932L179.6 657.996Z" fill="#2E353A"/>
<path d="M202.456 393.868L210.738 653.653" stroke="white" stroke-width="0.543628" stroke-miterlimit="10"/>
<path d="M214.678 420.749L203.155 431.34L193.051 418.737" stroke="white" stroke-width="0.543628" stroke-miterlimit="10"/>
<path d="M216.119 465.953L204.595 476.565L194.491 463.961" stroke="white" stroke-width="0.543628" stroke-miterlimit="10"/>
<path d="M217.475 508.488L205.951 519.079L195.847 506.475" stroke="white" stroke-width="0.543628" stroke-miterlimit="10"/>
<path d="M219.084 559.072L207.561 569.685L197.478 557.081" stroke="white" stroke-width="0.543628" stroke-miterlimit="10"/>
<path d="M220.715 610.207L209.192 620.82L199.088 608.216" stroke="white" stroke-width="0.543628" stroke-miterlimit="10"/>
<path d="M223.405 494.592C227.134 497.155 237.174 498.828 237.195 498.828C237.217 498.828 236.306 491.88 236.2 491.436C234.887 486.415 229.421 477.497 223.639 477.18C222.675 477.15 221.716 477.324 220.824 477.689C219.932 478.055 219.127 478.604 218.462 479.302C217.796 479.999 217.285 480.829 216.962 481.737C216.638 482.645 216.51 483.611 216.585 484.572C216.754 488.703 220.207 492.389 223.405 494.592Z" fill="#2E353A"/>
<path d="M324.087 516.389C324.087 516.389 327.201 510.034 327.35 509.674C329.023 504.781 329.468 494.316 324.744 490.843C323.956 490.288 323.06 489.905 322.115 489.719C321.169 489.534 320.195 489.549 319.256 489.765C318.317 489.981 317.433 490.392 316.664 490.972C315.894 491.552 315.255 492.287 314.788 493.13C312.67 496.647 313.517 501.603 314.958 505.204C316.758 509.42 324.087 516.389 324.087 516.389Z" fill="#2E353A"/>
<path d="M360.966 485.949C355.417 484.255 347.176 490.694 344.211 494.952C343.957 495.312 340.589 501.519 340.695 501.54H340.822C339.508 502.535 338.131 503.658 336.585 504.865C333.852 507.153 330.76 509.78 327.604 512.851C324.165 516.121 320.919 519.587 317.881 523.231C314.466 527.303 311.418 531.67 308.772 536.279V536.449C309.132 534.797 309.958 530.094 309.98 529.755C310.297 524.587 307.861 514.398 302.481 512.279C301.572 511.948 300.603 511.813 299.638 511.883C298.673 511.952 297.734 512.225 296.882 512.683C296.03 513.141 295.284 513.774 294.694 514.54C294.104 515.307 293.682 516.189 293.457 517.13C292.355 521.07 294.495 525.603 296.825 528.717C299.473 532.191 307.798 536.682 308.476 537.042C305.898 541.83 303.641 546.784 301.718 551.87C300.596 554.814 299.6 557.801 298.52 560.83C298.774 559.39 299.007 558.077 299.007 557.907C299.325 552.738 296.889 542.55 291.529 540.431C290.623 540.103 289.658 539.97 288.697 540.04C287.735 540.11 286.8 540.382 285.95 540.837C285.101 541.293 284.357 541.922 283.767 542.685C283.178 543.447 282.755 544.325 282.527 545.261C281.404 549.201 283.543 553.734 285.874 556.848C288.204 559.962 295.279 563.944 297.164 564.961L296.02 568.456C294.22 574.027 292.461 579.619 290.576 585.042C289.898 586.949 289.178 588.813 288.458 590.656C288.67 589.385 288.86 588.283 288.882 588.135C289.199 582.945 286.763 572.777 281.383 570.659C280.477 570.328 279.511 570.192 278.548 570.26C277.586 570.329 276.649 570.6 275.799 571.056C274.949 571.512 274.205 572.143 273.615 572.907C273.026 573.671 272.605 574.551 272.38 575.489C271.279 579.429 273.397 583.962 275.748 587.076C278.1 590.19 284.476 593.791 286.679 595.019C285.895 596.883 285.09 598.79 284.242 600.569C283.628 601.776 283.12 602.984 282.442 604.17C281.764 605.356 281.15 606.521 280.514 607.665C279.201 609.784 277.845 612.114 276.511 614.232C275.6 615.694 274.71 617.07 273.799 618.469C274.477 616.562 275.748 612.834 275.918 612.516C276.716 608.03 276.351 603.413 274.859 599.107C274.981 598.608 275.052 598.097 275.07 597.582C275.134 596.621 274.994 595.656 274.66 594.752C274.326 593.848 273.805 593.025 273.132 592.336C272.458 591.646 271.647 591.106 270.751 590.751C269.855 590.396 268.895 590.234 267.932 590.274C262.149 590.677 256.768 599.658 255.54 604.679C255.54 604.975 255.032 608.28 254.777 610.377C254.777 609.127 254.777 607.92 254.65 606.627C254.65 604.085 254.354 601.544 254.184 598.811C254.036 597.498 253.909 596.163 253.761 594.829C253.612 593.494 253.379 592.096 253.189 590.719C252.68 587.521 252.002 584.364 251.24 581.102C253.485 581.102 261.386 580.551 264.86 578.814C268.334 577.077 272.253 573.921 273.016 569.896C273.224 568.955 273.231 567.981 273.038 567.037C272.844 566.093 272.454 565.2 271.892 564.416C271.331 563.633 270.611 562.977 269.779 562.49C268.947 562.004 268.021 561.698 267.063 561.593C261.28 561.106 254.629 569.176 252.638 573.942C252.511 574.26 251.473 577.84 250.922 579.831C250.456 577.904 250.011 575.976 249.482 574.027C247.935 568.456 246.198 562.843 244.482 557.229L242.957 552.082C243.741 552.082 253.167 551.722 257.065 549.773C260.518 548.057 264.458 544.88 265.199 540.855C265.411 539.915 265.421 538.941 265.231 537.997C265.04 537.053 264.652 536.16 264.092 535.376C263.532 534.592 262.813 533.935 261.982 533.449C261.15 532.962 260.226 532.656 259.268 532.551C253.485 532.064 246.813 540.135 244.821 544.922C244.673 545.282 243.169 550.451 242.851 551.785C241.75 547.994 240.733 544.223 239.759 540.452C238.495 535.372 237.568 530.213 236.984 525.01C237.344 525.01 247.173 524.692 251.176 522.701C254.629 520.985 258.569 517.808 259.31 513.783C259.522 512.844 259.533 511.87 259.342 510.926C259.151 509.981 258.763 509.088 258.203 508.304C257.643 507.52 256.924 506.864 256.093 506.377C255.261 505.89 254.337 505.584 253.379 505.48C247.596 504.993 240.924 513.063 238.933 517.829C238.806 518.147 237.662 522.066 237.153 523.972H236.836C236.369 518.722 236.369 513.441 236.836 508.191C237.069 505.31 237.45 502.557 237.873 499.887C239.716 500.015 248.126 500.523 251.918 499.125C255.709 497.727 259.798 495.079 260.984 491.16C261.296 490.247 261.412 489.279 261.324 488.318C261.237 487.358 260.948 486.426 260.476 485.585C260.004 484.743 259.361 484.011 258.587 483.435C257.813 482.859 256.926 482.452 255.985 482.242C250.287 481.12 242.788 488.406 240.288 492.94C240.14 493.194 239.039 495.842 238.17 497.79C238.382 496.604 238.572 495.354 238.806 494.211C239.653 489.974 240.691 486.013 241.644 482.581C242.195 480.632 242.724 478.874 243.254 477.243C245.118 476.417 252.617 473.007 255.286 470.126C257.955 467.245 260.412 462.902 259.671 458.857C259.523 457.912 259.18 457.009 258.663 456.205C258.147 455.401 257.468 454.714 256.67 454.187C255.872 453.661 254.974 453.307 254.031 453.148C253.089 452.989 252.124 453.029 251.197 453.264C245.648 454.895 242.343 464.809 242.195 469.999C242.195 470.443 242.809 477.455 242.915 477.413C242.385 478.98 241.813 480.654 241.263 482.518C240.225 485.928 239.144 489.804 238.17 494.126C237.102 498.749 236.31 503.432 235.798 508.149C235.181 513.428 235.046 518.753 235.395 524.057C235.385 524.12 235.385 524.185 235.395 524.248C234.76 522.68 232.874 518.316 232.684 517.999C230.121 513.508 222.474 506.327 216.818 507.534C215.881 507.763 215.003 508.186 214.24 508.775C213.478 509.365 212.847 510.108 212.39 510.957C211.933 511.806 211.659 512.741 211.586 513.702C211.513 514.663 211.643 515.629 211.967 516.537C213.217 520.435 217.517 523.083 221.16 524.354C225.291 525.794 234.717 524.947 235.459 524.862C235.934 530.258 236.776 535.616 237.979 540.897C238.636 543.969 239.42 547.061 240.246 550.133C239.653 548.777 239.123 547.591 239.039 547.422C236.454 542.931 228.828 535.771 223.151 536.978C222.213 537.204 221.333 537.625 220.568 538.214C219.804 538.803 219.172 539.546 218.714 540.396C218.257 541.245 217.983 542.182 217.912 543.144C217.841 544.107 217.973 545.073 218.301 545.981C219.55 549.879 223.85 552.505 227.515 553.798C231.18 555.09 239.272 554.518 241.39 554.348C241.729 555.513 242.025 556.7 242.364 557.865C243.953 563.52 245.563 569.155 246.961 574.705C247.469 576.675 247.872 578.624 248.295 580.573C247.787 579.386 247.342 578.454 247.257 578.221C244.673 573.731 237.047 566.571 231.37 567.778C230.434 568.007 229.556 568.43 228.793 569.019C228.03 569.609 227.4 570.352 226.943 571.201C226.485 572.049 226.211 572.984 226.138 573.946C226.066 574.907 226.195 575.873 226.52 576.781C227.769 580.678 232.069 583.326 235.734 584.597C239.399 585.868 246.707 585.381 249.227 585.169C249.609 587.182 249.99 589.194 250.244 591.164C250.414 592.498 250.647 593.791 250.731 595.146C250.816 596.502 250.943 597.815 251.049 599.15C251.176 601.692 251.303 604.318 251.346 606.797C251.346 608.534 251.346 610.186 251.346 611.838C250.88 609.89 249.884 606.077 249.757 605.759C247.893 600.929 241.432 592.689 235.649 593.049C234.689 593.133 233.758 593.417 232.914 593.883C232.071 594.35 231.335 594.988 230.754 595.757C230.173 596.525 229.76 597.407 229.541 598.346C229.323 599.284 229.304 600.258 229.485 601.205C230.142 605.251 233.976 608.513 237.407 610.334C241.157 612.326 250.244 612.94 251.367 613.003C251.367 615.757 251.367 618.426 251.367 620.947C251.24 628.869 250.858 635.563 250.498 640.52L254.332 641.282C254.587 636.198 254.841 629.229 254.82 620.968C254.82 618.172 254.82 615.206 254.65 612.135C257.515 611.602 260.345 610.894 263.123 610.017C265.432 613.745 272.19 618.892 273.058 619.549C271.554 621.858 270.071 624.082 268.652 626.158C264.204 632.619 260.179 637.935 257.192 641.875L261.429 642.68C264.246 638.825 267.783 633.89 271.533 628.064C273.079 625.734 274.668 623.213 276.278 620.608C277.316 621.032 285.725 624.527 289.983 624.4C293.859 624.273 298.753 623.044 301.125 619.697C301.707 618.931 302.121 618.052 302.341 617.116C302.561 616.18 302.582 615.208 302.402 614.263C302.222 613.318 301.846 612.422 301.298 611.632C300.749 610.842 300.041 610.176 299.219 609.678C294.156 606.818 284.73 611.351 280.917 614.846C280.684 615.058 278.502 617.579 277.146 619.083C277.803 618.002 278.438 616.965 279.095 615.863C280.43 613.745 281.679 611.478 283.035 609.106L284.878 605.547C285.535 604.382 286.064 603.047 286.657 601.798C287.992 598.853 289.199 595.803 290.343 592.71C292.271 593.875 299.113 597.858 303.053 598.324C306.993 598.79 311.928 598.324 314.767 595.379C315.461 594.711 316.007 593.903 316.368 593.01C316.73 592.117 316.899 591.157 316.865 590.194C316.831 589.231 316.595 588.286 316.171 587.42C315.747 586.554 315.146 585.787 314.407 585.169C309.852 581.568 299.833 584.618 295.533 587.52C295.279 587.69 292.419 590.105 290.873 591.461C291.551 589.596 292.228 587.754 292.864 585.826C294.643 580.318 296.295 574.684 297.969 569.07C298.477 567.355 299.007 565.639 299.536 563.944C300.214 564.347 308.243 569.261 312.564 569.791C316.419 570.257 321.439 569.791 324.278 566.846C324.972 566.178 325.518 565.37 325.879 564.477C326.241 563.583 326.41 562.624 326.376 561.661C326.342 560.698 326.106 559.752 325.682 558.887C325.258 558.021 324.657 557.254 323.918 556.636C319.364 553.035 309.344 556.085 305.044 558.987C304.726 559.199 300.617 562.694 299.621 563.626C300.765 559.856 301.951 556.107 303.286 552.463C305.033 547.533 307.1 542.721 309.471 538.059C309.789 538.249 318.156 543.418 322.583 543.948C326.439 544.435 331.459 543.948 334.297 541.003C334.992 540.335 335.537 539.527 335.899 538.634C336.26 537.741 336.429 536.781 336.395 535.818C336.361 534.855 336.125 533.909 335.701 533.044C335.278 532.178 334.677 531.411 333.937 530.793C329.383 527.213 319.363 530.264 315.063 533.144C314.788 533.335 311.653 535.983 310.191 537.381L309.937 537.169C312.459 532.541 315.386 528.146 318.686 524.036C320.465 521.769 322.308 519.672 324.13 517.681C325.591 518.782 332.327 523.845 336.267 524.777C340.207 525.709 345.079 525.73 348.236 523.125C348.998 522.535 349.627 521.791 350.082 520.942C350.538 520.093 350.81 519.157 350.88 518.196C350.949 517.235 350.816 516.27 350.488 515.363C350.161 514.457 349.646 513.63 348.977 512.936C344.846 508.869 334.573 510.818 329.913 513.19C329.658 513.339 327.265 514.927 325.549 516.135C326.375 515.245 327.222 514.313 328.048 513.487C331.141 510.373 334.149 507.683 336.839 505.353C338.364 504.018 339.784 502.853 341.076 501.794C343.088 502.133 351.201 503.446 355.035 502.493C358.869 501.54 363.318 499.294 364.906 495.524C365.342 494.646 365.585 493.685 365.62 492.705C365.654 491.726 365.479 490.75 365.106 489.844C364.733 488.937 364.171 488.121 363.457 487.449C362.743 486.778 361.894 486.266 360.966 485.949Z" fill="#2E353A"/>
<path d="M308.56 639.651H150.897V660.516H308.56V639.651Z" fill="#2E353A"/>
<path d="M283.777 720.506H175.66L162.145 658.207H297.291L283.777 720.506Z" fill="#2E353A"/>
<path d="M152.231 323.944L150.643 474.214C150.643 474.214 144.288 477.413 126.664 477.413C109.04 477.413 102.685 474.214 102.685 474.214L109.04 413.462C109.04 413.462 86.6919 408.675 86.6919 402.32C86.6919 395.965 136.238 220.148 136.238 220.148C136.238 220.148 161.827 264.78 152.231 323.944Z" fill="#92E3A9" stroke="#2E353A" stroke-miterlimit="10"/>
<path d="M109.061 413.441L129.778 317.695" stroke="#2E353A" stroke-miterlimit="10"/>
<path d="M117.068 220.021C117.068 220.021 145.834 258.383 149.033 274.376C152.231 290.369 152.231 323.944 152.231 323.944C161.612 300.413 167.534 275.647 169.813 250.418C173.012 210.447 141.047 189.666 141.047 189.666L117.068 220.021Z" fill="#2E353A" stroke="#2E353A" stroke-miterlimit="10"/>
<path d="M657.631 323.944L659.22 474.214C659.22 474.214 665.575 477.413 683.199 477.413C700.823 477.413 707.177 474.214 707.177 474.214L700.823 413.462C700.823 413.462 723.17 408.675 723.17 402.32C723.17 395.965 673.603 220.148 673.603 220.148C673.603 220.148 648.035 264.78 657.631 323.944Z" fill="#92E3A9" stroke="#2E353A" stroke-miterlimit="10"/>
<path d="M700.78 413.441L681.567 302.104" stroke="#2E353A" stroke-miterlimit="10"/>
<path d="M692.794 220.021C692.794 220.021 664.007 258.383 660.808 274.376C657.609 290.369 657.631 323.922 657.631 323.922C648.237 300.395 642.307 275.628 640.028 250.397C636.829 210.425 668.815 189.645 668.815 189.645L692.794 220.021Z" fill="#2E353A" stroke="#2E353A" stroke-miterlimit="10"/>
<path d="M692.561 220.021C605.425 168.488 506.049 141.301 404.814 141.301C303.58 141.301 204.204 168.488 117.068 220.021L66.6107 134.697C62.9885 128.639 66.3989 119.869 74.3424 115.505C175.33 59.0505 289.097 29.4096 404.793 29.4096C520.49 29.4096 634.257 59.0505 735.244 115.505C743.166 119.933 746.598 128.639 742.976 134.697L692.561 220.021Z" fill="#92E3A9"/>
<path d="M692.561 220.021C605.425 168.488 506.049 141.301 404.814 141.301C303.58 141.301 204.204 168.488 117.068 220.021L66.6107 134.697C62.9885 128.639 66.3989 119.869 74.3424 115.505C175.33 59.0505 289.097 29.4096 404.793 29.4096C520.49 29.4096 634.257 59.0505 735.244 115.505C743.166 119.933 746.598 128.639 742.976 134.697L692.561 220.021Z" stroke="#2E353A" stroke-miterlimit="10"/>
<path d="M165.009 113.901C164.258 114.141 163.588 114.156 162.999 113.946C162.438 113.727 161.893 113.272 161.366 112.583L144.742 90.7104C144.151 89.9181 143.966 89.149 144.187 88.4032C144.437 87.6485 145.076 87.1063 146.105 86.7765C146.857 86.5359 147.499 86.5296 148.032 86.7577C148.556 86.9579 149.064 87.3935 149.555 88.0645L164.206 107.945L162.537 108.48L163.258 83.7216C163.295 82.8813 163.465 82.2134 163.767 81.718C164.068 81.2226 164.553 80.868 165.22 80.6541C165.888 80.4402 166.475 80.4517 166.98 80.6887C167.486 80.9256 168.002 81.3891 168.53 82.079L183.238 101.85L181.777 102.317L182.276 77.5842C182.295 76.7805 182.455 76.131 182.756 75.6356C183.058 75.1402 183.57 74.7767 184.294 74.545C185.184 74.2598 185.936 74.3564 186.55 74.8349C187.163 75.3133 187.459 76.0468 187.438 77.0352L186.546 104.563C186.508 105.404 186.325 106.076 185.995 106.58C185.666 107.085 185.126 107.457 184.374 107.698C183.623 107.938 182.967 107.949 182.406 107.73C181.845 107.511 181.301 107.056 180.773 106.367L166.88 87.9915L167.84 87.684L167.139 110.78C167.101 111.62 166.917 112.292 166.588 112.797C166.287 113.292 165.76 113.66 165.009 113.901Z" fill="#2E353A"/>
<path d="M255.58 86.1726C254.635 86.3751 253.853 86.2882 253.233 85.9119C252.636 85.5008 252.236 84.8228 252.034 83.878L246.797 59.4405C246.594 58.4957 246.684 57.7277 247.067 57.1367C247.472 56.5108 248.147 56.0967 249.092 55.8942L264.424 52.6087C265.14 52.4553 265.724 52.5249 266.176 52.8173C266.656 53.1036 266.97 53.5904 267.117 54.2775C267.271 54.9933 267.19 55.5946 266.875 56.0814C266.583 56.5333 266.079 56.836 265.363 56.9894L252.392 59.7688L254.178 68.1007L266.203 65.5238C266.948 65.3643 267.546 65.4307 267.998 65.7232C268.45 66.0157 268.753 66.5198 268.906 67.2356C269.059 67.9514 268.99 68.5353 268.697 68.9873C268.405 69.4392 267.886 69.745 267.142 69.9045L255.117 72.4814L257.003 81.2857L269.974 78.5064C270.689 78.353 271.273 78.4225 271.725 78.715C272.206 79.0013 272.523 79.5024 272.676 80.2182C272.83 80.934 272.746 81.5209 272.425 81.979C272.132 82.431 271.628 82.7337 270.912 82.8871L255.58 86.1726Z" fill="#2E353A"/>
<path d="M313.592 74.7003C312.696 74.818 311.969 74.6633 311.413 74.2362C310.853 73.7801 310.514 73.1037 310.396 72.2071L307.109 47.1732C306.987 46.2476 307.128 45.5231 307.53 44.9995C307.957 44.4432 308.619 44.1062 309.515 43.9885C310.412 43.8707 311.124 44.0273 311.651 44.4583C312.204 44.8565 312.541 45.5184 312.662 46.444L315.705 69.6122L328.287 67.9601C329.068 67.8575 329.687 67.9821 330.145 68.3339C330.632 68.6818 330.925 69.2318 331.024 69.9839C331.123 70.7359 330.984 71.3573 330.607 71.8482C330.255 72.3063 329.689 72.5866 328.908 72.6892L313.592 74.7003Z" fill="#2E353A"/>
<path d="M381.696 67.4605C378.485 67.5755 375.702 67.0319 373.35 65.8297C371.025 64.5974 369.208 62.8206 367.897 60.4995C366.585 58.1492 365.871 55.3536 365.755 52.1126C365.668 49.6892 365.94 47.5015 366.572 45.5493C367.203 43.568 368.151 41.8677 369.415 40.4484C370.679 38.9998 372.247 37.8766 374.119 37.0788C376.019 36.2506 378.166 35.7937 380.56 35.708C382.166 35.6506 383.75 35.7985 385.312 36.1519C386.874 36.5053 388.252 37.0406 389.448 37.7579C390.074 38.1156 390.5 38.5681 390.724 39.1155C390.947 39.6338 391.01 40.1578 390.912 40.6875C390.813 41.1881 390.58 41.6203 390.213 41.9843C389.875 42.3472 389.43 42.5678 388.877 42.646C388.352 42.694 387.762 42.5251 387.105 42.1394C386.179 41.5878 385.185 41.1995 384.125 40.9743C383.064 40.7491 381.994 40.6559 380.914 40.6946C378.841 40.7688 377.104 41.2548 375.704 42.1528C374.303 43.0507 373.267 44.3157 372.594 45.9477C371.922 47.5797 371.627 49.5636 371.711 51.8994C371.794 54.206 372.229 56.1638 373.018 57.7728C373.806 59.3817 374.931 60.5839 376.392 61.3795C377.853 62.175 379.62 62.5356 381.693 62.4614C382.802 62.4217 383.893 62.2511 384.963 61.9497C386.033 61.619 387.04 61.1445 387.982 60.5261C388.611 60.1235 389.175 59.9425 389.673 59.9832C390.2 59.9935 390.644 60.153 391.006 60.4617C391.368 60.7703 391.616 61.1707 391.75 61.6629C391.884 62.1259 391.872 62.6233 391.716 63.1551C391.559 63.6577 391.224 64.1083 390.712 64.5066C389.574 65.3952 388.196 66.1023 386.578 66.628C384.988 67.1234 383.361 67.4009 381.696 67.4605Z" fill="#2E353A"/>
<path d="M448.863 66.7684C445.883 66.5002 443.327 65.6075 441.195 64.0903C439.093 62.5757 437.535 60.5799 436.521 58.103C435.51 55.5968 435.149 52.7368 435.438 49.523C435.656 47.0981 436.203 44.953 437.077 43.0878C437.955 41.1934 439.098 39.6175 440.507 38.36C441.948 37.076 443.607 36.1502 445.484 35.5829C447.393 34.9889 449.472 34.7931 451.722 34.9956C454.731 35.2664 457.287 36.1592 459.389 37.6737C461.494 39.1591 463.053 41.1403 464.068 43.6172C465.082 46.0942 465.444 48.9396 465.155 52.1534C464.937 54.5783 464.389 56.738 463.511 58.6324C462.634 60.5268 461.475 62.116 460.034 63.4001C458.622 64.6867 456.962 65.6271 455.053 66.221C453.176 66.7884 451.112 66.9709 448.863 66.7684ZM449.296 61.9477C451.196 62.1186 452.842 61.825 454.235 61.0668C455.658 60.3113 456.795 59.1324 457.646 57.5302C458.527 55.9306 459.071 53.9768 459.278 51.6687C459.594 48.1627 459.05 45.3746 457.645 43.3043C456.271 41.2367 454.151 40.074 451.288 39.8163C449.418 39.648 447.772 39.9416 446.349 40.6972C444.929 41.4235 443.779 42.5865 442.899 44.1861C442.05 45.7591 441.521 47.7142 441.31 50.0515C440.997 53.5283 441.542 56.3164 442.943 58.4159C444.345 60.5154 446.462 61.6926 449.296 61.9477Z" fill="#2E353A"/>
<path d="M516.171 74.11C515.375 73.9179 514.82 73.5432 514.503 72.9859C514.187 72.4286 514.125 71.7524 514.317 70.9572L520.502 45.355C520.7 44.5314 521.079 43.9615 521.636 43.6452C522.2 43.3006 522.88 43.2243 523.675 43.4164C524.385 43.5879 524.904 43.8637 525.233 44.2437C525.598 44.6022 525.871 45.1492 526.054 45.8847L531.874 67.8943L530.511 67.565L545.735 50.6388C546.234 50.0679 546.713 49.7027 547.172 49.5431C547.638 49.3552 548.226 49.347 548.936 49.5185C549.731 49.7106 550.287 50.0852 550.603 50.6425C550.927 51.1714 550.989 51.8477 550.79 52.6713L544.605 78.2735C544.413 79.0687 544.049 79.642 543.514 79.9935C543.006 80.3518 542.341 80.4315 541.517 80.2326C540.722 80.0405 540.166 79.6658 539.85 79.1085C539.534 78.5512 539.472 77.875 539.664 77.0798L544.428 57.3563L545.365 57.5827L532.478 71.7373C532.078 72.1515 531.694 72.4345 531.326 72.5862C530.959 72.7379 530.506 72.7486 529.966 72.6183C529.427 72.488 529.014 72.268 528.728 71.9585C528.449 71.6206 528.236 71.1936 528.091 70.6774L523.011 52.1378L524.033 52.3847L519.259 72.1508C519.067 72.946 518.703 73.5194 518.167 73.8709C517.66 74.2292 516.994 74.3089 516.171 74.11Z" fill="#2E353A"/>
<path d="M608.697 98.3565C607.797 98.0084 607.192 97.5079 606.881 96.8549C606.608 96.1852 606.645 95.4007 606.993 94.5016L615.994 71.2467C616.343 70.3476 616.838 69.7561 617.48 69.4722C618.161 69.1716 618.95 69.1953 619.849 69.5433L634.44 75.1909C635.121 75.4545 635.57 75.832 635.787 76.3233C636.032 76.8252 636.027 77.4031 635.774 78.057C635.51 78.7381 635.114 79.1956 634.585 79.4294C634.094 79.6465 633.507 79.6232 632.826 79.3596L620.484 74.5821L617.415 82.5108L628.858 86.9403C629.567 87.2145 630.029 87.5972 630.246 88.0886C630.463 88.5799 630.44 89.1661 630.177 89.8473C629.913 90.5284 629.535 90.9776 629.044 91.1947C628.553 91.4118 627.953 91.3832 627.245 91.109L615.801 86.6795L612.558 95.0578L624.901 99.8353C625.582 100.099 626.031 100.476 626.248 100.968C626.492 101.47 626.483 102.061 626.219 102.742C625.955 103.423 625.564 103.867 625.046 104.074C624.554 104.291 623.968 104.268 623.287 104.004L608.697 98.3565Z" fill="#2E353A"/>
<path d="M588.278 318.86C588.278 318.86 561.334 298.948 548.391 289.204C535.448 279.46 513.27 251.499 507.72 239.213C504.975 232.888 501.892 226.715 498.485 220.72C498.485 220.72 501.048 208.371 501.048 205.32C501.048 202.27 498.569 198.245 497.002 195.661C496.218 194.369 490.647 186.976 490.647 192.611C490.647 197.017 493.295 199.22 493.295 201.868C489.729 199.898 486.792 196.96 484.822 193.394C481.729 187.675 480.416 185.451 478.636 186.785C475.48 189.158 479.526 195.259 479.526 195.259C479.526 195.259 478.636 186.785 474.23 188.183C471.688 188.946 475.12 196.127 476.878 199.22C478.636 202.312 475.989 197.101 476.433 202.312C476.751 206.189 481.178 215.721 485.267 220.402C486.749 222.118 490.202 221.589 490.562 222.182C491.876 224.3 506.004 257.049 515.706 273.381C525.408 289.712 531.17 294.563 539.113 302.507C547.057 310.45 557.648 324.134 566.905 330.743C576.162 337.352 581.034 334.726 586.329 330.299C591.625 325.871 592.409 323.351 588.278 318.86Z" fill="white" stroke="#2E353A" stroke-linecap="round" stroke-linejoin="round"/>
<path d="M493.147 201.846C493.147 201.846 489.164 209.366 491.028 212.438" stroke="#2E353A" stroke-linecap="round" stroke-linejoin="round"/>
<path d="M479.463 195.237L483 201.846" stroke="#2E353A" stroke-linecap="round" stroke-linejoin="round"/>
<path d="M483.424 216.865C480.383 213.008 477.723 208.865 475.48 204.494C473.722 200.088 475.057 190.387 477.705 192.145C480.352 193.903 479.463 203.626 479.463 203.626L484.758 209.79" fill="white"/>
<path d="M483.424 216.865C480.383 213.008 477.723 208.865 475.48 204.494C473.722 200.088 475.057 190.387 477.705 192.145C480.352 193.903 479.463 203.626 479.463 203.626L484.758 209.79" stroke="#2E353A" stroke-linecap="round" stroke-linejoin="round"/>
<path d="M593.977 263.827C593.977 263.827 580.441 258.891 582.898 241.649C585.355 224.406 600.141 233.027 600.141 233.027C600.141 233.027 585.313 213.306 615.541 209.006C645.769 204.706 667.926 231.799 675.319 261.963C682.711 292.127 635.876 295.22 642.655 318.034C649.433 340.848 675.933 366.754 671.612 398.126C667.29 429.497 624.183 446.846 604.462 430.154C584.741 413.462 576.734 387.661 587.897 364.191C599.061 340.72 605.14 313.056 608.212 300.643C611.283 288.23 593.977 263.827 593.977 263.827Z" fill="#2E353A" stroke="#2E353A" stroke-linecap="round" stroke-linejoin="round"/>
<path d="M642.443 286.874C623.908 279.46 614.375 249.275 614.375 232.328C614.375 215.382 638.206 223.855 638.206 223.855C638.206 223.855 614.905 228.092 626.556 250.863C638.206 273.635 658.859 280.519 669.451 273.635" stroke="white" stroke-width="0.75" stroke-linecap="round" stroke-linejoin="round"/>
<path d="M638.736 303.291C638.736 303.291 622.319 308.586 627.085 329.24C631.851 349.893 668.392 375.842 657.8 402.32C647.209 428.798 628.674 439.39 606.432 431.446" stroke="white" stroke-width="0.75" stroke-linecap="round" stroke-linejoin="round"/>
<path d="M630.792 307.527C630.792 307.527 612.787 314.941 610.669 341.419C608.55 367.898 630.263 390.669 620.201 403.909C610.139 417.148 593.722 415.559 588.427 407.616" stroke="white" stroke-width="0.75" stroke-linecap="round" stroke-linejoin="round"/>
<path d="M589.676 292.784C589.676 292.784 591.519 299.562 585.44 310.048C579.36 320.533 576.204 322.969 576.204 322.969L598.382 321.126L612.554 295.241C612.554 295.241 590.905 297.105 589.676 292.784Z" fill="white" stroke="#2E353A" stroke-linecap="round" stroke-linejoin="round"/>
<path d="M611.855 235.485C611.855 235.485 590.29 255.206 585.969 272.449C581.648 289.691 587.198 300.791 595.226 300.791C603.254 300.791 619.862 294.013 619.862 294.013C619.862 294.013 624.797 298.249 629.712 295.877C631.118 295.196 632.318 294.152 633.185 292.852C634.053 291.552 634.558 290.044 634.647 288.484C634.647 288.484 600.755 255.206 611.855 235.485Z" fill="white" stroke="#2E353A" stroke-linecap="round" stroke-linejoin="round"/>
<path d="M602.725 265.077C601.242 266.962 599.463 268.021 598.722 267.449C597.98 266.877 598.573 264.886 600.056 263.001C601.539 261.116 603.318 260.057 604.038 260.629C604.759 261.201 604.187 263.192 602.725 265.077Z" fill="#2E353A"/>
<path d="M612.978 275.816C611.516 277.723 609.715 278.782 608.974 278.21C608.233 277.638 608.847 275.647 610.309 273.762C611.77 271.876 613.571 270.796 614.312 271.368C615.054 271.94 614.439 273.931 612.978 275.816Z" fill="#2E353A"/>
<path d="M601.751 269.102C599.236 269.988 596.816 271.124 594.527 272.491C592.6 273.931 595.968 275.859 595.968 275.859" stroke="#2E353A" stroke-width="0.75" stroke-linecap="round" stroke-linejoin="round"/>
<path d="M590.185 280.667C590.531 282.234 591.377 283.645 592.596 284.689C593.815 285.732 595.341 286.35 596.942 286.45C599.969 286.904 603.056 286.217 605.606 284.523" stroke="#2E353A" stroke-width="0.75" stroke-linecap="round" stroke-linejoin="round"/>
<path d="M602.238 252.727C603.77 252.488 605.334 252.86 606.594 253.763C607.855 254.667 608.709 256.029 608.974 257.557" stroke="#2E353A" stroke-width="0.75" stroke-linecap="round" stroke-linejoin="round"/>
<path d="M613.316 264.78C613.316 264.78 621.493 267.661 619.099 273.931" stroke="#2E353A" stroke-width="0.75" stroke-linecap="round" stroke-linejoin="round"/>
<path d="M532.483 714.109C532.483 714.109 521.087 721.714 517.274 723.599C513.461 725.484 497.341 728.344 496.854 732.623C496.366 736.902 504.924 739.274 514.435 739.274C523.946 739.274 535.321 739.274 541.02 740.227C546.718 741.18 550.531 743.066 552.903 736.902C555.276 730.737 551.463 714.575 551.463 714.575C551.463 714.575 541.507 718.388 532.483 714.109Z" fill="#92E3A9" stroke="#2E353A" stroke-linecap="round" stroke-linejoin="round"/>
<path d="M536.741 545.049C536.741 545.049 530.111 575.913 530.111 585.89C530.111 595.867 533.902 660.453 534.856 678.479C535.317 690.406 534.522 702.349 532.483 714.109C532.483 714.109 540.554 717.901 543.879 717.901C547.205 717.901 551.463 714.575 551.463 714.575C551.463 714.575 560.974 672.781 560.974 650.476C560.974 628.17 562.859 615.334 560.974 601.078C559.089 586.822 552.501 560.725 554.788 551.214C557.076 541.702 543.879 530.793 536.741 545.049Z" fill="#2E353A" stroke="#2E353A" stroke-linecap="round" stroke-linejoin="round"/>
<path d="M536.677 408.675C536.677 408.675 528.585 463.453 528.585 504.103C528.585 544.753 545.849 593.452 550.149 600.23C554.45 607.009 592.049 674.772 600.67 688.944C606.771 699.688 611.821 710.995 615.752 722.709C618.761 723.634 621.855 724.252 624.988 724.552C628.081 724.552 632.381 720.866 632.381 720.866C632.381 720.866 612.384 642.723 604.377 622.409C596.37 602.094 579.805 586.059 575.505 578.137C571.205 570.214 569.341 539.309 569.341 539.309C569.341 539.309 594.591 499.273 598.997 477.709C603.403 456.145 591.519 431.976 586.584 423.503C583.358 417.727 580.479 411.764 577.962 405.646C577.962 405.646 552.098 420.939 536.677 408.675Z" fill="#2E353A" stroke="#2E353A" stroke-linecap="round" stroke-linejoin="round"/>
<path d="M583.512 386.433C583.512 386.433 598.912 339.005 602.577 327.905C606.241 316.805 600.713 312.505 584.084 314.348C567.456 316.191 538.499 329.176 537.27 343.305C536.042 357.434 541.507 365.483 541.507 372.262C541.507 379.04 531.763 408.675 539.177 414.775C546.591 420.876 569.977 419.012 576.755 410.539C583.533 402.066 583.512 386.433 583.512 386.433Z" fill="#92E3A9" stroke="#2E353A" stroke-linecap="round" stroke-linejoin="round"/>
<path d="M588.279 318.86C589.172 326.61 587.263 334.424 582.898 340.89C575.505 352.583 558.877 348.283 560.106 335.34C561.334 322.397 577.009 311.658 588.279 318.86Z" fill="white" stroke="#2E353A" stroke-linecap="round" stroke-linejoin="round"/>
<path d="M577.772 337.204C579.776 336.884 581.683 336.121 583.355 334.971C585.027 333.82 586.421 332.311 587.436 330.554C588.45 328.796 589.06 326.835 589.221 324.812C589.381 322.789 589.088 320.755 588.363 318.86C587.904 317.553 587.108 316.39 586.056 315.49C585.003 314.59 583.731 313.984 582.369 313.734C571.777 311.891 525.683 315.576 513.969 314.348C502.255 313.119 457.92 286.005 446.185 275.541C434.449 265.077 430.17 259.527 430.17 255.206C430.17 250.884 427.078 241.034 424.621 237.963C422.163 234.891 417.842 228.706 417.842 228.706C417.842 228.706 413.606 228.706 414.156 231.184C415.159 233.952 416.392 236.63 417.842 239.191C417.842 239.191 405.514 231.799 402.442 228.6C402.134 228.174 401.74 227.818 401.285 227.553C400.831 227.289 400.326 227.122 399.803 227.064C399.281 227.006 398.752 227.058 398.25 227.217C397.749 227.376 397.286 227.638 396.892 227.986L403.671 235.379C403.671 235.379 403.057 240.314 407.907 248.321C411.577 253.79 416.163 258.585 421.464 262.493C421.464 262.493 446.1 291.449 464.592 307.463C483.085 323.478 500.306 333.349 515.728 335.806C529.327 338.094 550.552 342.182 577.772 337.204Z" fill="white" stroke="#2E353A" stroke-linecap="round" stroke-linejoin="round"/>
<path d="M615.837 722.709C615.837 722.709 606.093 733.11 599.442 737.367C592.791 741.625 584.233 744.506 585.673 748.298C587.114 752.089 604.738 751.623 613.211 751.136C621.684 750.649 638.842 742.663 641.701 740.693C644.561 738.723 632.466 720.866 632.466 720.866C632.466 720.866 623.209 726.077 615.837 722.709Z" fill="#92E3A9" stroke="#2E353A" stroke-linecap="round" stroke-linejoin="round"/>
<path d="M613.316 751.136C621.789 750.67 638.948 742.663 641.807 740.693C642.591 740.164 642.21 738.384 641.278 736.118C631.631 740.9 621.448 744.513 610.944 746.879C597.048 749.844 589.168 748.446 585.631 747.323C585.619 747.655 585.669 747.985 585.779 748.298C587.092 752.089 604.653 751.624 613.316 751.136Z" fill="#2E353A" stroke="#2E353A" stroke-linecap="round" stroke-linejoin="round"/>
<path d="M552.903 737.007C553.327 735.75 553.562 734.436 553.602 733.11C549.832 736.16 547.099 734.72 541.02 735.101C533.415 735.588 530.577 735.588 514.901 735.588C508.765 735.74 502.655 734.726 496.896 732.601C496.905 732.643 496.905 732.687 496.896 732.728C496.43 736.965 504.967 739.38 514.478 739.38C523.989 739.38 535.364 739.38 541.062 740.333C546.76 741.286 550.531 743.066 552.903 737.007Z" fill="#2E353A" stroke="#2E353A" stroke-linecap="round" stroke-linejoin="round"/>
<path d="M569.341 539.224C569.341 539.224 571.099 509.907 574.34 504.103C577.581 498.299 585.291 490.567 590.439 486.055" stroke="white" stroke-width="0.75" stroke-linecap="round" stroke-linejoin="round"/>
</svg>
