<svg width="817" height="736" viewBox="0 0 817 736" fill="none" xmlns="http://www.w3.org/2000/svg">
<path d="M401.731 735.287C623.6 735.287 803.461 721.695 803.461 704.929C803.461 688.163 623.6 674.572 401.731 674.572C179.861 674.572 0 688.163 0 704.929C0 721.695 179.861 735.287 401.731 735.287Z" fill="#92E3A9"/>
<path opacity="0.9" d="M401.731 735.287C623.6 735.287 803.461 721.695 803.461 704.929C803.461 688.163 623.6 674.572 401.731 674.572C179.861 674.572 0 688.163 0 704.929C0 721.695 179.861 735.287 401.731 735.287Z" fill="white"/>
<g style="mix-blend-mode:multiply" opacity="0.5">
<path d="M756.448 89.5223H343.869V430.619H756.448V89.5223Z" fill="#92E3A9"/>
</g>
<path d="M768.287 65.4388H361.031V412.324H768.287V65.4388Z" fill="white" stroke="#263238" stroke-linecap="round" stroke-linejoin="round"/>
<path d="M745.539 84.4021H383.779V393.381H745.539V84.4021Z" fill="white" stroke="#263238" stroke-linecap="round" stroke-linejoin="round"/>
<path d="M745.539 169.383C740.957 169.625 736.363 169.516 731.798 169.059C675.009 163.392 653.516 67.2805 586.911 103.102C537.429 129.675 559.529 180.352 558.578 223.257C557.768 260.01 537.004 299.272 495.131 290.894C438.038 279.479 461.495 211.762 418.104 190.066C407.404 184.775 395.635 182.006 383.698 181.971V393.381H745.539V169.383Z" fill="#92E3A9" stroke="#263238" stroke-linecap="round" stroke-linejoin="round"/>
<path d="M459.309 169.707C476.064 169.707 489.646 156.124 489.646 139.369C489.646 122.615 476.064 109.032 459.309 109.032C442.554 109.032 428.971 122.615 428.971 139.369C428.971 156.124 442.554 169.707 459.309 169.707Z" fill="#92E3A9" stroke="#263238" stroke-linecap="round" stroke-linejoin="round"/>
<g style="mix-blend-mode:multiply" opacity="0.6">
<path d="M594.015 394.878H269.149V671.01H594.015V394.878Z" fill="#92E3A9"/>
</g>
<path d="M608.546 376.32H281.414V654.961H608.546V376.32Z" fill="white" stroke="#263238" stroke-linecap="round" stroke-linejoin="round"/>
<path d="M590.291 391.539H299.689V639.742H590.291V391.539Z" fill="#92E3A9" stroke="#263238" stroke-linecap="round" stroke-linejoin="round"/>
<path d="M378.783 483.007C380.946 469.725 371.932 457.204 358.65 455.04C345.367 452.877 332.846 461.891 330.683 475.174C328.52 488.456 337.534 500.977 350.816 503.141C364.099 505.304 376.62 496.29 378.783 483.007Z" fill="white" stroke="#263238" stroke-linecap="round" stroke-linejoin="round"/>
<path d="M590.291 397.469C588.915 397.874 587.559 398.278 586.243 398.724C520.408 419.731 552.628 503.76 510.613 548.487C468.598 593.214 416.788 568.098 362.165 558.303C341.446 554.406 320.113 555.258 299.77 560.792V639.721H590.291V397.469Z" fill="white" stroke="#263238" stroke-linecap="round" stroke-linejoin="round"/>
<g style="mix-blend-mode:multiply" opacity="0.6">
<path d="M373.094 14.8026H41.7314V362.396H373.094V14.8026Z" fill="#92E3A9"/>
</g>
<path d="M463.093 1H55.8374V347.885H463.093V1Z" fill="white" stroke="#263238" stroke-linecap="round" stroke-linejoin="round"/>
<path d="M440.345 19.9633H78.5852V328.942H440.345V19.9633Z" fill="white" stroke="#263238" stroke-linecap="round" stroke-linejoin="round"/>
<path d="M440.345 82.7426L284.915 213.3L237.072 155.297C235.193 153.018 232.865 151.151 230.233 149.813C227.6 148.475 224.72 147.694 221.772 147.519C218.825 147.345 215.872 147.78 213.1 148.798C210.328 149.815 207.796 151.394 205.662 153.435L78.5852 274.703V328.922H440.345V82.7426Z" fill="#92E3A9" stroke="#263238" stroke-linecap="round" stroke-linejoin="round"/>
<path d="M183.653 81.959C187.527 65.6583 177.454 49.3032 161.153 45.4288C144.852 41.5545 128.497 51.628 124.623 67.9287C120.748 84.2294 130.822 100.585 147.123 104.459C163.423 108.333 179.778 98.2597 183.653 81.959Z" fill="#92E3A9" stroke="#263238" stroke-linecap="round" stroke-linejoin="round"/>
<path d="M726.414 639.499C713.361 639.499 702.776 643.364 702.776 648.1V657.41C702.802 657.948 702.935 658.477 703.168 658.963C703.401 659.45 703.728 659.885 704.132 660.243L707.795 693.231C707.795 696.955 716.133 699.991 726.414 699.991C736.695 699.991 745.034 696.955 745.034 693.231L748.818 660.223C749.215 659.865 749.538 659.433 749.767 658.95C749.997 658.467 750.128 657.944 750.154 657.41V648.1C750.053 643.364 739.468 639.499 726.414 639.499Z" fill="#263238" stroke="#263238" stroke-linecap="round" stroke-linejoin="round"/>
<path d="M733.457 600.054C733.335 600.054 736.594 591.959 736.857 591.473C739.913 585.847 749.142 576.76 756.205 578.076C757.368 578.333 758.465 578.831 759.424 579.538C760.383 580.245 761.183 581.146 761.772 582.181C762.362 583.217 762.727 584.365 762.845 585.55C762.964 586.736 762.832 587.933 762.458 589.065C761.021 593.922 755.78 597.322 751.307 599.002C746.045 600.985 733.477 600.054 733.457 600.054Z" fill="#263238"/>
<path d="M739.71 566.054C739.589 566.054 744.041 558.525 744.365 558.08C748.251 552.98 758.734 545.391 765.514 547.779C766.628 548.204 767.639 548.86 768.482 549.703C769.325 550.546 769.981 551.557 770.407 552.67C770.832 553.783 771.019 554.974 770.953 556.164C770.888 557.354 770.573 558.518 770.027 559.578C767.882 564.172 762.195 566.742 757.5 567.673C751.995 568.887 739.731 566.054 739.71 566.054Z" fill="#263238"/>
<path d="M754.667 529.544C754.545 529.544 758.997 522.015 759.321 521.59C763.207 516.47 773.691 508.901 780.47 511.269C781.584 511.697 782.596 512.354 783.439 513.199C784.282 514.044 784.938 515.057 785.364 516.172C785.789 517.286 785.976 518.479 785.91 519.67C785.845 520.862 785.529 522.026 784.983 523.088C782.838 527.662 777.151 530.232 772.456 531.183C767.032 532.377 754.667 529.564 754.667 529.544Z" fill="#263238"/>
<path d="M767.033 494.451C766.911 494.451 771.364 486.922 771.708 486.497C775.573 481.377 786.077 473.808 792.837 476.175C793.95 476.602 794.961 477.258 795.804 478.1C796.648 478.942 797.306 479.951 797.735 481.063C798.164 482.175 798.355 483.365 798.296 484.555C798.236 485.746 797.928 486.911 797.39 487.974C795.225 492.548 789.538 495.118 784.863 496.07C779.398 497.264 767.033 494.451 767.033 494.451Z" fill="#263238"/>
<path d="M769.32 462.494C769.198 462.494 771.505 454.095 771.708 453.569C774.096 447.639 782.211 437.541 789.376 438.047C790.555 438.165 791.697 438.528 792.728 439.114C793.759 439.7 794.655 440.495 795.361 441.448C796.066 442.401 796.564 443.491 796.823 444.648C797.082 445.805 797.096 447.003 796.864 448.166C795.994 453.165 791.177 457.131 786.927 459.317C781.928 462.069 769.32 462.494 769.32 462.494Z" fill="#263238"/>
<path d="M730.158 598.577C730.28 598.577 730.28 589.895 730.158 589.348C729.43 582.973 724.269 571.134 717.226 569.697C716.05 569.496 714.845 569.544 713.689 569.84C712.533 570.135 711.452 570.671 710.516 571.411C709.581 572.152 708.812 573.081 708.259 574.139C707.707 575.196 707.383 576.358 707.309 577.549C706.824 582.609 710.426 587.668 713.948 590.947C718.157 594.752 730.158 598.577 730.158 598.577Z" fill="#263238"/>
<path d="M739.974 561.237C740.115 561.237 738.78 552.636 738.638 552.09C736.958 545.917 730.057 534.968 722.872 534.644C721.681 534.622 720.498 534.851 719.401 535.317C718.304 535.783 717.318 536.475 716.506 537.348C715.695 538.22 715.076 539.254 714.691 540.382C714.306 541.51 714.163 542.706 714.271 543.893C714.554 548.953 718.885 553.466 722.852 556.137C727.527 559.213 739.974 561.237 739.974 561.237Z" fill="#263238"/>
<path d="M754.161 526.832C754.282 526.832 752.967 518.231 752.805 517.684C751.125 511.512 744.224 500.563 737.039 500.239C735.849 500.22 734.667 500.452 733.572 500.919C732.476 501.385 731.491 502.077 730.68 502.949C729.87 503.821 729.251 504.854 728.865 505.98C728.478 507.107 728.333 508.302 728.438 509.488C728.721 514.547 733.052 519.061 737.019 521.732C741.694 524.808 754.141 526.832 754.161 526.832Z" fill="#263238"/>
<path d="M765.676 494.451C765.798 494.451 764.462 485.849 764.32 485.323C762.641 479.13 755.739 468.181 748.555 467.858C747.362 467.838 746.179 468.071 745.082 468.539C743.985 469.007 742.999 469.701 742.188 470.575C741.377 471.449 740.758 472.484 740.373 473.613C739.988 474.742 739.845 475.939 739.953 477.127C740.237 482.186 744.568 486.679 748.534 489.27C753.21 492.569 765.656 494.451 765.676 494.451Z" fill="#263238"/>
<path d="M768.894 463.547C769.016 463.547 766.769 455.128 766.567 454.602C764.199 448.651 756.144 438.512 748.98 438.978C747.796 439.091 746.649 439.451 745.613 440.034C744.577 440.617 743.674 441.411 742.963 442.364C742.252 443.317 741.748 444.409 741.484 445.568C741.221 446.728 741.202 447.93 741.431 449.097C742.281 454.096 747.057 458.103 751.307 460.309C756.286 462.96 768.894 463.547 768.894 463.547Z" fill="#263238"/>
<path d="M765.798 435.152C765.899 435.152 767.822 426.693 767.822 426.146C768.47 419.771 765.98 407.062 759.403 404.168C758.296 403.722 757.109 403.513 755.917 403.555C754.725 403.597 753.555 403.888 752.483 404.411C751.411 404.934 750.46 405.676 749.693 406.589C748.926 407.502 748.359 408.567 748.029 409.713C746.47 414.53 748.879 420.298 751.631 424.204C754.89 428.818 765.778 435.132 765.798 435.152Z" fill="#263238"/>
<path d="M725.018 645.631C725.018 645.631 725.139 641.948 725.605 635.512C726.07 629.076 726.859 620.07 728.316 609.202C729.025 603.778 729.915 597.929 731.008 591.757C731.534 588.64 732.162 585.564 732.809 582.245C733.194 580.646 733.558 579.027 733.943 577.408C734.327 575.789 734.853 574.129 735.319 572.47C737.351 565.713 739.749 559.071 742.504 552.575C745.276 545.957 748.292 539.36 751.287 532.742C754.282 526.124 757.197 519.546 759.747 512.908C762.286 506.446 764.362 499.811 765.96 493.054C767.334 486.703 768.14 480.242 768.368 473.747C768.608 467.917 768.507 462.079 768.065 456.261C767.7 450.837 767.053 445.899 766.425 441.528C765.798 437.156 765.069 433.432 764.401 430.275C763.126 424.062 762.114 420.581 762.114 420.581C762.114 420.581 763.187 424.042 764.604 430.235C765.312 433.331 766.101 437.095 766.85 441.467C767.599 445.838 768.328 450.756 768.874 456.2C769.45 462.044 769.687 467.916 769.582 473.787C769.487 480.365 768.81 486.92 767.559 493.378C766.094 500.255 764.14 507.019 761.71 513.616C759.281 520.376 756.468 527.095 753.614 533.855C750.761 540.614 747.907 547.192 745.296 553.81C742.728 560.235 740.512 566.795 738.658 573.461C738.253 575.08 737.748 576.618 737.444 578.278L736.412 583.135C735.865 586.252 735.299 589.449 734.853 592.485C733.882 598.557 733.133 604.426 732.546 609.809C731.352 620.576 730.765 629.582 730.522 635.876C730.28 642.17 730.158 645.753 730.158 645.753C730.19 646.102 730.148 646.455 730.035 646.788C729.923 647.121 729.743 647.426 729.505 647.686C729.268 647.945 728.98 648.152 728.659 648.294C728.337 648.435 727.99 648.508 727.638 648.508C727.287 648.508 726.94 648.435 726.618 648.294C726.297 648.152 726.008 647.945 725.771 647.686C725.534 647.426 725.354 647.121 725.242 646.788C725.129 646.455 725.087 646.102 725.119 645.753V645.753L725.018 645.631Z" fill="#263238"/>
<path d="M705.427 610.841C705.326 610.841 703.545 603.798 703.403 603.333C702.715 597.97 704.496 587.243 709.961 584.653C710.877 584.248 711.868 584.041 712.87 584.045C713.872 584.049 714.862 584.264 715.775 584.677C716.687 585.089 717.503 585.69 718.168 586.439C718.833 587.188 719.333 588.069 719.635 589.024C721.071 593.072 719.189 597.95 716.963 601.309C714.413 605.256 705.427 610.841 705.427 610.841Z" fill="#263238"/>
<path d="M692.858 584.612C692.757 584.612 692.089 577.347 692.089 576.881C692.211 571.498 695.591 561.136 701.379 559.416C702.357 559.147 703.382 559.089 704.384 559.246C705.387 559.403 706.344 559.771 707.194 560.326C708.043 560.881 708.765 561.61 709.312 562.465C709.859 563.32 710.217 564.281 710.365 565.285C711.174 569.474 708.563 574.028 705.851 577.023C702.633 580.464 692.858 584.612 692.858 584.612Z" fill="#263238"/>
<path d="M684.986 552.373C684.986 552.373 684.217 545.107 684.217 544.642C684.339 539.258 687.739 528.896 693.527 527.176C694.494 526.914 695.506 526.859 696.497 527.014C697.487 527.17 698.433 527.532 699.274 528.079C700.114 528.625 700.83 529.343 701.374 530.185C701.918 531.026 702.279 531.974 702.432 532.964C703.241 537.154 700.631 541.727 697.919 544.703C694.761 548.224 685.007 552.373 684.986 552.373Z" fill="#263238"/>
<path d="M676.101 522.319C675.98 522.319 675.312 515.053 675.312 514.588C675.433 509.205 678.833 498.842 684.622 497.122C685.591 496.863 686.603 496.811 687.593 496.969C688.584 497.127 689.53 497.492 690.37 498.04C691.21 498.588 691.925 499.307 692.469 500.149C693.013 500.992 693.373 501.94 693.527 502.931C694.336 507.12 691.725 511.674 689.034 514.669C685.856 518.17 676.101 522.319 676.101 522.319Z" fill="#263238"/>
<path d="M661.793 499.49C661.692 499.49 659.122 492.69 659 492.225C657.685 487.003 658.231 476.034 663.351 472.917C664.217 472.415 665.179 472.1 666.174 471.992C667.169 471.884 668.176 471.986 669.129 472.291C670.083 472.596 670.962 473.098 671.709 473.763C672.457 474.429 673.057 475.244 673.471 476.155C675.353 480.001 674.037 485.08 672.216 488.683C670.131 492.892 661.793 499.47 661.793 499.49Z" fill="#263238"/>
<path d="M702.452 611.469C702.553 611.469 698.242 605.519 697.919 605.175C694.276 601.127 684.885 595.663 679.4 598.192C678.502 598.638 677.707 599.267 677.068 600.039C676.429 600.812 675.959 601.71 675.69 602.676C675.421 603.642 675.358 604.654 675.506 605.646C675.653 606.638 676.008 607.587 676.547 608.433C678.712 612.116 683.671 613.816 687.678 614.262C692.373 614.808 702.432 611.489 702.452 611.469Z" fill="#263238"/>
<path d="M690.653 581.192C690.754 581.192 685.593 575.93 685.229 575.647C681.019 572.267 670.9 568.219 665.861 571.599C665.041 572.177 664.351 572.92 663.837 573.781C663.322 574.643 662.994 575.602 662.874 576.598C662.754 577.594 662.844 578.604 663.139 579.563C663.434 580.521 663.927 581.407 664.586 582.164C667.277 585.462 672.458 586.393 676.486 586.211C681.201 586.029 690.653 581.192 690.653 581.192Z" fill="#263238"/>
<path d="M683.286 550.774C683.387 550.774 678.226 545.512 677.862 545.208C673.653 541.849 663.533 537.801 658.494 541.161C657.674 541.738 656.984 542.482 656.47 543.343C655.955 544.204 655.627 545.163 655.507 546.159C655.387 547.155 655.477 548.165 655.772 549.124C656.067 550.083 656.56 550.969 657.219 551.725C659.911 555.024 665.092 555.955 669.119 555.773C673.936 555.591 683.286 550.774 683.286 550.774Z" fill="#263238"/>
<path d="M675.171 523.088C675.171 523.088 670.091 517.826 669.727 517.543C665.517 514.163 655.418 510.135 650.379 513.495C649.555 514.069 648.861 514.81 648.342 515.671C647.824 516.531 647.493 517.491 647.371 518.488C647.249 519.485 647.338 520.496 647.633 521.456C647.928 522.416 648.422 523.303 649.084 524.059C651.795 527.358 656.956 528.289 660.984 528.107C665.699 527.925 675.15 523.108 675.171 523.088Z" fill="#263238"/>
<path d="M662.036 500.401C662.036 500.401 656.409 495.726 655.964 495.483C651.411 492.589 640.907 489.675 636.272 493.459C635.516 494.121 634.908 494.934 634.488 495.847C634.067 496.759 633.844 497.75 633.832 498.755C633.821 499.759 634.022 500.755 634.421 501.677C634.821 502.599 635.41 503.426 636.151 504.104C639.207 507.079 644.449 507.444 648.415 506.837C653.171 506.229 662.015 500.401 662.036 500.401Z" fill="#263238"/>
<path d="M645.886 482.611C645.987 482.611 643.052 475.872 642.81 475.467C640.098 470.812 632.124 463.324 626.234 464.68C625.26 464.92 624.347 465.363 623.555 465.98C622.763 466.597 622.11 467.374 621.639 468.26C621.167 469.145 620.887 470.121 620.818 471.122C620.748 472.123 620.891 473.128 621.236 474.071C622.551 478.118 627.044 480.851 630.849 482.166C635.321 483.704 645.866 482.611 645.886 482.611Z" fill="#263238"/>
<path d="M722.205 646.056C722.205 646.056 720.464 643.486 717.651 638.932C714.838 634.379 710.871 627.801 706.5 619.706C704.294 615.658 702.007 611.246 699.7 606.49C698.526 604.122 697.433 601.714 696.239 599.123C695.692 597.848 695.166 596.573 694.62 595.278C694.073 593.983 693.608 592.586 693.102 591.23C691.135 585.634 689.486 579.932 688.164 574.149C686.788 568.26 685.573 562.269 684.318 556.299C683.064 550.329 681.829 544.379 680.271 538.611C678.803 532.954 676.936 527.408 674.685 522.015C672.48 517.017 669.838 512.222 666.792 507.687C664.057 503.613 661.098 499.694 657.928 495.948C654.993 492.427 652.119 489.391 649.529 486.72C646.938 484.048 644.57 481.842 642.607 480.041C638.661 476.459 636.252 474.577 636.252 474.577C636.252 474.577 638.701 476.398 642.729 479.92C644.753 481.68 647.141 483.846 649.812 486.457C652.484 489.067 655.418 492.042 658.434 495.503C661.704 499.208 664.765 503.094 667.602 507.14C670.794 511.66 673.577 516.455 675.92 521.469C678.33 526.879 680.359 532.452 681.991 538.145C683.691 543.954 685.088 549.904 686.464 555.854C687.84 561.804 689.176 567.754 690.653 573.542C692.087 579.186 693.83 584.746 695.875 590.198C696.401 591.514 696.806 592.809 697.413 594.084C698.02 595.359 698.566 596.634 699.113 597.889C700.286 600.277 701.481 602.746 702.675 605.033C705.063 609.688 707.431 614.019 709.677 617.965C714.19 625.878 718.238 632.294 721.132 636.746C724.026 641.199 725.767 643.648 725.767 643.648C726.09 644.107 726.218 644.676 726.123 645.23C726.029 645.783 725.718 646.277 725.261 646.603C725.038 646.777 724.782 646.902 724.508 646.971C724.235 647.041 723.949 647.052 723.671 647.004C723.393 646.956 723.128 646.851 722.892 646.695C722.657 646.538 722.457 646.335 722.306 646.097V646.097L722.205 646.056Z" fill="#263238"/>
<path d="M152.941 234.044C152.941 234.044 157.13 247.847 158.385 252.036C159.64 256.226 168.018 252.036 176.397 249.122C184.776 246.208 204.022 236.554 208.212 240.318C212.401 244.083 245.045 327.343 243.386 333.678C241.726 340.012 239.621 343.797 228.733 341.227C217.845 338.656 213.656 327.404 213.656 327.404L208.212 346.711C215.173 358.558 220.69 371.195 224.645 384.354C230.089 404.026 241.382 467.676 242.232 485.667C243.082 503.659 248.506 543.873 248.506 543.873C248.506 543.873 244.317 547.637 222.965 551.827C201.614 556.016 190.726 556.016 190.726 556.016L191.151 562.715C176.687 565.807 161.763 566.089 147.193 563.545C133.386 561.386 119.886 557.588 106.979 552.231C106.979 552.231 123.737 483.583 123.312 468.505C122.887 453.428 119.122 440.88 119.972 426.632C120.822 412.384 130.092 390.628 130.092 390.628C130.092 390.628 136.79 378.06 127.157 353.774C117.524 329.488 101.637 293.059 97.4472 282.191C93.2579 271.323 127.582 260.415 131.852 258.735C136.123 257.055 114.69 219.392 119.709 215.203C124.728 211.013 152.941 234.044 152.941 234.044Z" fill="#92E3A9" stroke="#263238" stroke-linecap="round" stroke-linejoin="round"/>
<path d="M95.12 280.937C95.12 280.937 90.9307 285.531 92.6105 294.739C94.2903 303.948 115.642 366.342 121.086 376.401C126.53 386.459 131.549 384.759 136.163 382.25C140.778 379.74 181.376 353.369 193.094 346.246C204.812 339.122 225.758 326.979 225.758 326.979C225.758 326.979 245.005 335.782 244.6 331.593C244.196 327.404 246.28 319.45 240.411 313.176C234.542 306.902 224.079 311.496 219.485 314.856C214.89 318.215 181.801 332.018 167.148 337.118C152.496 342.218 144.886 344.242 144.886 344.242L125.619 304.453" fill="white"/>
<g style="mix-blend-mode:multiply" opacity="0.5">
<path d="M133.977 370.653C127.198 368.953 120.398 355.373 120.398 355.373C120.398 355.373 126.348 349.443 133.127 341.793C135.759 338.782 137.7 335.231 138.814 331.391L125.72 304.372L102.588 306.153C102.588 306.153 100.564 308.339 97.6294 311.78C104.713 333.86 117.159 369.054 121.126 376.401C126.57 386.52 131.589 384.759 136.204 382.249C140.818 379.74 181.416 353.369 193.134 346.246C204.852 339.122 225.799 326.979 225.799 326.979C229.985 328.884 234.284 330.533 238.67 331.917C236.363 325.056 234.117 318.883 234.117 318.883H211.753C210.195 319.612 208.495 320.381 206.673 321.19L205.257 332.463" fill="#92E3A9"/>
</g>
<g style="mix-blend-mode:multiply" opacity="0.5">
<path d="M187.265 549.438C187.265 549.438 175.891 576.618 175.891 591.15C175.891 605.681 176.519 660.648 173.362 671.394C170.204 682.141 170.204 687.201 174.636 689.083C174.636 680.805 178.097 654.941 184.897 619.281C191.697 583.621 189.127 569.333 189.127 569.333C189.127 569.333 201.857 566.783 207.807 565.083C210.88 564.108 213.9 562.973 216.854 561.683C218.037 557.07 218.916 552.385 219.485 547.657C219.485 543.124 187.265 549.438 187.265 549.438Z" fill="#92E3A9"/>
</g>
<path d="M95.12 280.937C95.12 280.937 90.9307 285.531 92.6105 294.739C94.2903 303.948 115.642 366.342 121.086 376.401C126.53 386.459 131.549 384.759 136.163 382.25C140.778 379.74 181.376 353.369 193.094 346.246C204.812 339.122 225.758 326.979 225.758 326.979C225.758 326.979 245.005 335.782 244.6 331.593C244.196 327.404 246.28 319.45 240.411 313.176C234.542 306.902 224.079 311.496 219.485 314.856C214.89 318.215 181.801 332.018 167.148 337.118C152.496 342.218 144.886 344.242 144.886 344.242L125.619 304.453" stroke="#263238" stroke-linecap="round" stroke-linejoin="round"/>
<path d="M240.451 313.176C234.582 306.882 224.119 311.496 219.525 314.856C219.147 315.112 218.601 315.436 217.885 315.827C219.871 318.129 221.415 320.778 222.439 323.639C222.965 325.198 223.37 326.736 223.714 328.193L225.738 326.979C225.738 326.979 244.985 335.782 244.58 331.593C244.175 327.404 246.32 319.45 240.451 313.176Z" fill="white" stroke="#263238" stroke-linecap="round" stroke-linejoin="round"/>
<path d="M174.434 249.83C166.743 252.643 159.539 255.902 158.385 252.036C157.13 247.847 152.941 234.044 152.941 234.044C152.941 234.044 124.466 211.114 119.406 215.162C114.346 219.21 135.738 257.035 131.549 258.695C130.051 259.302 124.749 261.063 118.718 263.572C121.43 268.004 127.744 275.918 141.607 284.235C162.534 296.803 167.148 300.143 167.148 300.143L174.434 249.83Z" fill="white"/>
<g style="mix-blend-mode:multiply" opacity="0.5">
<path d="M152.941 234.044C152.941 234.044 127.016 213.077 120.296 214.818L119.183 215.526C116.755 219.007 124 234.732 128.614 246.228C132.047 246.999 135.585 247.177 139.078 246.754C144.549 245.095 149.796 242.77 154.702 239.832C153.811 236.594 152.941 234.044 152.941 234.044Z" fill="#92E3A9"/>
</g>
<path d="M174.434 249.83C166.743 252.643 159.539 255.902 158.385 252.036C157.13 247.847 152.941 234.044 152.941 234.044C152.941 234.044 124.466 211.114 119.406 215.162C114.346 219.21 135.738 257.035 131.549 258.695C130.051 259.302 124.749 261.063 118.718 263.572C121.43 268.004 127.744 275.918 141.607 284.235C162.534 296.803 167.148 300.143 167.148 300.143L174.434 249.83Z" stroke="#263238" stroke-linecap="round" stroke-linejoin="round"/>
<path d="M156.584 178.207C156.584 178.207 165.752 161.713 156.948 148.214C144.016 128.441 115.864 129.27 93.764 145.056C72.0686 160.518 70.6316 190.714 70.1257 208.645C69.6197 226.576 78.221 242.909 68.5876 256.489C58.9541 270.068 44.5242 283.669 49.1588 309.209C53.7934 334.75 66.0375 343.473 101.333 343.473C136.629 343.473 152.617 308.703 144.927 285.328C137.236 261.953 129.141 241.755 129.141 234.145C129.141 226.536 106.878 183.104 126.408 177.134C145.938 171.164 156.584 178.207 156.584 178.207Z" fill="#263238" stroke="#263238" stroke-linecap="round" stroke-linejoin="round"/>
<path d="M143.692 161.976C139.652 159.585 134.959 158.532 130.285 158.968C125.61 159.404 121.193 161.307 117.666 164.404C104.328 175.293 98.8843 192.252 98.8843 210.426C98.8843 228.6 117.099 265.535 122.502 288.546C127.906 311.557 123.11 341.166 89.1902 342.441" stroke="white" stroke-width="0.5" stroke-linecap="round" stroke-linejoin="round"/>
<path d="M148.549 162.542C148.549 162.542 143.692 143.174 116.451 146.797C89.2104 150.42 78.302 192.9 81.9246 218.906C85.5473 244.912 116.451 291.562 118.86 307.307C121.268 323.052 115.844 330.581 115.844 330.581" stroke="white" stroke-width="0.5" stroke-linecap="round" stroke-linejoin="round"/>
<path d="M87.976 240.703C87.976 240.703 93.4404 254.02 89.7975 283.689C86.1546 313.358 65.5115 321.251 61.3424 311.557C57.1733 301.863 63.1638 293.99 69.2151 293.343" stroke="white" stroke-width="0.5" stroke-linecap="round" stroke-linejoin="round"/>
<path d="M165.772 240.682C165.772 240.682 158.628 240.338 157.677 242.706C156.726 245.074 167.412 246.268 167.412 246.268L165.772 240.682Z" fill="white" stroke="#263238" stroke-linecap="round" stroke-linejoin="round"/>
<path d="M163.404 231.939C163.404 231.939 150.856 243.253 152.941 246.106C155.026 248.96 163.404 238.153 163.404 238.153L168.019 240.662C165.656 242.333 163.659 244.468 162.149 246.936C160.895 249.871 162.149 251.955 164.659 254.89C167.168 257.824 167.594 261.589 170.953 261.589C174.313 261.589 175.142 256.994 175.142 256.994C176.645 259.716 178.473 262.244 180.586 264.523C182.61 266.203 188.54 266.547 188.54 266.547C188.54 266.547 209.892 325.238 214.85 333.961C219.808 342.684 221.124 349.463 235.776 347.784C250.429 346.104 245.41 333.961 240.816 323.073C236.222 312.184 207.321 274.501 199.772 265.717C192.224 256.934 188.884 252.744 180.101 241.856C171.317 230.968 165.954 229.43 163.404 231.939Z" fill="white"/>
<g style="mix-blend-mode:multiply" opacity="0.5">
<path d="M226.669 335.236C218.574 325.117 194.288 271.829 188.54 266.689C188.54 266.689 209.891 325.38 214.85 334.103C219.808 342.825 221.124 349.605 235.776 347.925C238.26 347.769 240.653 346.936 242.698 345.517C236.445 343.774 230.861 340.192 226.669 335.236V335.236Z" fill="#92E3A9"/>
</g>
<path d="M163.404 231.939C163.404 231.939 150.856 243.253 152.941 246.106C155.026 248.96 163.404 238.153 163.404 238.153L168.019 240.662C165.656 242.333 163.659 244.468 162.149 246.936C160.895 249.871 162.149 251.955 164.659 254.89C167.168 257.824 167.594 261.589 170.953 261.589C174.313 261.589 175.142 256.994 175.142 256.994C176.645 259.716 178.473 262.244 180.586 264.523C182.61 266.203 188.54 266.547 188.54 266.547C188.54 266.547 209.892 325.238 214.85 333.961C219.808 342.684 221.124 349.463 235.776 347.784C250.429 346.104 245.41 333.961 240.816 323.073C236.222 312.184 207.321 274.501 199.772 265.717C192.224 256.934 188.884 252.744 180.101 241.856C171.317 230.968 165.954 229.43 163.404 231.939Z" stroke="#263238" stroke-linecap="round" stroke-linejoin="round"/>
<g style="mix-blend-mode:multiply">
<path d="M175.405 253.615C170.67 253.615 170.953 261.71 170.953 261.71C174.292 261.71 175.142 257.116 175.142 257.116C176.645 259.837 178.473 262.365 180.586 264.645C182.61 266.324 188.54 266.668 188.54 266.668C182.772 261.568 180.121 253.615 175.405 253.615Z" fill="#92E3A9"/>
</g>
<path d="M164.153 253.979C164.153 253.979 163.182 249.446 164.153 248.15C165.797 246.329 167.533 244.593 169.354 242.949" stroke="#263238" stroke-width="0.5" stroke-linecap="round" stroke-linejoin="round"/>
<path d="M166.743 257.885C166.743 257.885 165.448 251.388 166.743 250.417C168.039 249.446 173.564 246.187 173.564 246.187" stroke="#263238" stroke-width="0.5" stroke-linecap="round" stroke-linejoin="round"/>
<path d="M187.265 549.438C187.265 549.438 175.891 576.618 175.891 591.149C175.891 605.68 176.519 660.648 173.362 671.394C170.204 682.141 170.204 687.2 174.636 689.083C179.069 690.965 189.168 690.358 191.697 692.24C194.227 694.122 206.856 698.574 210.013 696.045C213.17 693.515 191.07 680.238 188.54 675.179C186.01 670.119 198.012 615.8 204.326 603.151C210.641 590.502 219.485 551.968 219.485 547.556C219.485 543.144 187.265 549.438 187.265 549.438Z" fill="white"/>
<g style="mix-blend-mode:multiply" opacity="0.5">
<path d="M187.265 549.438C187.265 549.438 175.891 576.619 175.891 591.15C175.891 605.681 176.519 660.648 173.362 671.395C170.204 682.141 170.204 687.201 174.636 689.083C174.636 680.805 178.097 654.941 184.897 619.281C191.697 583.621 189.127 569.333 189.127 569.333C189.127 569.333 201.857 566.783 207.807 565.083C210.88 564.108 213.9 562.973 216.854 561.683C218.037 557.07 218.916 552.385 219.485 547.657C219.485 543.124 187.265 549.438 187.265 549.438Z" fill="#92E3A9"/>
</g>
<path d="M187.265 549.438C187.265 549.438 175.891 576.618 175.891 591.149C175.891 605.68 176.519 660.648 173.362 671.394C170.204 682.141 170.204 687.2 174.636 689.083C179.069 690.965 189.168 690.358 191.697 692.24C194.227 694.122 206.856 698.574 210.013 696.045C213.17 693.515 191.07 680.238 188.54 675.179C186.01 670.119 198.012 615.8 204.326 603.151C210.641 590.502 219.485 551.968 219.485 547.556C219.485 543.144 187.265 549.438 187.265 549.438Z" stroke="#263238" stroke-linecap="round" stroke-linejoin="round"/>
<path d="M188.54 675.179L183.481 681.514L172.43 674.774C170.265 683.214 170.71 687.403 174.636 689.083C179.048 690.985 189.167 690.358 191.697 692.24C194.227 694.122 206.856 698.575 210.013 696.045C213.17 693.515 191.07 680.239 188.54 675.179Z" fill="#92E3A9" stroke="#263238" stroke-linecap="round" stroke-linejoin="round"/>
<path d="M122.826 551.968C122.826 551.968 112.707 563.99 108.922 587.992C105.138 611.995 104.49 683.396 103.863 693.515C103.235 703.634 102.608 705.516 108.922 708.673C115.237 711.831 129.768 718.793 133.552 718.793C137.337 718.793 138.612 716.263 133.552 707.419C128.493 698.575 114.609 694.77 114.609 687.18C114.609 679.591 146.201 591.757 149.986 577.893C152.204 570.279 153.489 562.423 153.811 554.498L122.826 551.968Z" fill="white"/>
<g style="mix-blend-mode:multiply" opacity="0.5">
<path d="M108.922 587.992C105.138 611.995 104.49 683.396 103.863 693.515C103.235 703.634 102.649 705.435 108.599 708.512C108.76 697.765 109.307 676.454 111.068 650.691C113.618 613.351 122.098 566.681 122.098 566.681C128.438 568.758 134.976 570.175 141.607 570.911C144.884 571.396 148.191 571.646 151.504 571.66C152.811 566.025 153.577 560.278 153.791 554.498L122.826 551.968C122.826 551.968 112.707 563.969 108.922 587.992Z" fill="#92E3A9"/>
</g>
<path d="M122.826 551.968C122.826 551.968 112.707 563.99 108.922 587.992C105.138 611.995 104.49 683.396 103.863 693.515C103.235 703.634 102.608 705.516 108.922 708.673C115.237 711.831 129.768 718.793 133.552 718.793C137.337 718.793 138.612 716.263 133.552 707.419C128.493 698.575 114.609 694.77 114.609 687.18C114.609 679.591 146.201 591.757 149.986 577.893C152.204 570.279 153.489 562.423 153.811 554.498L122.826 551.968Z" stroke="#263238" stroke-linecap="round" stroke-linejoin="round"/>
<path d="M133.573 718.793C137.377 718.793 138.632 716.263 133.573 707.419C129.991 701.145 121.976 697.299 117.605 693.049L112.1 698.574L103.863 693.98C103.235 703.654 102.729 705.577 108.943 708.673C115.156 711.77 129.768 718.793 133.573 718.793Z" fill="#92E3A9" stroke="#263238" stroke-linecap="round" stroke-linejoin="round"/>
<path d="M158.385 173.754C158.158 171.869 157.561 170.047 156.626 168.393C155.692 166.74 154.439 165.288 152.941 164.121C147.922 160.356 129.505 159.506 121.551 169.565C113.598 179.623 116.937 204.314 118.192 206.824C118.192 206.824 107.729 200.55 106.879 210.183C106.029 219.817 110.663 224.35 115.682 224.35C117.04 224.419 118.39 224.102 119.575 223.435C120.761 222.769 121.734 221.781 122.381 220.586C122.381 220.586 133.269 233.984 148.347 235.663C163.425 237.343 171.783 220.586 173.888 210.527C175.993 200.469 160.49 184.642 158.385 173.754Z" fill="white"/>
<g style="mix-blend-mode:multiply" opacity="0.5">
<path d="M139.078 224.694C128.959 217.894 122.098 203.464 119.548 193.284C117.666 185.776 119.953 175.07 121.268 169.929C113.679 180.21 116.957 204.334 118.192 206.824C118.192 206.824 107.729 200.55 106.879 210.183C106.029 219.817 110.663 224.35 115.682 224.35C117.04 224.419 118.39 224.102 119.575 223.436C120.761 222.769 121.734 221.781 122.381 220.586C122.381 220.586 133.269 233.984 148.347 235.663C152.986 236.17 157.64 234.849 161.32 231.98C153.357 231.757 145.63 229.226 139.078 224.694Z" fill="#92E3A9"/>
</g>
<path d="M158.385 173.754C158.158 171.869 157.561 170.047 156.626 168.393C155.692 166.74 154.439 165.288 152.941 164.121C147.922 160.356 129.505 159.506 121.551 169.565C113.598 179.623 116.937 204.314 118.192 206.824C118.192 206.824 107.729 200.55 106.879 210.183C106.029 219.817 110.663 224.35 115.682 224.35C117.04 224.419 118.39 224.102 119.575 223.435C120.761 222.769 121.734 221.781 122.381 220.586C122.381 220.586 133.269 233.984 148.347 235.663C163.425 237.343 171.783 220.586 173.888 210.527C175.993 200.469 160.49 184.642 158.385 173.754Z" stroke="#263238" stroke-linecap="round" stroke-linejoin="round"/>
<path d="M152.293 180.089C151.69 183.29 151.877 186.59 152.84 189.702C154.499 193.75 160.793 198.202 159.984 199.821C159.174 201.44 156.422 202.027 156.422 202.027" stroke="#263238" stroke-linecap="round" stroke-linejoin="round"/>
<path d="M156.139 214.373C156.139 214.373 152.293 216.032 146.546 212.47" stroke="#263238" stroke-linecap="round" stroke-linejoin="round"/>
<path d="M140.899 189.722C141.182 191.443 140.737 192.94 139.928 193.082C139.118 193.224 138.207 191.928 137.904 190.208C137.6 188.488 138.066 186.99 138.875 186.869C139.685 186.747 140.616 188.002 140.899 189.722Z" fill="#263238"/>
<path d="M158.243 182.943C158.79 184.602 158.587 186.14 157.798 186.403C157.009 186.666 155.916 185.553 155.369 183.894C154.823 182.234 155.025 180.696 155.815 180.433C156.604 180.17 157.697 181.283 158.243 182.943Z" fill="#263238"/>
<path d="M132.014 186.403C132.014 186.403 131.185 180.332 135.839 178.45C140.494 176.567 142.984 177.903 142.984 177.903" stroke="#263238" stroke-linecap="round" stroke-linejoin="round"/>
<path d="M151.787 177.62C151.787 177.62 152.293 172.743 155.349 173.248" stroke="#263238" stroke-linecap="round" stroke-linejoin="round"/>
<path d="M190.625 556.016C190.625 556.016 201.513 556.016 222.864 551.826C244.216 547.637 248.405 543.873 248.405 543.873C248.405 543.873 242.961 503.679 242.131 485.667C241.301 467.655 230.231 405.402 224.645 385.022C218.068 389.636 207.928 394.716 192.264 399.067C171.155 405.039 148.551 402.556 129.242 392.146C127.218 397.307 120.519 414.651 119.811 426.551C118.961 440.718 122.745 453.347 123.15 468.424C123.555 483.502 106.818 552.15 106.818 552.15C119.725 557.507 133.224 561.305 147.031 563.463C161.601 566.007 176.525 565.726 190.989 562.634L190.625 556.016Z" fill="#263238" stroke="#263238" stroke-linecap="round" stroke-linejoin="round"/>
<path d="M190.625 556.016L188.54 433.817L199.914 414.226" stroke="white" stroke-linecap="round" stroke-linejoin="round"/>
<path d="M153.649 405.018C152.852 409.208 151.071 413.148 148.453 416.515C145.836 419.883 142.456 422.58 138.592 424.386" stroke="white" stroke-width="0.5" stroke-linecap="round" stroke-linejoin="round"/>
<path d="M133.573 548.305C132.703 554.154 132.156 557.736 132.156 557.736" stroke="white" stroke-width="0.5" stroke-linecap="round" stroke-linejoin="round"/>
<path d="M140.737 402.144C137.233 414.737 136.02 427.858 137.155 440.88C139.3 460.956 140.737 496.09 137.863 517.583C136.75 525.962 135.637 533.916 134.686 540.493" stroke="white" stroke-width="0.5" stroke-linecap="round" stroke-linejoin="round"/>
<path d="M112.06 541.242C112.06 541.242 134.322 559.173 185.909 553.385" stroke="white" stroke-width="0.5" stroke-linecap="round" stroke-linejoin="round"/>
<path d="M196.656 547.07C196.656 547.07 218.918 548.507 244.701 533.45" stroke="white" stroke-width="0.5" stroke-linecap="round" stroke-linejoin="round"/>
</svg>
